<mxfile host="app.diagrams.net" modified="2023-12-17T16:24:37.643Z" agent="Mozilla/5.0 (Windows NT 10.0; Win64; x64) AppleWebKit/537.36 (KHTML, like Gecko) Chrome/120.0.0.0 Safari/537.36" etag="dVNw0UputTYXl1C1sWWZ" version="22.1.11" type="device">
  <diagram name="Page-1" id="-kJJ4lTYBGQIPnU2HHhF">
    <mxGraphModel dx="1105" dy="1658" grid="1" gridSize="10" guides="1" tooltips="1" connect="1" arrows="1" fold="1" page="1" pageScale="1" pageWidth="850" pageHeight="1100" math="0" shadow="0">
      <root>
        <mxCell id="0" />
        <mxCell id="1" parent="0" />
        <mxCell id="udLiIxojpCSS-x_ja0xO-1" value="Business Understanding" style="swimlane;" vertex="1" parent="1">
          <mxGeometry x="30" y="-1010" width="170" height="250" as="geometry" />
        </mxCell>
        <mxCell id="udLiIxojpCSS-x_ja0xO-2" value="" style="shape=image;verticalLabelPosition=bottom;labelBackgroundColor=default;verticalAlign=top;aspect=fixed;imageAspect=0;image=data:image/png,iVBORw0KGgoAAAANSUhEUgAAAfQAAAH0CAYAAADL1t+KAAAACXBIWXMAAA7EAAAOxAGVKw4bAAAAPHRFWHRDb21tZW50AHhyOmQ6REFGbHF2ZWcza0k6MjAsajoxMTQ5OTU2MzkxMjU0ODAwMzI3LHQ6MjMxMjE3MTQtVlxUAAAFB2lUWHRYTUw6Y29tLmFkb2JlLnhtcAAAAAAAPHg6eG1wbWV0YSB4bWxuczp4PSdhZG9iZTpuczptZXRhLyc+CiAgICAgICAgPHJkZjpSREYgeG1sbnM6cmRmPSdodHRwOi8vd3d3LnczLm9yZy8xOTk5LzAyLzIyLXJkZi1zeW50YXgtbnMjJz4KCiAgICAgICAgPHJkZjpEZXNjcmlwdGlvbiByZGY6YWJvdXQ9JycKICAgICAgICB4bWxuczpkYz0naHR0cDovL3B1cmwub3JnL2RjL2VsZW1lbnRzLzEuMS8nPgogICAgICAgIDxkYzp0aXRsZT4KICAgICAgICA8cmRmOkFsdD4KICAgICAgICA8cmRmOmxpIHhtbDpsYW5nPSd4LWRlZmF1bHQnPktpbW9jaGlNYXJ0IC0gQ2hpenUgQXV0byBDYXI8L3JkZjpsaT4KICAgICAgICA8L3JkZjpBbHQ+CiAgICAgICAgPC9kYzp0aXRsZT4KICAgICAgICA8L3JkZjpEZXNjcmlwdGlvbj4KCiAgICAgICAgPHJkZjpEZXNjcmlwdGlvbiByZGY6YWJvdXQ9JycKICAgICAgICB4bWxuczpBdHRyaWI9J2h0dHA6Ly9ucy5hdHRyaWJ1dGlvbi5jb20vYWRzLzEuMC8nPgogICAgICAgIDxBdHRyaWI6QWRzPgogICAgICAgIDxyZGY6U2VxPgogICAgICAgIDxyZGY6bGkgcmRmOnBhcnNlVHlwZT0nUmVzb3VyY2UnPgogICAgICAgIDxBdHRyaWI6Q3JlYXRlZD4yMDIzLTEyLTE3PC9BdHRyaWI6Q3JlYXRlZD4KICAgICAgICA8QXR0cmliOkV4dElkPmZjYzI1Mzc0LTc1NWMtNDJlZS05NTZjLWE3NjFjNzMzNTRkNTwvQXR0cmliOkV4dElkPgogICAgICAgIDxBdHRyaWI6RmJJZD41MjUyNjU5MTQxNzk1ODA8L0F0dHJpYjpGYklkPgogICAgICAgIDxBdHRyaWI6VG91Y2hUeXBlPjI8L0F0dHJpYjpUb3VjaFR5cGU+CiAgICAgICAgPC9yZGY6bGk+CiAgICAgICAgPC9yZGY6U2VxPgogICAgICAgIDwvQXR0cmliOkFkcz4KICAgICAgICA8L3JkZjpEZXNjcmlwdGlvbj4KCiAgICAgICAgPHJkZjpEZXNjcmlwdGlvbiByZGY6YWJvdXQ9JycKICAgICAgICB4bWxuczpwZGY9J2h0dHA6Ly9ucy5hZG9iZS5jb20vcGRmLzEuMy8nPgogICAgICAgIDxwZGY6QXV0aG9yPkNIUklTVE9QSEVSIERBUlJFTiAoMDAwMDAwNTQ4MDQpPC9wZGY6QXV0aG9yPgogICAgICAgIDwvcmRmOkRlc2NyaXB0aW9uPgoKICAgICAgICA8cmRmOkRlc2NyaXB0aW9uIHJkZjphYm91dD0nJwogICAgICAgIHhtbG5zOnhtcD0naHR0cDovL25zLmFkb2JlLmNvbS94YXAvMS4wLyc+CiAgICAgICAgPHhtcDpDcmVhdG9yVG9vbD5DYW52YTwveG1wOkNyZWF0b3JUb29sPgogICAgICAgIDwvcmRmOkRlc2NyaXB0aW9uPgogICAgICAgIAogICAgICAgIDwvcmRmOlJERj4KICAgICAgICA8L3g6eG1wbWV0YT6ay6EMAAEMrElEQVR4nOy9abBlWVbf91t77zPc6U35cqiqrKrurqoeoLuCZgwhLLstLCMReJDlibAiFJ4JD6Fw+IMchG05FOGww7JkyYowwoCEZcDCFkYCGRCjUIOYm2ZoaJqmh5pyeuMdzzl77+UP+9z7MoGG7q7hZr7cv4pX+bLyDStf1sv/WdN/SQhByWQymUwm80hjth1AJpPJZDKZ108W9Ewmk8lkLgFZ0DOZTCaTuQRkQc9kMplM5hKQBT2TyWQymUtAFvRMJpPJZC4BWdAzmUwmk7kEZEHPZDKZTOYSkAU9k8lkMplLQBb0TCaTyWQuAVnQM5lMJpO5BGRBz2QymUzmEpAFPZPJZDKZS0AW9Ewmk8lkLgFZ0DOZTCaTuQRkQc9kMplM5hKQBT2TyWQymUtAFvRMJpPJZC4BWdAzmUwmk7kEZEHPZDKZTOYSkAU9k8lkMplLQBb0TCaTyWQuAVnQM5lMJpO5BGRBz2QymUzmEpAFPZPJZDKZS4DbdgCZTOYPIByDP0LiFOIC4rz/8cEX0QbUg7ag3e96adPHkgqkuO/FgZQgBSoFmOGDL3LxupoxuCvgrm7365HJZD4jEkLQbQeRyTyeKIRT8HcRfxf8Peh/FH8XwlES6YcKA24f7CHqDpPAu0Nwh+j6dey2g8xkHkuyoGcybxXhHGk/Bd2noP0U0n4SulvAJfoWtPto+Sz0L1o+C+4aINuOLJO59GRBz2TeDPzdJNjtfeIdTrYd1XYwNRTPouUzFyJf3Exl/0wm84aRBT2TeSMIx0jzMWg+ln5sPwkath3Vw4u7ilbPQ/UCWr0AxTMguVSfybwesqBnMp8PcYYsfw1Wv46sfi31vjOfP1Khg/fC4IvQwReB3d92RJnMI0cW9Ezms0FbZPVRWP0asvr1VEq/TL3vh43yGXTwRejg/VA9T+7BZzJ/OFnQM5nPhK6QxYdg8TPI8lfSCljmrcfuoPWLMHw/Wr8XzGjbEWUyDyVZ0DOZ+9EWWfxiFvGHFTNEh18Cw69A6/flvnsmcx9Z0DMZbZHlL8P8Z5Hlhy6MWDIPN1ncM5kHyIKeeXyJU2T2j5Hpj4G/s+1oMq8HdwUdfwAdfwDs7rajyWS2Qhb0zONH81vI9EeRxc/lkvplQyw6+FKY/HG0fg95mC7zOJEFPfN4EFfI/IPI7Meg/fS2o8m8Fbhr6OSfR8f/LJjJtqPJZN50sqBnLjf+DjL9YWT2k+mwSebxQyp0/MfQna/tveYzmctJFvTMJUSR5Ydh+iPpx8dkX1z7f0muMn8GDDr6cnTyNf1ueyZzuciCnrk8xEU/5PYj4G9vO5o3najpW1dVCEHxPqIKihIjtF2k6ZTYf4tbKxSFUBWGQW1xNin/+gGg/3CPxwNB9QK687VpSj732TOXhCzomUcf9cjsR5Gz70vnSC8xnY+cTT0hKItVQIHglaaLNK3ivfLq3YZPvLykDcJypbQddF6xFvYmjqIwXD8oePvNmoNdx3hgONi1jIcOYPNQIMjlF/fiKXTvT6PDLycLe+ZRJwt65tFFPTL/SeTs74M/2nY0bxqqEKLy6VcX/NpvTfERTqee1+52KMKdY8+dI0/nldWq4+7RktmypXAFKkLXelQFsYKgiBGcNYyHjr2dkhtXd3j+mQHverbkxXfWPH2jpCrNtn/bby1Z2DOXgCzomUePx0DIY1TOZh0v31rx6ddWvHKn4eMvrXjpVkvp4HdeXnDnqAGE5coToydG0KCoRoxRVCHGiCAYaxERrDUYa9AAUQEB6wqMs1Sl46knJrzvhRHP3ay4fsXx4vM1T12vKAv5PSX6S0kW9swjTBb0zCOFLH8JOfm/oHt126G8aajC0WnLz3z4hF/72Izf/OSS33m5YbpMZfX5dIn3nuADISgxpjOtIgaD9Bl9RFURwFqLMQYRSS8GwGAEnHMgSuM9qhHrHIO6xjnHcFDywrNDvuC5ES++UPPeF4Y8dbVgUF9k75dW3LOwZx5BsqBnHg3aT2CO/w40v7XtSN401kNpPii/8fEpP/kLx7Sd8lMfOuNDHzlm5RVnCyQqIQR8F2i7jhAixtjU8wboRV1VEUmiqyhGDMZciLG1FuccztnUiw8dMcZevxRjDMPhAOsMOyPHi+/e5yvfv8d7n6957mbJoEpDdtZcXsHTwYvowZ8Dd23boWQyfyhZ0DMPN+EEOflOZP4zXPb1s7aLdF5pmsDP/sopv/LROdN54Ic+eItPvnQGxiLGIKooEEPK0DXGfojNIKSpd5GUkUMESV83YyxGJE3Hq2KtTVm9dVhjEYGoEY2BqLEX99iX6h31sOZgf8TVfceL79rl2ScGvOOpkuefqXiiz9wvpbRLge78KXTn68DU244mk/mMuG0HkMn8vsQVcv79yPn/d+mPpWi/Ox4jhKCcnHXcO/FM55FPvtpxfBYIUSEGlJDeEEVVoM/LNYL29e8YFemF2Jj0FioCYsAIRO2FW1OvPQSCDxizzuAt1jiEQNs1RA0YI6i23Fp5Xn0FfuvjUw72aybjine9fcKf+CM7vPjOmievFdSXbaBOO+Ts7yOzn0D3/2109EfJZfjMw0gW9MxDhyx/FTn+VvD3th3K58V67ct8hgazAhqVoMrxSUfnlasHZepHK7ReWa0ip7PIS7da2k5xztG2HapCqnAnMUeTkBsjQBJSkUgIof9v0vfPDSDEmHrt1hpCCIQQcWWBEUFV0xBd32sHwbmKznfpfQObvvxy2XCrXXL3yHF81jFbOF66Ffji95S87WbF9QO3GaK7NIQz5N43IdMfJh78e1A+s+2IMpkHyCX3zMNDXCDH/wcy/+C2I/m8iFHpgvadbCXEdba8FuG0ftZ55XzmOT7r+J1PL7l72rE/cbzw7JDJ0PLK7Yaf/PlTfvrDCz792pz5fMFq1dB0SdBVA5qUnHWmKCKp1K7p9RBCH5XinEHFpJK7MX1v/eJtCudw1qH6u/4qEEml/F7sQwioav+AAMakvnxROsajMYf7Y77kfRO+4B0Vzz1d8PabFTeuFFTlJRN2SEdgdr4O3f1X89nWzENDFvTMQ4EsfhE5/luPlDFM34reVF81KlGT+UvnlVUTmc4js7nv/7tyNg2czQLTReDopOPopOPeqef2vZZRFXnu5oCTqee3P73kldemzBYrfFA6H/AhZdBK6m+nXrn0WbVJsajirNsMvyURjqn3bsxm4l1VN8JuRLAmiZL0VYWNuJv7HxgU7/0Doi4oxgrWpKx/NBpw/eqEw4OKL3xuyB//ih3e986anbHlUs7OFU8TD/9DKN++7UgymSzomS0Tp8jRtyCLX9x2JJ81GxHvv3NiVHxI4rhqkpPbYhU5OfecnntevdPx0q2OVaucTpXZKrJYeSQo0cP5rOHkdMF8tgBSv3zVdLRtR4ia+t+mL5mH0K+kxbRHThLkVMZP/zLG4ZzbiHCMim4G40xaVetfV1U0ai/I9oEsPcaICn0v3myy+iTofe+e2A8BKNYIReEoy4K6rrh+dYf3vXPCV33xiK96/5BrB5e1wyfoztege38GpNp2MJnHmMv6HZZ5BJDFzyHHfxvC+bZD+ZzxPgll1DTI1naR1Spy57jjznHH2TTyyl3P7aOOs2ng9lHk+HjFogm0nWexXOFEKcTSdh2LxZK2bTdraFHT3DqQ5tdtTIYw6GZqXWLyc1chZeBCGnwjEoLflNgLZ4nEjfe79/4BwdcYiVxk5+seurWW1ncYY9LEO0nkTf9w0UeRKv8hElSBVMYPIXBLYbmK3DmJdB184MuHXNm12MvWW0eR8x9AFj9PPPwGqN617YAyjyk5Q8+89YRz5PhvI4uf23YknzNRoesii1XEGHBWaFvlldsNZ7PAfBn5lY8tmc6VtlU++qmWzgvHJ0tOj09pmo6m7fDBgwacMagafPB0PtD5NNAWVYgxpBl2IxirFNbRJ+VAyshjjKlPbwxFUYLGTTkdLkrs6354ahP0g28m9dxT+T6ZzDibVuPSJ1Aw0v96+mtiLexJ9HXzuUzv+x41UBQFRWFxrmA0HDAaD3n25i5/8o9O+MCX1zx1rcDIZTWlWWfr/wZIse1gMo8ZOUPPvKXI8sPI0d98JLNy7bNxEOrKYE3a6b5z3HLn2FMVwku3W+aLyOGu5aVbnuk80HbC+WzJfLmiaz0heFAleE8QsLZAo/ZerBExIEFh3fsGiEKUuJlYVzTNYokhihJQovc4m4RVjIGo902um5TpG4MYB6Td9aj9gZcYiF1E1WH77F0QLIK1BTFGQohYMcQYiCFgC4dqSJUKSaKuEXyIfWkfui7QNZ7Xbq/4R//UIsCf+mcMh/t2s653ueiz9eWHiVf/PBRPbjugzGNEFvTMW0NcICd/B5n9k21H8rqwVrBGUQwxKicnnnvHHV2nfPSTDa/dadmdWG4fe16+7Wlb5eT0nOV8QSpTJ1MYIa2PRY198xuMCJVzaIx4o2hRgiqR9A5x7fymawsZ+tW00Pe2A5GLfreYtXMcfXsgfR7n7MVDwX198ZTtR1yMFEWxKbUbQ+8Lr70Ap/fz3m++Lhojvh+WCyHSattn9YJdWRTlUy97fuCDgaIQPvBlAw73zeVbbVvTvYp57RvR/a9HJ19N3lvPvBXkknvmTSdl5d8C4WTbobxu1jNjISj3Tjo++UrD8Znnldsdv/rbDdcPLKsucute4HymfPLlc+7dO0P7DNf7jhhSVhx9wPdWq84aSmupjMMZQ7SGEHy/qpb66TFGfIigkvrrfd06xojvkvmOivTubwZD6nVDSv5jTMNs1iXnt4tJeE/X+Y2gW2s3gu5sbykrNvX2Y0hWsho35fgY0yT9ujRvekMbay1VVTOoKgaDirouMc5y/eqYL/3CCf/iVw75kvdUOHe5xU7rL0QP/xOwO9sOJXPJyRl65k1Fpj+CnPyfoP4Pf+OHnGQYk3R0uYq8dKthOvcsG+WVex2H+xZrYXYW0zDYvQXHx2f43pglhPQ1iDESQ3J7Ew0YgdoK++MBe8MRTixRYNWuWK5WxN7K1cfAYtUwbzt8jKgmD/aoyd5Vo6JR1v4yYE0vvuuh/IgieN+3x3v/d4XeBlY2g3HrrN322X7qlV8MxolZT78ns5p1j10Vgkboe+reR1rrcV3vGy9w5+6Mn/i5wO2jwM7I8p53XO5es6x+HXntL6BX/n108MXbDidzicmCnnlz0Da5aj2Cg29/EEJyXr191HL7XktRGM5mHh+U8UA4PgvcPfF8/FOn3Lp9jvf+wlhGNWXnvdsaGhk6x/645mBnzI0rB+yOxhhJLm7HJyfMnO171ILvPHMjWAvLLtAGxQPOGDx9+Z7kIauShuqM6fvhApbU81/vn6tKP3TXz6v362nrQbcYIp12GGOx1v2eKfj1lPvm5/06G6SHh6gx7a3HCKRJ+jIUVCVMZ3M++smC7/2JFWUB77hZgFziwnQ4R+78Vdj9l9G9f41L/DvNbJEs6Jk3Hn8Lc+evQffStiN5Q1kPcM2XgVfvtJSlYb6MfOLlFh+UV+50nE4jv/XJKbdvnxK6fsVLI94Hur58Ln326ozlmRtXeceNaxyMSq7u7zMcDRFrWcyXjErDfDFgOl8ync3prGLrApHIwkamq462n6VzODobCZp67ekOumKMZW3/apylbVNpPobex73fI9+YzPRl+PXVtbVDnPSX2u6/1hZi2AzcWcvG5GbdOwcIGohdIPbDczDsJ+ots9mcn/rlkmUjfP2fFN75rHvg63z5UOTse6H9BHr4DWDG2w4oc8nIgp55Q5Hlh5F7/yvE1bZDecNRTadNz6aeVROxVrh1ryOqsmojd45797fjM1ST/3qMkWa5ouu6vredBtoGZcHNqwc8//QTXB8PmVhhty7Y3R1D4Zg6Q2GV2aJmMJ1TOFg1HU3bYiRQmogDll7pIvggEDvWE3dqTCrHxxSnGDA2mcokt7d+QC8mURe52EOHNLCXyvQpDw/RI1Jsyu7J68Zg+r13Ma73hvf9r/cZfIyAwXeezhq6tkszAArGtMznK37pNyzTWcd//K+PeeezxSWdfr9Alh9GXvtG4rX/Eoqntx1O5hKRBT3zhiHn34ecfDeX+cyp98p8EbAW7p10TGdph3s6V+6etLz22ilt4zEYQgy0TRJzEw3GGYzApLS88+YN3v3sE1zd26G2DqfKaDCkLkuKqqQuHIPKMawrRoMBe5MR3necTaecTRfJjGa54nQ2Z+WFpS8QjRhV2hAJui6JByAN0gkOa1MJXw2EkJzgIJXZCYAmMTd98z3Evu+v8YEqsXMOI6bP8NNFN2NkU94Xsf0wn6Ka7GLbpgGFegBilK6D5WIJKvz6bxd8z48K/9bXjHj7U5df1PFHmNf+W/Tgz6HjP7btaDKXhCzomdeP+mTf+ogeVflsiap0PqIkv/b5MtB2kZdudbx8p+PW7TMWyxWi0PmW4D1t55OYiiXGSFUIz928wZe9793cvLrPqKrBe0LXUZQF1hqMgVE5YDgY0u54ZosF59MpbdcyGgyZjBaslisWiwUDWzBdtcxWASfKMgSaEDc99tj3yqMqBjDWYkLYlOTXxjVrH/i0ksZFdq66cZhLPXJ7IbS9kCd3uvQg4FzRv56m6tM6nKS1thDQpu3X6nSz9qYKVT3gH/8CnJy1/Gdfv8/TNx4DUdcWOfrmVII/+LNcTDNmMp8fWdAzr4+4wNz5n6H56LYjeVNZm8q0bUREadpI4WC2CLx6d8Wde+kq2v7ehLPTWVoD6w1kECFqpDTC9d0d3vfcs7zjiQN2hkMKW0AMtG0aOiv71S7T3ySvipq6qnHWMZvNEAyihoErmNQ1O8Mx987OODo+pzTKIhiWPlIgzNTTKKjYi4y573HHGLGS+uaRC3e5lFFbkPXhlmQkA6RmvWjanw9rK9l+EM6s7WIL+gOxiCghKEbSLv36c7Rt11cK0vs4V2Cdw3vLL/2m59u+95g//+9cZWdkNjv7lxmZ/jD42+jhfwpmuO1wMo8wWdAznz/+ThLz7pVtR/KmE6MSYzp/ao3QdZGmjRydttw7nrFYNLzwtn12JwN+5vYRMQTus13HiHJlMuSL3vl23vXMk1wZDyhcgXPJPCb5sAtluRZ0g+AQsVTVgLoeMhudM53OOHFnBD8gxkDbdlTDCucsJyenVG3HKCi1MzgjzLtAq6SDLjGtlIUY+hOsgvQ9cVivnsnmIUT6YTrbD8aF/mFA77OGjTHinMOKSzfXJV2dS8LfT92rRTQQVdPH8B3SpME4ELquo+s8rfNYa/jpDzXcvHrC13/tPnVlLr+iA7L8FeTWf0e8/hfA7m87nMwjShb0zOdH81HMnf8F4nTbkbwl+JAuqjlnqIrURz8583z6tSXHJzP2dwf8ia+8ys/96jSVljUmK1QVhIizkRff+Sxf+gUv8MSVfQalRTBgkw2bsRZXFJRFSQiKK4p+5cxii4JJVVFWJeVgQFEXLBaLtOPdtgwnI8qqpHDC7HzKoulwBkpjGDSe02XD0nd0YtNEewz9Tr0kFzojQESg74OnBxEx6UFmfYXNe/+Aq5wYiL33fAm4wm2G4Wx/wMVaiOqJxoKnn3RX2rYlhLTjvlqt+uG69EAjpua7/9EpVw8K/qUP7HKZZzIeoHsF89p/Q7z2X+RzrJnPiyzomc8ZWX4IufvXQbtth/KWYQy0XaTrUg9dVXnpdsMrtxdoCDz7xJCXbnd8+DfuosEjepHxxuC5cXWf93/BC9zYm1Bbh4oFEawIKkJRVv1qmO13udPrrI1dAFeWDKLHjCeYqKz60rVqpK5qqqLk6O5dTs/OcLM5lekoBWyMnIpnHpVVCOmAS28oI2Ixsl4160vlrHvXsZ98vzi9ul5LixqR/n2S2Lco+sB51nUPfc26H54eBkzvDx/w3tO2HUUJMRpiEFZhyN/7kXPe9lTBe5+vN/vtl55wgrn1l9DDb0CHX7btaDKPGFnQM58TMv+nyL1vYn0m83HBrg1TegvVpoNPvjzj7HzG3u6Qqq74uQ/f4/T0HGLqs6d7Z4IR5V3PPsXbblxlWLnestVge/FTFOuk91s3OGPxGpMtbH+i1RQO6yxVWWJU8T6CLKk0tQKsNYzqAaPRkN2TE6azOSfnZ5yeTikErDOYNhDbiO9310OMG6c4wRA1ecLLfXfRxdjNjnr6/ffX1Yy5WGHrDWQQMKZEY/KUDyEkU5n+AtzaN1cQYkhnX0NIot75Du891nqiRoaDAa/eFX7gg1OevFpwZc9d7gG5+9E2PTAf/kfo6Ku2HU3mESILeuazRmY/jhx9G49NCfR+1utYJr3cOe54+fYSVaWsKj796oLX7p6n7FO1P8OSXNiu70z4sve8k4PJGNUAIhQmDZyJgHWut2RVvNeU+faX3EL0mBhwhaVwDrEOqS1D0vW0znsEIWhkXFdUoyGT3V0WiwU7Jyc48xImdlgLVlIG3MWIj9LbwgZiNP3kefJlDyT3OYUH9srXGfrmZKusP0a6DOfbDisGjCHSl+X7/1U2mXpf6qcfwOtajzENIkLTLlECZVnjvcPYkp/+5QVf+gUV/9yX7VzCO+p/EIrc+5sQl+jkX9h2MJlHhCzomc8KOf+HyMl3bTuMrSECZWFYriJNs/ZxT4dMqsIxmy1pVqs+C02XzAxQEnnh6ad4+82nMCiBC+vUqCkDN+kOKtALqlwYuyRBVKIPdH0/WxAK6yiLkhhSWdyQSvPDekhVVjSThslkh9B5gveY6YJIw7zzzH3ER8WvHzo0ub2h8eL6DOnBQsQmD3i9KKGnjP1BR7h1X917j3Muucj1sVlrH/g6bg7G9CX3EDzee5rVClWlKAo677HOcu/E87O/cs5XvDhmPLz4OI8Hihx/e3oti3rmsyALeuYPRU6+Czn/h9sOY6sIUJUGZ2E2D7xyZ0XX+Y3wds0K9SGVyDEQA6VRro6GvOdtz1Jbg8RUqpbeKU0k7YWve9ausCl7Tf6tGGtSeToqoW1RY4kmEPrd8PU1tBBCOqKCwWEpq4qiqCiLmhs3nsC3HaPBDO7d47xpWHhP51OlQDce834zGxBjJCJpsE3jxi1ufTY1+bann1/4wvc2NiG1YlQjGtO6Woxrdzn5XT319SGY9CBgTId1jqZp+stuHmOFT7zqmS/jYyjoiSzqmc+WLOiZPwBFjr4Nmf34tgN5KHBW2BkXfGS+4JVbS7wP1JXDWKVp/SYDVwQnhqFV3v3MTZ5/+gkKl06KrnvWIQSstTibJtmxFukvmhkLIfR5rE0/8SFCL8Lrne7QC+X61CkIxjqsdRRlSVVWtFcOaVYNezu7GCuczucs247OR1YqqHXEEGnaNk22r8+zaX9vHUBTSZ/7jF7uP8SyZj0Jvyb5vMsDPXhBiP3DwPpa2/r9rPWsVivatqUoCryvGA4HfPg3V/yDHz/iP/gzN9KDzGPTTL9Ajr8d4hzd/Ve2HUrmISZbE2U+I3LyHVnM7yNGpSyF07OOVeMRYHdSsTcp8EHTfvd6Ijwqu3XBc09dY38yxBUm+akrSSDjulxtQCyoQaOhcAVFUSI2ibwpCmxZUtY14txGzI0xm9OmMfYmL5I696n03WGMMB4MGFYVhbNMxmPGdcVuVbJTOgYGhlYYlC4N/cW0O78emEMj1qShPptOr2+m4X+/qfONOY1eTLdvhuv6Sf0o2vvAX1xo25TrgyeEbrMe17Ydi8UcH5V/8ovnLFbxsRTzNXL6/yCn37PtMDIPMTlDz/y+yMnfRc5/cNthPDSsl7p8p7x8u8W5Ah/m7O0U7I6h8UnMxSSbUyORq3sTnrx2wLAukgBurpklu1XnCpx1YAuipmTc2d5H3bhNCdz0h16KsqRt2168UyJd1jVNs9pcRwvRo9Kvk/Wl+Ml4zGq1xBYFo8GA+aKj6SJdF+hiAGspnKH1adBuvZYGFucsRi3eB4IPiOgmq77IvC9E++ILpve92q+5GbO5NCcbu1jZ3FZfD9xZY/Bdh2rEd0n8f+cl4ad+8Yyv/sr9/v3egj/0hxA5+x6QAt39um2HknkIyYKe+T3I6fcg59+37TAeOowId48bbh91m+tkRoTTsxXBB1QMUZPlaemEw/09rlzZp6xrjCV5uluDxWBNEm8xButs6rsbi7UWK4KV9QNEuk7mijKtt1U1vuv6K2qpZF8PhzRNmwxaNPQPDxDadIt8PB7Rtg2rpmE8HLFYrNCYHONOlx1iHYOyoukCwff9btKDiYaQVuuMwYhnfbQ8qrCW8rVZjKwdaaA3c1/X6PuMPWpfE5TNm2iy10n/TUlrbhKJQQmhw4qw7C/U/dAHj/kj799lNDSX3+f9D0BO/y6IQXe+dtuhZB4ysqBnHkDOvi9lAZkHECCocnreMagE7zuKwjFfCXemDRri2pIFK0pdGK4c7DEYDrHOYa3pb6EbNoJm+uzU9EdNbOqF235YLcZAaSxJBQ3iHFYjpfN436FKL+oF1pRpajx2WGMw1qFFoGs9Ygyj8YTJYsVoOGJYnkNMw3VNp7QqFKWjaQtCbAj9zfYYIxo9BkdhLSEYAjG5umma0g8xldHXQn+RmBsQ3eyfy9qBrv9ial++N4BqytytGArrLkxuVFFRQhewCJ942fPa3Zbnn63f4j/9h4/1xkkW9cz9ZEHPbJDzH0xP/5nflxD6PfE+G71ysMuqVc6nbRImAaJSGBhWjv29CWVVIIA1FjEGjYqoIGIoCrfZQU8OcQbjHFaSyQusS/RmY9PqXIHYAtO5ZDEbI8ZaSuuYiKTyu0aqssIVjs77dKJUHKvWMxjfo6prOt9SWhhVFjrFWseoKmnaDrQfZosRDWBI/XpvLQTFiVIYYRVTz95ECKzPtUZUBIn0mpxekY0he39ilf50ez81b4xBNuY9903PS5ryb7uWV+8YPvVKwwvP1o+Fv/sfhpx8F5ghOv7AtkPJPCRkQc8AIPOfQk6+Y9thPLSoKmfTjtnCc3QWiAoxCMtlmsq21hB8GpQrjHCwO+ZgZ4QRQZxD16JFEnNrC4qyxFhBTYEpSoxJN8YFehOVlNFbaxFjN33otfd7KeujK+kIymA4JIb18ZUkiq6EshowGI1wRcnR6Smz81Pa1YLSGoaloek6jCq1sxSFJfp+tM8Y1Bi87za75Nr//ia1owzC0geWnYde1EExmi64IalNEe/rp7P2pRO56Nf30/AoeO83Ap8qGmkjoAst07nw8ZfmfDW7b+Uf/UNNMnoii3oGyIKeAWT1EeTeN/NYOsB9lsQIy1Va3fJBccbSNG0aFovJeMUIWIRS0nT5ZDTsfc0lTY2LoSwrjDiMcdjCglhcUWJdCZjeQS1Zsdq+HL/eFzcYrHVJaDWVsG2Mm/exxmAkCWEybFkPslliiAxGY24+/TbUd8S2oWs7fFSWXWTeLIlC8nVHEWMx/TU0NBK8T5axBsTB3mRA1wbOl+ncqvqQ7HRUELmYcFfV3hFvve9G2tU3vVtcP+AXSVsCD0zuxwiY+06uVvz2SyuWq0hdm5ykA+vVUtxVtH7vtoPJbJks6I873cvI3b/C4+bN/rkSe8EeDtPxlKIsKVMjmPMQiRpxkvrAzllGgxF1VVM6lwxaRLCuwDhH4SqMKTAGrHWILfqpb7OZ+DaSDrNg0sOADwEnpnduM5upeWd0Mz3eyyioJp/4ssQ3LatVxNoCawMHB1dQ37CYnrFaNZSDiK1bXr59j5XvcAhFv1ZmRHDWMi4KQufpmg6vYFTYHQ3QosOi+BgJQYiS4o+qdCEQQl93B+6vkatqv3Ovm4eV+13nYgwba9k1IURUlLNppO2SoGfWKHL3r6HX/2son9l2MJktkgX9cSacYG7/jxBX247koUf7wS5nJQlK5aicpVks6GfhesMUMGIYj8YURYWqYIyjKAvEWJwrEetSzzw114m9TezaGz2V5e1Fdm4ECbE/eUpvKL+eFF8bylhUkj+6qBK6JOpYl6oEGimKghgj+/uH3HzqGZbzFY0P7EXoukA8PSWoR1TAWIwYCmN45uo1VCMfe+UOsemwURk6R1U4nLEELNAQrQOUNqRDLfSOdvHi5Ho/CS8bsY5oX64PWEnZvfS/r4u991SKDz7QBcHnZ8/fS1xi7vxl4hN/EezBtqPJbIks6I8rcZXEPJxsO5JHgo1VqxHKEq7tWyYjx5076RiL7YUqquKssjOuKYoCFQMmHRqxNomkNSYdMenXuVIVWjB9sV0FIjGZ0CR5x6793jXl4lFjyuL7DDfoJj/fjJrHEECSNzoCRYx4HymrEftXbrCzd4/Ts2Mq67h2ZZeVbwks07CdCM5ZSivsDSt2xxNOz+Z03RRnlEFZMywt2BJcRWFneCM0Xce8DYCBaOj6p5w045ec8IR0wAW9WFpDtV+ZS5azYoXYG92oKk4cIUZOziOv3eu4spf/6vo9hOMk6jf+Iki57WgyWyB/VzyWhFRm717ediCPDNYKo4Gl65Rr+wXTaeTqfsmvfsTg+r3soIBECgs742GaYre2v2TW3zen9zY3KSMlSm8gkw6khHWGaiL099BVSf7vCDEENPa+sBJR059/k34yHYUYMLH3YL+vauBcQeEUi2Wye8C1J56ii4G2bdjd2eGgbVmGwGy1ImhAsFRFgWjgxrV9nlnMOZ5PMSij8YRRXeAGHaMQGdYFWMfxYoqenvVmMhb1fX8cxfS/N+0n6KFfW+9d5EKMSOyHB9cPOjGV7VWTUc7ZecvHX1rx3ucHb/H/AY8I7aeRe/8bevU/J68CPH5kQX8MkeNvR1Yf2XYYjxRrH3eAw72CV293GGNou74P3HuMG2BnMuFgfxe3sUdVYgw0bcCIwZiAiBAwWFciQrpOtvZkIYJJvuzS32s167OkMfYe7knkrHXJZIR0zAVI98j7aXERi0ZN19I0YBCCCkU14Kmn30ZRD5gvFlzpGka3X8PrR1ks58xWaRHN2TS8Vw0czz93kztnR5wdn3Bw5QpPXjtksVwk/3pVfIh8+vZrxKgYWcKyRSTSkMxiJD2Z9MNy68U1BV27xvVfLVX85sjLheVsCJHFKvKxTy5o213KMvfRfz9k8fNw8t3o/r+57VAybzFZ0B8z5PwHkemPbTuMRxIRqCvLjcOS2dxz7zQdRhNjU7lcU5l8VFeURUkXIqtlA2ooywgqWGuwRvohL0FYURZpwj2V0UkaJ+ltTW86E5F0ZS3GXhDpp9GTyYuqElln5bF/uDCoWIx1IEkQY1A6nx4ebFmze3CIGzbsqqeqSs5OjphNpxSuofEREwJ+tWIxPWO8M+HZGwfcIXJtb593Pf8Cp9MzWt8SfWA2m9L6Zb8Lf0LXeXxQfL+kH4mbqfa+xd73yNdHXNKK2nrgb11eWIt56Nfzmha6oOSi8mdGzr8PyqfR0VduO5TMW0gW9McIWf1a3jV/nTgnvO3mgNHA8uu/vaJ0wuIiEQdViqJk1XqOTqc4mVMWJUVZpmtmSn/YZO2eZqmKisqV/cBYpCjSPrp1rvc6N31/PvXN789gEdOvqCXBi5q2wa1IOvCCJUryjk+rYPQZvSAmrc31VjmUZcnh1UMWq4YrnWexaqFtGZYVftUhQ8/NwytMbMG1g12uXT1kd3+X+WLO7DyV4qeLKfs7Y5aNZ7Fc0fqGzsfeXz6Z40CflMe00gYXR19SJUHTsZgL+5lUxQge5wzjUf5r67NBjr4FLZ6E8m3bDiXzFpG/Mx4X2k8jd/8aedf89WGNcPNGTeEM04Xy7M0dFovkox7RlG2L5RMvvZr6wPHi1Kj6ZPhijeCMoSrScFxpS3bGO+xOJhS1YzioqcuSoihZH3Qx1iSjlr4P7/ub5jFC5z2q6dhK23XpYlnXpXUwEVZtt8nuowrOOcqqZjgcpzm73oxm2SwYjHZ49m0lg9EQZx3tagUhYAQGg4Inrhd0T3bs7kyoq4rReERdVTiS3/rp9JxhNeXKzpj5YsWyCay6kC6/0hvNrI+5mDTwd5GpszGaMf0++oUnzfr8qjKsDL/PsbfM70ZbzN2/Srzxl8DubDuazFtAFvTHgTjF3PnLEJfbjuRSUFeWuraMh5bDgyGDwYC2aYHU0142nldeu0vnPW3waY+884SuhRhRjZTOMrBCKZbKFeyOJly5ss/O7pjJeMzueMygHuAKR1VViLVoTEV1Yyw+hP52eMeq7VBVus7TNC2LxSydHdXIYrVkulzi4/qQClhnGVQ1k8mEqqqoXEFd1wRJZX1XlAzKioP9PXb39hDj6JqWrltSl4aubRgMakSUonBUWjEYDulCYDjeoapOqdyKytm02uY8rQ+bM+trAd8cc9ELdU62sOvsvL/xEnXjGmcM1JVQuNw//6zwR5h7f5147b8CsduOJvMmkwX9sqMt5s5fgXC87UguDVVp2J04ruwX7O0WjEYl0/N0jcyatHu97AJt49MqWIwslyt85/s1rIAToUSprWFQFCnDjx1tM2c2PWM2HDGZTNIN89GYsqqIqvgYCFEJMbJarVjM56m0vVrRec+ibTg6PeV8Nqf1ytlswaJp6QA1FgWMFWpXMCwdg6pgWJfsjCYUZUVZFFjnWE7nGDEcXn+KyWSCM0LXLIm+wXdtaguYtEJXWGE4HhBF2VvssHM8YDo9Jx19Uwpj+5J/78/e/7jeRRej6UFHADRNwStpep/klrdpPaBMRgbncor+WbP6TeTkO9GDP7vtSDJvMlnQLzly9v3QfGzbYVwqRKAuhWtXCp67WfIbv+W4fQusE3bHI3bHI2LwRN/igmKtUAyHhC4kFzQNaEgGLaY3U4kh4H1H23a0XUPXrPC+I/qOdtWk86kiYEj9c1WatuXs9IzFfM5ysWDZtMyWDSfTGfO243zVsoyRoIKPCmJwZQGd0prAagmVFQalYzabMyhLnHFYVzAcj9LnMQV7+3uMhzVPXD2kGu5C36d3RerxO1swrG2aExBhuVhwej5L/u/9CdY0yBfRaDZiLv12AICxBg2hv/We9vmtpqE/I0LhLCEEBmXkuafztbXPFZn+EFTP5SG5S04W9MtM83Hk7P/ddhSXEmMMzgpX9gvECNYIlXPsjkdUVmk7z6h0TAYVzlmscahXfPCE0BF8i/p0FMWJoTCCKy0qySVNe89z33kWcYl1HSAEiYQQiCHQdZ75dMpiNqdtW3xI19EKW2AkYp2jMsmSNYaIRsU6R+EchTNUJu3QF0YprEtGNSq9HzwsFnNu3XqN6fSc0aDGifLE9WuUZToHu7mc1u/TF84yHu1weHDI/t4dSuf66fuQzHGM7bPvB/vkwEbcDanPbu470ALr8ThhPBIO9x0XRrGZzxY5+la0eg7c9W2HknmTyIJ+WYkLzL2/QR6Ce3NwVhgOLPs7luGwYDCsKXzDuC4ZFI6BNdRVxXBQUxYFQjqQ0rUt3rd07YpVs0J9QKJiBArX30PvT6kiafgtxnRsRRGCJjEPPtA0Dc1iubnyZkQoCsNASnBCrRVdiP3qWhLUoqz6z2GoS4cVEI2pTx3T3nlRlLiiwFqLBo9vW5YaODo6Yjwasr+3g3OpHyty0csWFZx17E52uHpwwN7OhLp0mFWDkQsJ3pxLlQclef1z1fhAvze56aX3tw8MymU+J7TB3Psm4vVvTBd2MpeO/Kd6SZGjbwZ/d9thXFqMSb30dzxd8d53TphOA4ujUw4P9rl5eADRU9cVdVnhrEM0+aX7rqNZLZkvZszmwmqxRCKIKhIVDckxzvXZqfarZtGkvrn3HkX7DL0FwFqDoKhRXDq7hi0LEJPW5LC4usDVJcPhCGcLQKjK5ASHMaxWHV3TYZ3tL62lW+1VXVNVJbbvl4eQDGustRfDamsPegFnhLIo0mDfzoRBXWFni37M7b4DMlxMtt9fek+nVA1rR9h0Dz69jXPF/Tb2mc+H5mPI6d/LpjOXlCzolxCZ/iiy+IVth3HpsVa4cbXkxXeN+PSrcCfA3s4Oe7s7WCJVVaWjKUHxXYfxinMW7yzOpqtt1phkBIP062NdOq7iTO8qZxEVYj/73Ruipj68BoxRQkgZ7PpjgWLFoGJwxlIXJeWgphhUTCYThsMxhS2TV3tREAU6H/CtJ2h/CrZwiLPpjGtv8rIeaDNGkk+9pol9sP1ufRJba4RBXTGsK6qiSDvx8ECNPK3ymc2J1fUvb46iqiLIfffhLUVRMKgsVXaIe13I+fejwy+G6oVth5J5g8mCftnoXs7mMW8RAoxqw/PPVNw49MyOB9R1iSschaSscrVasVgsaVZNmnT3gbbp182WS7q2wUSlMI7CCBIjsevwzhCDh6Loz6OSMmZn8b5NAh4cPkTEpMEzE8GqEKPQEcEptigoBjXG2b6PXTCsRlSDQTJ7iQFRpSoso6rEh4CPiliLKdxmj37tcNe2DV23tpU1F9asyGbfvigcdVlTlSVGuK9cblANadL+vsz7QtCThdx6dU3obWwVKlNSOEdVGYo84f460VR6f/K/B6m2HUzmDSQL+iXDHP0t0HbbYTw2iIHrVxzvebtwdKvi6aefQHykWS05Pznh9r07TBdLmoWna9Lg2qxZMW06aHxfsoaBsxyMBkzqgkqhiJYudFRSUQ1qqsGIohwgRvCho12tmE1nnJ2eplvtUfE+9dd9DChpqnwVl7Sd70+WWuaryPm8pXAOJCAkcS6M68vlFYPRCOcsRgQ7cNj+1wprKawh+K43vClJPvX0Ri/J1tWVjqoaMChrCmf7YbuIUcVi6F3aN71wA5tMXeTixGpyjUvOeq5wHFw94KkbI2xep379+NvIyXegB//utiPJvIFkQb9EyPRHofnotsN4rLBGuLLneOLQcf1wn6tXrnB0+4j5YsVLr7zMa3fusOyUdhUZDUeURcm8mXP7+JwQQhJaVSpgtVzx5N4O5XhAjB4Rpa4rDq9dY2f3AONqxFqielbzOSf37qE+plK99yCBTqFLJ8YJQVktlzTdtLdYNfi7Z0hRYqzFSkQ0ps9TWIZFwc5oxP7+Hru7e9SjEcPJgHpUpNJ9VVPVqY2wdrADwVq5WEvTgBGbsvS14511CF0qx/eX1WLo1bxP8R/YS08pP2qSmYxzhiduHPDC24cc7qUHjZyjv35k+mMw+FJ08OK2Q8m8QWRBvyyEE+Tku7YdxWOHCFSlMBlVPHHtkKoo6dqW2fk5Z6enLOYrlp2COvZ399nb3yWI4d7ZlCYEYow4kggv25bpfM7OoGRsS6q6ZLKzw/7BIXtXrmHLEYih8y3z4gzferpVQwiezne03qe1MBGaLjBfLlm0HoxjVJcUZcXR+ZR7947BGApjsYCzMKlrhpVjtmxYLFdMpzN2d3c41EMKYzB13d+DT9P3GiNYvW8yvT8Yo7Lxiu+/QukfI8kUDsUgiDWEEO+bcLtwh7t/M0OsYJzj3W8f8PwzlievldlU5g1Ejv539Kn/CSTv9l8GsqBfEuToW0FX2w7jseXK/oi3P/0ETizLxYzFbMZkOOJg/wqYkhCFYVlRVY7r+xMWi0NmyyX0w3C+aaiNEtQTjbKzM2FnZ4eDgytcuXqN3YPrmHKEOMdqMUcAv1oSuzYdZ4mRoAq2hbbh9GzGfDYHWzCejLh65YDJ/j7drdd47eyEVeNx4iiMxRmDkCxdV7Mpi/MzZmcDVrNdRDtCu2L/4JCyLFGGGJMOwrhSMNYQoxL7YzMaZSPS1qRBNuccxlqCT2djTX+mPfb329e33tfb5lGT2Y5IcrU7OBjzFS+Oee/zA56+UeFsFvQ3jHCCnPzf2UXukpAF/RIgs59Elr+87TAea3Z3Kq7sj1mcdIzqiievX2Pnhec4PDhAMcyXDYvplOViSu0ik7og+ABI6qufT/Fdg5XAtcMDrl+/weHVq6ncvrdHPZ5gyyG2rEAU3w7pJiO61ZzVakSQCFZou4bZfM75+Rn7kzGD4YjJzj77Vw4Y7kxQCz60HJ2e0zRNf5kt7c6b2BG6lrPllLCao11DYZXgG6y1THZ3klhL6m1Lqrinkbd+rzxEQATrLIVzDOuash/Iu98MRhCspPOzvZvO5hdNb65j+935p28Mef+7R7zvhSFlkSfc32hk+sPo8Mugfve2Q8m8TrKgP+qEE+TkO7cdxWONKoQ4xBUVw0Hk+bc9g5hk2mJEULUMqyWnGqhMpJDkKrdaLWmWDdFaxgd7OCNMRkOuHOxxsLfD3sEBo/EOZVljrcWUBbYocc7gCoNzhqIq2NnbQa1gXEHbNriiwrl0LbwoSwaDEaOdfarBkMP9A971zLOcL2acnJ0RUQb1iMI4Qrfk5Og2L3/iEyxnM6bTc+oCrFHq4ZBr/onN0FrhCugH71LZvc/KrSFEiy0cRVn0w3cm+b4b2Qy+waYYT+wfClBNmXnv2S5icM7x9I2KG1cKCieYrOdvAhFz9C3EJ/+HbDjziJP/9B5x5OQ7IM62HcZjTYjCsh2COMqioN6v8K3n/OyE+XRG1wbOpzNmsxmha1k1DefzBW3bgMJotMPe/j4Hu3scHuwxqmuKShjv7DEcTXB1jZQlxhaE4AnebxzmBlXFoK6px2MWy7RStrOYM5vOWCwWNMsl3aplHk+Jbct4PGZnOODKeMDbn7iOLQuGgxGj4QAkspjPmZ6dMZ1OmU9nNIspOMPu/gFVVVMPagbDEUXp7uufp4to6ca7QcRsPNmVdCpWNNXZ155v9Na2YtY3zwGJRI2IOlDFmZpBNWQ8HDAZO2wutb95+FvI2T9A9/70tiPJvA6yoD/CyOojyPxnth3GY08Ijq6rERWsTUYq6gTrClarJfdu32E+W2LF4oqS0AZshIPRHvt7B+zsH7C7t8v+3oTxaADRo9EzGA6oR2NsOcSVA6wr6NqGEJQYgACFGIxzVPWYnZ00nLZsPcdnZ5yenHB+dIfz4yPmp1Omx4GzekBVVZRVST2sqOuKph7QjEcMRjWjyYQnn3kPo/EeYPFdy7JZElWp6orReEw9qHsTm/WQuiAGog9EjUBEgBCVqGAN2P+fvXfpsSy9zvSe9V327ZwTESciMrNuZJEUSUltodGWYDRaE1/agwYMG/DEIw8Mj/0j/E9seOQ2DAtQw5AAWy20LICy1JIlkU1aFClWkXXLyszIuJzL3vu7LA++HVGUIFmiRMaJrNwPmCSqmJW5MqOq1lnfetf7lkv18k4vYHNGTfn/J00+09E7OWSscaAZV3lO1/Pe/D6Q618vhjPVlw5dyszfk7mhv6poQC7+h0NXMQPE5ElpgRNHZQxiLN4ZvKtxpsLblv2+p64avPPs+h05Z5Ztx/LomG7RUVcV3luMlIaWxFM1S3y9wFYNVd1irQOUplsQ9zvUTKlkCJVz5RzNOVbiWB6vWZ+ecXlyzNXxCZvrS66vrthc37DfDyVMpnZUtcc3NcfrE9a6plq0GGtLTnq7oK49WYuXfM65TOCmWLTq5OZ2F2sOJWUulYaut+do1mDM7W5csSjGClENcSwiOckRQ8IYwTjB1R5XOZq24tFZNU/n94FGzMX/SH7jvz90JTN/T+aG/ooiV/8KwseHLmMGiLFCtKNyFbURRDyqQlV3tO0Rp2dvkmNCMOSciGkk54R3DussVsrOWFMix0DGUDcd7eIYV7X4uqOuGxSojFBVHifCsL3hqt8TY6LWTGUN4mps3dCsjjg6PePRkyeEfke/3XJzfc2LZ8/ptztSHNAUMBZcU/H4jSccn55wtD6m6xYYW3b0t/fmxpbltcJ0nhaAPP1xJqUIOWNEkWlCt2Kw3mGMLT/erfe7ZkQsIg5LpiKx7hq+/OScNx89YrE+Ruqay/1IlIGvvFHjZzOZ+2H4HrL9Brr4Z4euZObvwdzQX0XiC+T6Xx26ipmJnByiDm8dzlgET1YpIi+rtG2FMZacMzkG0FRG2smTPacMqbi7leATR9UsEVdjrMe6arJZTSUpzVcsT9bE4R3Gfc+wKSY1MSacKx7pYiu89yyWy2K3qplxGHin74n9SA4BNGANmMqxPFpRt3UJZ7EGYz1iXBGolV8KULzc8xQYwxTMUpq0gmiZ1HMqKXEpltMzKSdsVjLJCFkFI7ZY3hI56yy//NUv8Ctf+3nefvwGi5MVqa74+HrD5e4jfu7tNE/o94hc/ku0/Sdg2kOXMvMTMjf0VxB5+T+BhkOXMTOh6hDKJOrEkbNFMkBCVcgwKbcBayFT0tFQNBaXt89EYwZXNbi6QTPIFFeiueSgl1AXS90uODl/wtiP3Lx8Tg49ISWMllM4ayxiXHnCNh6x4JqG7ugEdxd4YrCmCNXquqJ8BsmolN225jzN2iCSJ+1anj4gFANXub1bu1W65UwKkdD3xBim9LSyOrdOMOLIAh7Iw4AzI1974y1+4Z3HnC4bJI/cXHxCtz7mF7/6JW5Gw3LxYfn5Z+6H+LwI5OZEtleOuaG/YsjuD5HdHx66jJmJ0rBbrG+mZi6kyZfcqJYnaGMmQdiULJYzaEYFchZEBSMC1hYf9K5DBEIK+DRN8MRp4jcYsagYbNVyfP6E1dERm6sLttvrO9W4cw7nK2zlyoTsKHGqYrDOI2IwVjDTHr48qReVm6KkHAm3OetGyfl24pY733YxQk75LnVNcyKEwDAM9P1ACAlRiDlNtq8l4KXzjmVliDZSdwu+9MYjOldx+eI5z/oejT3dsiPFwBf/UcOiNRTh3Mx9ITe/ia7+ObjzQ5cy8xMwN/RXDLn8Xw9dwsyPoRiUBmdrRE0Ri+Vc9uJSmqUYBc3knChNM5Nz2TurapmmpdxdV02LiC333dOUTC4WqdZYEEi5pKullDDW4rvF1Fgh54j1Fb4pt+hiBGfAWFOe641HjAUjxZPdlCmdu+uxMm5bTVgXIStKJiWDUD6s3O7VNetdCIze/ppiIqVI1kxOt+Ez03kbQmUs68bz9tkxw7XFZVj5mtiPxGFAQ8BqZBxe8sl3/oz12Zfgq/Px+b2jAbn8n9Hz/+7Qlcz8BMz/pLxCyPYbEH506DJmfgzNlpxbBANqMGrKP1QKKQmqchdBeqsoy1r20JpSOVFDCSmBmfLPpxxw5xzGubK/VkiaCDmiU/Z4DuOkKi9P+9Z4nK2wdmraVlDRKdp0Up2bW0l6eVq/DSovavUf/2ax1mKtK/tuU1YK1pQn/9ulwa0WoDT16Rad27AWJac0fV9BxFH5ipPliicna9599IR10xJ3W4bNBm8NVduirsIZgxt6Ns97+t3tDn/mPpHt7yH7bx66jJmfgHlCf2XIyOX/cugiZv4KKXtCXADmTvGd8zS13qV6l1vtnCeFOEqKkdQPjKFHAVfXNM0CMaZ4mVPuy6u2QawnhkiKCSNQNy2YkXR5SQoBMZDiwLDfIZqpjUVjIANqhJJeKpAgiS21CJicMVI+PHzWMPWzbyp3TnDGmHL7Xn41fykdDZGyb8/5x07cyl15ygkjt+YywqJpeHJ6zunqiKrpeLobCNs91dkJR+s1KcPN5SUmZIiR/VXPsOu4U+bN2rj75frXof0l5t/4V4O5ob8iyOZ3IT47dBkzf4WkNWPsysSbIcaIRsUYN+2zAUqyWIgRSYkcI/1uw7jZMIYRW1W0iwXeuzK9p4yZks2MNdjKsd9uyDFiRGGyUDUi2Cm+1HlDv98SdnsWMRbFuauw3mPqpkzruTRF6zw6hYqLTK8HwK1jm8rtjXn5gIKUTHKYVgjT60EIevdCkHIqE3nOxfgmFxGdEcF7R2UtSZX1asH52RmL2pFixBpDvVxycnbGW198lyFlrm6uIZVaNSbM7UPi3FPuHem/A7s/QrtfOXQpM38H5ob+SpCRq187dBEzf4nyjB1CR0o1xAhZyhPzNNnempQrZd+dxpE49MRhz/7miv1mQ7foODs9w9UNYQwoEckKtiL2PfurS1SF0PfTVKzk7Q02Q11VWCnP3lVO1HXNxdOn7Ic965yo6hrbtKAZ731JRmNydqMI7ETLXj6nIlxTFMxnmeQiQprOz8oJWtm/Fz2ATLN8cYdLKd/lnBspO3vnHLXzeGvoKsuj0xOWixqriaiZ1XrFyfExx2drzt94wuJozfNPP+H6h+9hrSGOSk6Wv5TsMnOvyNWvFQe5+Qvw4Jkb+iuA3Pz2PJ0/NFQBwzg05FHJ40gcM5IUyQaMopSmZxRSSoS+Z9xt2N28pN9tcb7i0Rtv0K1W7IeRcb9FQ0JjBOvYXL8swS8h0bYt9WKBG1quEbq6w9c19WoJk0r9+PSUq4sLnj97hqbMYrmgXS6RHMm+xlYe2m5S3UOO8S+dm2FNCT5jMpIRLUr8ScFOzuXpfbpJN2KxJhGlNPYQQ1HiA4hijNy523lnWNYN5ydLKhPZX75kuLnm+HjNou1IKbPvex69teCLX/4yf/zD98pawHpSLusMmZv6YRjfQ+Yp/ZVgbugPHQ3I1f926Cpm/gpFaCbEaIghQYjkMUJUpFylFZV7Lg0uxMD++ppxf8N+e0UMgbPHT1gcHTGMgZubGzaXLyEENEZUbMk43w/kIdJ0Ld3pCd16zWrbE1crmpM1zckxrq5xWamaBcfrUy6ev+Dq4gV56MnjgMZIqBt81RRRXlbEWeIYpqf08uzuvMdMxjI5JcSWE7Xiy54nxf1nCWtigFQ82nO+3ZuXv+B2p25FaCqPRVmvlrzz5BzdXvLi+VOuPn5O2o+EXU/VVlRtw/rxY9754hf47mKBQzk5P6VuzK12b+ZAzFP6q8Hc0B84svkdSFeHLmPmbyBFyCFBCKQQYExoKntkkHJaJsLQ79ltrgnDnjAGfFVRLzq22x27zQ1XL1/y8uICyQkrBkXY73aE3R6NCecs9eVzjs/OiE/2pOEUzQG03HJDUZ67qsJay2a7w+RESkU01+rt+ZviYsLVFcnayXjGklWJIWCcxU7qejGCcwZNeXKIK80cJpV+TpPSvdjBiRFSTKWZK8QciTnQtjWL1vPo7Ih3v/A2H//5ltSPmBTYXV5ishKHms3yBTeXlzx+6y2W6zU59KyerKnaaz7r6LPc/SDMU/orwdzQHzQJuf6NQxcx89cx9ZasSoqloYdhIO9HNCtjCHfP5SKZfr9j2O8mkZnB+prtds/lxSXXL15weXXJ9fYGay3eVuQcubm6pt9uIZebbmMdZ1fn3OxuOD09Y70552h7SbM4wrfLUkdKpBDYbrc4K4hR+m2FsYaYAmPoqRdLqtiAlGAVV9UgQiIj1uC8x1cVYi0hwK2pi1LiTZVcTuXSbfMuQjljDCEHYkykDFkMSRNN7Thfr3n77Tf4whe+wOUHHzCOI03lMRpJY89IZHd5yX63RRWOT05JeaQ77XDVy2lbP3NI5in94TM39AeMbH8f4ieHLmPmr2PaPWdNhBjQEAnjSBh6ckiMMRDGQE5FCR7DMO2gpYjVfMXLFxdcvnjB86ef8OLygt3QU9cNR4sV5MR2u2XY7yezloQa5brf8nJzNcWtnnCyPmV5dMzx+gzvG/p94Prqiv2+Z9E1mGTZ7ndkW87dfFWjAsOuJ+VYXORsVYxmnKVqPLGqiKHCWAemqOjFAKKkXARwxbdd7xTyRswUPqOEGBhDJIRyH19VFUePl/zcl7/CcrWiWy3QlGich6SQAikmhmFHiiMaI+uTU6R2tAtw9Tj3kIfAPKU/eOaG/mBR5Pp/P3QRM38LRkaGMBD3e1I/kMZAjpFxGOnHgRQTOUXSOGKtpWlb2m5Bs1gRbi65uLjg2afPePriU272O+q65vH5IxZ1Q0oJsSXUZYyJoR+52m55dvmSVddytl5zfnZK2yw4Wa9ZHa/ph8zFxXPaRQvOE3NmP/awL85wiYyNgZTy5B+vaC455U3XEocKnMFWJdzFViWwxdgpZWVSwKum6a9N6PTMXl4sSq37/cB215OTYlR49+13eOP8CeMwFPW7dUiMCFL83lURU675Y+iJKXN8tGJxdIX3w6xyfyCUzPS5oT9U5ob+QJH9N2F879BlzPxNSBG7eT8Q88gwjoz9njSM2Jzphz1DGEghEcYBTQlrHb6p8W1Lu+iIaWQcBq5vbuj3ezRnwjhyeXlJXizxzpVzt5To+54+BMYQiClxfXnN1ctrtlcbVsslL549p+tWbPsBXzX8/C/8AmKFq5tLQhgwY4/ZG+xoywP6JNbTlEghggj7naNqihre1zVV01J1LWIFMRbrLWKkTO4y7dOn0JgYI+M4MoZAiIl+GBiGAQHapuHtN95g1bbsr67ZX19TeYfREsB6a8HTNC1N23Kz3ZCbhmZtWBxdYdzs4/5gGL4Pw/eg/uqhK5n5a5gb+gNljkd92AigolS+J8UdQxhJKRJDzzAGhmHPGEZiCIz7npwzddNinEGckKVMxb6uaNqWI47BFvMWiyHEyDD0GLGknMhJERW8q/Be0OkV4Pnz52xvNlRVTdsuyALvfuXnOD0/I4tBreH5s0/Y73tyytRNQ8y53LynRNYEKRJDBMn4psJXdXlJWCxow3ER2jmLrVxp7M7hvCNqhDQ5xOVMSIl937PZ7cozf05Uled0fcz56Rqjmevnz7n69Fk5m7OWLIJxhsWi5ezsCarw4vqS7uSY1fmGZrGZB/MHhtz8JlrPHu8PkbmhP0Ck/w703zl0GTN/GwrejTizJSZBycSciKEnxZFx2DMMA3EoQrluuaJuixhtGEdiTriq4mR9TNvVJM0lZCUpURP9LqMoRgx1VeEpfuxo2csbzQhKyIm2rjg6OcI5x3K5LJar3uIqjwL7/Z6h76nHAEYIMRb1ukY0Bcah7NRd7/C+otrWdP2epIqvK1xV0+QWcZaUSshMoij6UUih/Bh9P7LZbNn3PdYZlqsFj8/PWHYd+92Wpx98wP7qiuVyRUwZxbI+OWa9Pubo+JjddkdetLQnwtHpM5xLf8sXYea+ke0foOsLsKeHLmXmrzA39IfI5rcOXcHM3wERqKrEctnz6Uf+7g47K8SYGadn6KEfqNuObnVEVTeolKAVzRnvi+1r09TlFEyFGCNDGsuTeywNzUjZNYNMk/+INVDVDd3yiNPzxxytjkgxUNUt2+0O48fSqDXRjyOhH3DbLW3bwJSWljWTw0gIJSEtppEhBMzYsws9STJVXVO3LXCMq2pcVTHKFO6SBZEihhvCyL4f2e0HxqGncobz8zPeffdt6rri+Q8/4MP3f8TJ+px3v/p1VDMvPv4YK+Abxz6NVLmhXZ1xev6Ubrk56Nd35m8iIdf/x5yX/gCZG/pDI2+Q7R8cuoqZvyPeJ5bLEesq4qAoYI0jZy1WqApiLcvjNcfrM7COGDPWgnGW1ckxxoJ3jrZpS/CKwPXlJU8//oR+snxt6hpfVThr2e/39H150m6XC9an5yyWJ2AcOQbqbsmuH2DsiTEgYsAI276HnMg54r0n55L8JnnaoxtDIqK5XLWr9lxevmSxWJByxnpPOwWyGGsQW+JU87TXF2AcB2KIWOdYdjXvvvMOZ6dnxZAmZXxd8eaXv8TP//I/QaLy74aBD9/7C3QrLE5PWR2vWa93vPnWJxgz784fKrL5bfTkvwSpDl3KzI8xN/QHhtz8NjA/M74qiChVrdRNhURD1MwYRowzWGMw1uGtZ3V8jKsrYlZSiFi1OGc5OT9h/WhN5Su6pqOqO5xz9Jsdi+UJLy8vUVWOT044OTnBOcdu2DP2e8JYktrEWnzV4au6eK/HVJo3CpIRY3FVgzjH5nqLiNI1TclDVyHniAIxBjCKtbbsxqE0/ax3e3LgzkymvEiUDPhxHBnHkRACUSNVVXNyfMpqdQRZCTGyOFrylV/4OkePTtkMOy4/veDZ1UvUWZbHxxy/8TbdKXzhS+9T1eGAX9WZv5W8QW7+NXr0Lw5dycyPMTf0B4Uim//z0EXM/ASIQFUnfGPRYNBxKO6n1uGrGozD+hpX+TKZO481BmcM1jnqdkXta7yvcMaXTHXjWR7V/NzXF/TjgAJt29J1HdZXDDGgORHjyDD2hJAQ6zDWEoaBq5cv2W9uSDGScwSUum05Xp+w2VxxeXWJ5iOOliuMQDJSvGpFP/NinyxibxXsedqV55RIzqIpghhSnF4ici6rgrEvWe6Vo+s6urbFWkuMkbrtWByfELOy2WxJZM7eeRsjb1F1C5ZnkS9+6UOO19vDflFn/k7I9nfmhv7AmBv6A0L234T44tBlzPyELLpE1WXCzpXYUWdplh2+8gxDwNc1Ygz9MNCZ4pXurMGK4K3HiLDfbtnd7Egh412NbzxVVdE0LWIMkNntNljnqZolddeBgXgbXWoM4ziyA8QImorYLU++69a7O+X6s+srZHPDcrHA+QpQ1Cg2lcz1lDPWuGIUk1KxfKX4vccYUYHoHMb6yRI2TVnoCbGGuq3p2oZF1+KsQxVs1UBn6bKScsBZT3PasX7jMX3OIJe8/cb3OTmd9+avDOMP5xO2B8bc0B8SN7956Apm/h60bWC5GNleVLi6oq4EawQNGbvZoVkZxrFM0iiaK7wBbyzDds/zm2uuL16yubwmD6mo57uKum1p6oacMjGOpFzcVdrVEUfHx6yOjmmXS1xdYeuKHCMpBFIYyTFMXu9KFkPfJ8IwUPkKX1Xs+z0q4BsPWGx2xFim8ZQSimCMAQxTRmrJO1eFPH2IoLjDGTEYkWIZ6z1ioatruroqYj4E72uMVPi6xLk667HeMlhF4wuenHzAyfoKY2aL11cJ2fwWOjf0B8Pc0B8K8UWZ0GdeOSqfOFvvefF0AbXDGIsxBhkzzli2ux3b6w0hBq4uX1I7z7JtqauGq6trnj97yrjrcaqYoOQYUW/LjjtnxqEY0JRJ2oAFcZ6m7Tg6WdMeHdEdrWgWCzQpN1cvubm5Ks/jJHAWY9yd9/pyuWSHUjUVTdeSNFGZsi8fhoGxH1EEZ23ZKVAMYBDBmOL/LqXDk7VM70nL87zmROVqFl1DXdc4W34/rPVY77GuvGLEEAhkkA1vnX2X05NPsWbWjrxqyPb30dP/BqQ+dCkzzA39wSCbf8OcJPWKIsJq1WOrSB4FybZMrj6DAS+ZeHXFbrMhjoHd5gaNEW88OWbG/R5iwhmBlKa/CxwxZYZhT46p7N1lSkWzmZATYypnbGoE11R07RJnPVlhO/bl1pzAYtVxvDoqO+26YVkvWC+POD19jKur8v00Y70BuytiuJSwxqEJrHd470rGuyiCgQxZIlmFkLSc6Y0RJbNYVCxXR9imIYlATNhK8E2Fc54UIrtxIDDw9um3WB99dNAv38w/AB2Qze+iq39+6EpmmBv6A0GR7f916CJm/p4IStcOdG3gauuxVjBiMVJc1cQ6uvaGOARWyxVt0/Dy4oLNzY6jpqM9PiENI2E/sI+Bfr9n149lN50SVoTKV1gpEalqy8TdGAPWgDGEIXJ5c0EfR0LODCGSJeMrS1Xbu6Q0KIEqq6M1p6enjDGAlNt3MQbjLM47VASDIamCCjp5rocY8d5we1BWMmoUVRCxtE1H13R0bYN3ljwOXF9esW+vOHn0CN8uSBhstefx8bdYH71/sK/bzE8H2fzW3NAfCHNDfwgM34f47NBVzPwDaOrE+nTg8qJFNFNexk0RwLmK8/NHeFdRVZ7Ke94ZRq4uLtGQWDYthEToR4b9wH7fc3F1yTD0jEOPAItuQdt0VHXL6tEjjk/WgCIW1qen7Pod3/3ud/no4w8YQsA6T9PV1I1nseyw3mGNwRpL7SvWj87xTU3YlwQ4VSXFCArGWHAGsuCMlDM21btdOiro7bfb3wChfOiwFu/rksKWE2EcefHpU4Zh5OjlC7rTM07OW9589H1OVnMz/1wwi+MeDHNDfwDI9huHLmHmH4KCMcr52Zb33z+FUSErmYwRg7WW1eqIum4RMXhXduyPH7/JxdNPyWOkWXgaV1O5Gu9rgihGhKvLS7bbDavlivOzR1Rtx+k773B0fMSnTz/k6vqS1fERu/0O9ZbzN84wxrJYLnHegyR2w55hHMkpYUQ4Pz3j/NGj4hGvtyr1eNesBYsYBQFni2+7s+7u1UHEkjJTtnuZ3FOMVN5jbPk1qjiyWIYQ8U3DDz78mG+99z6LszW/+s9avv7uBmQ2jvm8ILs/nMVxD4C5oR8aTchubuivNFN6yPp4x3I5sL2oMDmiYkEzOSeMFRaLBUBJUIsRA1hnGXY7iBHJxUrVGIdvWtquu7OGrXxN1bZkVV5+8gnPP/oRTz/5gM32hiyKq1tsZTk5XZfYU2tQhJQNNaDTCVrTNByv1zjvGHclPCalhBGdVOtShHBKmdyliN1u79Nl+u88Dey3aWuqijFl/eCdx7qKDIxJqVdHXI+Jb7/3IU/ilv+4OsE5P4eufI6Q3R+g6/+KOeP2sMwN/cDI/o8hXR+6jJl/IAo4l3n86Ia/eHleMsMp6nCLYmw57SqCsmLGMkxitJwD+yGwv7nBZIs1FVVV4bwrkaVAL8LFpx8zDCM32w39fkPf3yBW8G3H2ePHLKoTEkoOIyaVppxQYioe897VrJYrqqomhDidqEVyHIsxDKmcxmm5ZS9na+VcDZFSd4yIrTBS/tWdtdyfO2/wziFYKm/xVkk5AZmE4bof2OPojhynJzL/a//zRvykrA7nKf2gzA390Gx/59AVzPwUuG1Qbz654f3vrSn6M53sUhXvK8gZEbBGsMYwpFSMX4yQNbK5uaHfDmgEhyJyeypmUZRxHNkOPbs44pyhri3taoFzic24YbjKxFx84Zt6soFVJU2Wrd7XdF2HaLmL7/d7wjgUa1cmxzcEM52nIWCsxVkH6JTQpohL2JRBMjklVHMxyrEGYxzOW5xJhDCgGrna7Pnk+QuevHnEf/KrR7z5yN5ew818jpDtN+Zn9wMzN/RDkvfI/k8OXcXMT5HFYmB9mri5cBATmkvQqOaIs36KQy0Z4N4a9pT776hKEhhTIIwRwjjFlApK2XOLM6hmKutwzmHEoDET9gOKJSVwrsLXDd57VMGQcbkEqbSLCmOmG/CxZ99v2A9bRCyIQxCsCAaZhG9afGU0k6YQFxUlxYHsDSmX1YGIYF0FGMRaMIaIlmnfeS63F1zve7727oJf/IrQNgf+Is38TJDd76Gn/zXzs/vhmBv6AZH+26Dx0GXM/BQxRnn85JKrq8eYBJZivapZwQpWDEx75uTKfTlQLFdjBM2oJkaNxJyLO1vOqGa8cUVFbg2Gkok+DBAyVNZRt0vquqFpG+qmxLTGWOxcm66m7bpyxx4Cu/2OfujLh4bJKMZag1DCV3ICmZT6Op26ZdXp5V0J41j+fFaMtYiYEqOaEsmWYBoVQazn4uoKV3menFd0czP//JKukP7/RZtfPHQlry1zQz8k/Tydfx45Pd/QfnjCkGok6aR0dxhjilIcQBPWeXzdUDctoR8xsikhKZrJZLKUhq5TaEpOGSuQo2KcRYxBFKyxrLoVp+tTFqsVdddSdyXzPE6CNuNMeYIPccot7xmGEdWISDGoSamcqJnJIa408VIDMSDGTC8DEFPETHv2smtXVPOdsE6MBeMQEcaUWa1a/r2vehbdPL19rtl9A+aGfjDmhn4wFNn90aGLmPkpowhNEzh/tOPDTQc5gxiMtVhbHOQAxAquFtpuVRTlGMIw0PcDxIiXIobLk8WqseW5nVSEa0Ysxgh11bA6OeX8/BFn54/ojkpDd02FltEbBcYwMg49YRyJYSTEcBeqArlkplPCXlzly95cyh+LQjYKppjYxJzwlQex0/N8JqdMyhlfVVjnQCy+aQljRK3j6GTBO28ITTU39M8zsv/T2e/ygMwN/VAM34d0eegqZn7KCIqz8OTxNRfPjtjdWIyfjFqsQXMxbmkqT9MJ3nt8VdM0CzCWbCzu5po8DsSUybHEljZ1QwgjMceShmYti9WSJ2+8ydnjxxydntEtV7imwjU1xtnyIUCEnFK5F4+BNEWcpjiAJkBLcup0d37rsw4UZT6GFDPqKKd4AYx1GFsm/mwMaCKrAOXnFFsm9LbpuNhfgIXHj1vaJs1iuM878TmEj8C/dehKXkvmhn4gZPeHhy5h5meEAl3Xc3J+zX44w1p/N91aZ3HO45zHiENsRVW3cLRmdXLKo7feIgwjmhI5gzGOtu2om5qkmb7fkVMoMaV1xeroCF/V+KbBWk9m2olbg/UetKjjzdSsU4qgASPlBE1zRoyZ4k9LU0cNMRcr2Lry5dk/pVK/gLd2CmkpG/ecFEOmauoSSoNgrMXXDS9eXpHyjn//Fyu6ZjzwV2bmPpD9n6JzQz8Ic0M/ELL/t4cuYeZnhKA4nzg9veHZiyNSanBTkxPnUFN21NZZvBiYVOWt97SLZXFZFUNVlybdNC2u8pN4OJE1kGLA2SJEK14vRbxWNHZS7sMnMZtI2XMXQVvGGEPW6U5ctZyiGVP29yLTDX1xuwsRUEpKGuVGPaUSsUpWMBbr/N2Ov/wGCNY6smZ2/Z7aR776juH0pOzaZz7n9H8KR//i0FW8lswN/RCEjyB8fOgqZn6GCHByvOf0bMPzp4s7pzWEkh0uJWvcGMV5S46ZpAbRsmcXZ2m6Bd5X+Moj1hTVuTUkjeSUcc5iph9PKUK124uhGAKkSNaS3pbzdDNuIKigYqdTt4SSsZRmL4Cd7s9VlDiGab8uxDFhjUUNxDgi4jEWmMJixAhyKwB0MMaREEbefGR5dJppqrmZvw5I/x1UA4g/dCmvHXNDPwAyfO/QJczcA5VPfPGtC3abI4aNo9aEU/PZKZuWadg7T9BYJvNc7sDFFDe1nDPjGDDO4ms3TdAOoTyVO+8wIqSccKYI52492zMZTSNh3NHvt4zTbXuMEUWxzpJTRlWKqUwuZjYKSFZUQLPinEWSIcVAjEVZj2ZcbYEy+dvJn16QuxO2cYyEMHByJnRTXLYyXyl/7tFQmnr7jw9dyWvH3NAPwfCdQ1cwc08sFz1f/uJHfOs7XyZEQ2UNiCWLYly5+Q4hEUIqzTWVvHGrnn3elWNwI1RNhZiuiMqsFMGaMSX6NKVyv56LDWuMgTDsiWFg7Lf0uw1Dv2OzuSEMPSkGwuThPh2eo9PwHGNGU8J5N52uJUwqE3uKgbHX8mGjygTjEQGHpyjlFWsMprjbErOyXFQ8OTfUdQLmZv7asP8TmBv6vTM39AMg/dzQXxsEzs6u+dpX3ucH730FlyyORJaITUIYI2GM9P1ACAEUnFisdcV9zRiMcxirjHtFtMbW00lZhDgqIYRiXIOCZGIYGfueYdjS91v22w3b3Y6bm0vi2AMlMCamYjqTYzlfizkXsxiBEAPWGpwR8q1SXim38NaAL8/15Sk/c2v3LlbKPl+EmBNf/oLnK++As3Oy2uuE9PP52iGYG/p9E5+V046Z1wKhKMfffvslMX/CBx+8gxkyIiOaEzEkjFhSLE/hkqGPkZAUa8s9uK8rUhrxzlK3FcYWYVqMAbKW87FcXOfElJE7xsBme81mc0O/27LdbtnttoxjT4wBjZkYE/u+J4+luQOIE2KM5JypvKOpPSEEjBlo6oaqrhFTBHApRpKzQKnBGot1FjFF1Oetcn7ec3o0uyG+doRPIN+AWR26kteKuaHfM/N0/vry1htP2W2FH75/TIzgRam8J6kwDpEQRtDMMAwMIQMlGKX2Ff1+O+WoKyHsiCnSNA3eWoDJIIaiVgeGsWe73bDZ3dAPPWPfE0Iot+whlB17LtGo47hHU0YFcpwmbRFiCPSa8K7COmUMI4ii6nDeY1x5RjfGYGw5ybNiESl79JOjxPmyx5p5On/9UKT/Ltr9yqELea2YG/p9M+/PX1ucj3zhnU+5vA68936F5Ezja0QsQz/cpZ9pzqQS0gaAleKNLlpc3bImRISj4xUiyjCMCLee7yVdbRzHIoLLkTBN8lmVYeyJKZFDKClr05N7TJFM+UmtNbjJn12zoJqJIRelvhSlfc5F2Getw4rFGYsxFrFl5580U9sdi2Y3m8m8rvTfhrmh3ytzQ79n5gn99UWAxWLk6197ydV2yQ/+IkK6BjGEYWTc7RiHsZyVC8SY0JSIYSSNAQO0TYNrakQMLy5fMoaBEEY0xSmXrfxMORY/eEERo1jjUIRhGAg5kmMkp4RkxajcfV9jQVQhS1G5ixDGcVLlF2U81JRn9nIyZ43FWU9VNUU8d+s/z4iR+bn9dUXG78179Htmbuj3ybw/f+0RgfXJyK/84xteXlR8+HEiDAPDbsf25oZxv6eswaUI0IwhjgNhGDDG4K3DNzViDTFFYkqkMBLHEWsN1rkp9azkrBch/G3zNSgwDAHVXFzlc8lnN4YpPQ0y5a+BjKby/G6MwU5GNaqKta5koBvBOYd1HmMdikHVkBWEgDA/t7+2jD8CHUGqQ1fy2jA39Htkvj+fgdLUz88C/+l/pPzLX7dcXPYMuy2bmyv63RZNGUO56y5ObsWi1RrLPvfk7RYll725KkzxqmLK/bdMs7qI4LzBu/Jcb6U8hY8h46wni2DUYLWYxBlb7s5VhBjLftzeJqwZU57U5fZ23uGcxVceX3mMNZMxTbk0NzljZZiS3GZeS3REhu/Pcar3yNzQ75Pxh4euYOYBIJQ+/Ogs8p/9c+XXfmPJpzGCXBFiYuh7SJBycW4r3wRjSrtMt5GoIjgpkaflhCxMu28BkclvvUzr5s6pTjDGlkjULGDK5G5M2bEXdPqPIaVUIlWNwXtP0zTUdY01Bu9rXFVO61RKstudnaxkvN0jUjzizbxHfz0ZvjfHqd4jc0O/T8L7h65g5oEw5Zrw7juJX/0PKr7x+2fkMDL0e8ZxZD8MxFDEb5rLXtvY26k9ld24QgKMpM9+TMvdvltuo01zvHNwI5cPB5jy/QTIqmjORcGeS5SquS3QFBV7Xdc0TX3X0Ou2oe0W+KoGa+7S1yRnMontOHJ103NzPfLkzHC0MrOpzOvIOL9K3idzQ79HZJwb+syPUYZa/tHXRi4vO9LwiBxDSU3TK2LaEUKEKUU9xYwYxZBwRqaGXTzYrbV45zAyTfMyPbxnLZO6GiRPE37OuLuwFiXENO3ac/lzqfwv03N7VVX4qiqNvC5NfbFYUTcd1le4KQNdyWjKRI1c3dzwr7/xQz5++hf8019+g//8P1zyxTftrHh/zZBhFsbdJ3NDvy/iM0hXh65i5oEhAstF4pd+fuDqZQv5Tbqmpq0bLi5e0u925JyKR3vW8jyeTZnYTXlWR4u63aBIMWAv03a63Y0bPruCU4xmyGmydhWylOQ1YTKnEQNW8JWjbVsWiwVt09B1C5q2K/fv3uMrR9XWOO/Kc71CiondbsflyxuefrrhW98fuRgyfUr8t/+FsD4qd/JzX39NSFeQd2C6Q1fyWjA39HtiFsTN/E0YgSePA1/6QsXN5QKrEUkgObHzhpTi5L2eISsainWrmRbTYqRYuEqZ2lWLDeytwcuYY1Gpm6JKN6LkHMmqCBasIWnGGzsp5QXnLU1Tc3R0xGKxoK5r2ralaVuqqqJpWuqmw3mPouQ4ghjiGHnx4pKnn14SI5ycnDGq50+/7/nRU1gfzc38tSN8BPVXD13Fa4E5dAGvDbMgbuZvQsA55fyR0i4dVeVpFzXdoqVuGpx1GDFYMcjtzbhAznpn0+q8A4rzG9yJ30vjTqkEt8Q0ebJPAjmFjBbbWBEqb3He4pyjrhsWywXL5ZKmbajrpsSiWkPTNLRth3F12c2rltcBI+zGkQ+fXfLvvv8eTy+uiWrJCkk9P/jIk/P8APu6Ma8a7495Qr8vZkHczP8fAqfrwMl6wbhfkFOg39WEYUBjRLOSJJGIKMVHXTXfPbnnmCYhG5MCHnRylLPGTs/zFiPlLO1WPe+sxVgp5jPWUnnLoutYLle0XUdVVWW6d5a6aWi7JU23ALHI9OEg5ciYhcv9yO//yZ/xB9/8Ds+utkTxqMtoP7AdIv/Pn3t++eeFL75xyN/omXtn/nffvTE39HtCwkeHLmHmASNA12bOTj3XF0LsHYuuRkODE2W/hWwNoyiaAs65O/92lMmWVe5c5lS1qNWNLXnmwnQ6JiAK08TvrSDO4Lyl9p6urVmtFtRNi/cV1lqauqaqypN727ZY51ERjEZihM2Y+ODihj/6zg/4xh//Gde7nqqpUesQY8gZdrsd733U8c3vKW8/EiYL+pnXABnfn4Vx98Tc0O+FDPHi0EXMPHC8T6xWGec8ta9YNDUSAo6MCYGRhFWLRgsYNCsxpWLlIkLOuajcp0HdGANIaebk6Q59cpNDJtMYg7GWqqpYNg1NU01GMoJ1lqZu6Nr2MyW7CjlDykpC2UX48w+f839/88/41p//iKtdxFY1CfPZDb2BEAI3u8x3f2T5p7+UOT+ZN+mvDeMHMBkOzfxsmRv6fRA+gdkCc+ZvwRilazNds0L3N4zekbxDmgqbO2JwhDHgrS8paSFiUwlEUVVyUozo3Tkct7Gq1mAwpdkbg3EeAbxzJcHNWera473DOYdzfhK9NdR1VWxdzfRz5ERWJcXE05stf/bDj/m33/4e3/vRU/ZjxjoPOZGy4m25mS8PCZ79GPjBR4lnLw1nx/MJ22uDDsXy2j06dCWfe+aGfg9I+PjQJcw8dKY3ybpWXGWw3uEqj6+qEm1aJ4yFqIkaRxjBGEhJUYSQEk4EZw2QyDmSUsK5kpymCFaKlavYaXfuypN45T2Vc/jK4ZuKumvxVYMxFSmV0zbVkvKWNBFD4NOLS/7Nt/+cb//F+3z6css+KIjgU8bZyWlOwSBYcXjjEBUuroVPXwpff7cocuem/nog8Tk6N/SfOXNDvw/is0NXMPPQmRqb9+WmXEVwvsJXgRwCKTkwQpWVnAcgFLc4Mqrl+by4w5XGao0BUbzzd97uxb7VlcAUKQEszhVDmqZpqSpP5T3udsEtkJ0hSYYEOmYGgYv9nt/43d/jj7/3I4YMKh7rKhRBDCCGqq7vLGPrqgKKOG8fHN/5IfzyLyiLdn6EfW2Iz4DZAvZnzf8HAAD//+y965Nk2VXl+dvnnHuvu0dGZlWWSi9AQoPUILUkRDMMoptu2mAas8bm1T02n6bn87Qx/wL/w3SbjTXz6mnoEWBIjYBBEnqChIQQVaBHSUhFPaR6V74z4+Hu93HO2fNhn3s9svRAgorIUuZdZlkZ4RHpft3DK9bZe6+91kzoZ4E4C+JmfHcIXmkWC4ZmOSWseW+rZETLKhdxeOdRss3JM2YGU9zhEEUVq4rLJNtPbXhwPhC8p16YF3twgcpXOOdBxToCYmY2uEjMSqbi8LDlicsv8sVvPMfjz18iSoULAVzAhdqiVEWpakt8897jfbDH964QfODJF4Srtwb2V7NU6p7BnDJ5JpgJ/Qwwt9xnfLfwfqCqnM2txeNEyk65Fo92s3o1enalyhZU3C4NXSBn4cQWmznJFcVcXTc0i6ZU6/ZNWZVQPlaFlDKpbRESuV5wFOGvnrrEFx9/lksHLRr28LX1CJwPiPOIKpUXvAsWEIMdPszoRshZUc1cvdXw6NOJH35tQmRuu98TSHOX8iwwG8ucBeaW+4zvFmpVtisxpeI8IGg2c1cnDrSkqQVfYk0tHGVyi0FvI0nnrEIOdTCFu/c24y6xq6A4L6iYz3tMmaRqueYpcLBRHn3hOl965hJX24QLK0I2pT1i12dpcA5Vj2q5Rpsd4EqeuoxWs+p58oUF3TCT+b0CmSv0M8FcoZ8FZg/3Gd8BamNvXrjU8dAXDljVPc6JVckplXm3WcBapGoxi0GIZf885giq+BKHypiklkHE4wN45wlVTQiVcW0GcUbeCaXEr5MKEeM8Lx4nHnvxRR67fIOrm8ggASdKECbfeMEeM0gonYKxThj34AO+ZKnnrAx95GtPBb7xgvC2N+n0/GfcxZiLmjPBTOinjbwBHe70Vcx4hSKXNLQr1wb+/Xuf44knhf/uF97IomSW52yJaTln+mGg73pSzmhKWGXtEISA4J0goiVv3Sp1h0Ocx3vwVaCqKpujS0lkUy2q9ETOFeKMdElw1Pb85XNXefLFq2wGIbuGlDJZMuoVwaxoHcWtbjwUFGMbLdayKWeyZlzxmU85s+0dD3+t4m1v6mcyvxcQb2Jhv7Oj0GliJvTTRpoNZWZ8a+RsO+PPvtjxq7/5HB/94xd502sfZNP2SOVx3lNVnsEX9bhxtBH2aOVa1O1exGbrpdzVnCDlYvmKCdScB0rm+Wg6o1BJJuVMG008F3xi03U8efWYv37+Bp1WZBE0C65U31oc55z3ZMxrPmkmxURdVbhQkQVizmSB3MNChBAcSaGLkUdfCKzbnr3FnfsZzDgrJOtU+ot3+kLuasyEfsqQdHSnL2HGKxCq0A/wxa8d8u9+4xk+8xdXSe2WlRM2247G1WRNiLdM8pcueI0z6fGPVeO2niZCma17fJmxixPEuSKO8+RC5oqQGJXyPdk5rhwNPHltzdM3e3p15FQqfgeVDyTNqKbSns84l0lZUZS6Lmp5GR9PiTHhxZFTJksie0fOnuevCF96XPiH75jb7vcE0tFM6KeMmdBPG/PsaMYJjMR17ebAJz53yH/4ned45NHLDH2PT4mr126yXm+5eK60t5NFpeacGIaBGFPxaTfFuyAWn5pGxbjsLF+BMoAH7xFf/nd3pk6PqmgG8NRizm0HfeLRS4c8dbNlQ4WIR0molLZ6zpNsXgsBp5TK8xJSzKgFv+HEFd19mubnKSUCFZozXQ8Pfy3wrrdElotRoz/vpt+tkHQwe7qfMmZCP23MgrgZBZY/Ljx3qeP//cA1PvSpazz93HW6riUns1YbhkzbReNMzaScSCmXebr97UroykjcvlTjlpE+rq65UrmXj50z0nXOlOaA4KCI6FQ8N7aZxy4f8/UbiW2uASWTUTyoVeDm46pl790ey66LKTBm6AekxtJg3E7hDsVfXjNDjAjCXz3l+NhD8ONvVu7bF+qgLBcyV+t3I/L6Tl/BXY+Z0E8b6dadvoIZrxDECF969Jhf/70X+aOHrnJwsKHdtAxDstm4Kj0mfhtn4+NqmRNrvaeU0OxLgIorpG7IzvLPnXNlxu2Le1yJSbHOvJGlOLLutsuuHrT89aVjnl8LW62tEZ87BjxMQrtshxIVvNtpAAymyhfviDGRc8anSFXXuLpC1a4hxYSI4nwAHM++sOFX33vIq+8P/ODrznH+HPzYmwI/+07hVRfm/IO7Cnlzp6/grsdM6KeNPFfo9zLGFrsq/Mffv8Kv/d4LPP3cAe22Y+ijzcmBrFbBx5xZb7alpa6F1K0SDiGYcjyBmbZY9TvGqDrxqMs454kxg1NEPDhnojqyTdmzkkvOahbHYRK+cukWzxwKyS3Q1OM0o6EhqbX8vXNkLR0C50klCCbrrtUPHjRbl2BIuBQQ73DJkdz4PJPtpgd7zgeHRxwfHbPZXmCTGqrK8/iVJU9eCfwP/+SANzw4zPP1uwVzt/LUMRP6aWNeWbunkTJcu5n43993md/+0Ats1mu6rpB5IeKygYYCOWU2mw2geB/IziG+7JWLELzHuvPmzW68XFrrzuGoS9a5FrOXgBYRm3PlMVTICkmEbZ/4+q2OS32g854ce6o8EBVS8mVZHWJKtnOuRsqqAtkI3VrvYgSf1HzkNeGAvuvwIiSxaw3ekXJi6HtiTAwxstrbZ3Vu3+b62Q4s37hU81t/vM9//e5jfuR1A3WwQ80YwjkT/Pch8tytPG3MhH7amAn9noMW5c/BceKhv2p538cP+Mznr3G02dJuW2I3FCGZIqK2YmbZY/QJDtdrkma8F3IIVE1jq2nekYfM4BNJlaw24RYdZ84mdlM84k1lLiXxzCBG1ChJHAcdvHDQ88xhpB0EX3bFs3pUMxJ7RPJO/YZDpay9QbGataofFeN+wdbZHHhn7YQ09PSqaK6JTuzaRLl1cIvtdsuFC/fTDT15nQlVIItDXeCJF2p+/RMXePePDfz9N264eC6yajLLmrlq/37E3HI/dcyEfsqQWQhyzyErvHA18v4/usUHP3PIC1e3bNcb2ral7wdyjGjWMt82kRmqZr2a4NatQ7quR7JSOY9bNHjnSHUk94kqKTElhhTJyRTkxq0ZFUfOkLEWvCu2rlkDg6oZ0rhMG+HZG2uePUqskznNOZzdh2qphBVN0chaPGYTYwcJHwLeGYnnwuQiAuIs19WZjSxZSJqJfUfSiPcBF6HrOq5cukRwgSYs8HjSomZBw9ANHLOhrmtSbvj4F/Z46AnHq85ved19kbe/QfmhVyUu7NnBYcb3CebfhaeOmdBPG/Op9J5AyR9BgC891vIbf3iTz3zpiIODlq5t6bvBVrom97cdkU98rOCccvn6NTbrlnOlRS6q+KpYp+IhZUQDkjy5zNlJCU1qQjeUSpzN1C3UFKUcGEJgMySevXnACwctR7pkSL2tpJUZuTgBMqQ8dRuU4vyWE+LL/QHiPU5HVrW5fzaLuCLsE4YhYfbxDtVE1w/cuH6DdtNy/tw+zjznCDhIytB2pJjp2p7tZsMtLzx71RLgGgd/fjHwn73G8Y43Jd715szF8/My1PcDROO8tnbKmAn9tDG33O96jKSHwof/9Ih/975LfOPFgfWmY+h6chzIKVnZnJnEbqPfOqUiVpTshKs3bnHr5gGr+8/bEB5zfMtOyA7AIao48WYOkzOJcp9qFrC+kHgu6nKXEw7P1Y3y9cuHXDlq2WaHEu0kgaA5l4hTa91L8Ax9Tyotd80K4nAu4MSW2kwwb48xrsoJgiadFPg5Z0QgxkgW5fDWIYeHh4QQWCxX1HWzM8lBiENE+0TSRMoJJaNOyDniHdy6WvPkU56Hv1rxxtcGfvItiX/8LuHB+9w0Y5/xCoT2d/oK7nrMhH7amAn97ofAzYPE//07V/i1/+8K/WC7430/MMQBpyXOFEoFm0uL3dJQnFqGeUaJqhyuN1y+cpXX3rcPOeG8kaZXIblS1ZdDQVIlOAfqUclWoWclaRrDVEllbe2wS3zl6Su8cJTRqsaRaEQtrMV7BCHFWJzmFNEMjeAzxJjNJ96NSnaHH3fbZZf4llO0Kr+yHfSYBjRlYgafEyn2HBzeQkQ4v3+B5fIcU2WflSFGUOiGyHa7tZU5gYDHidKjxLanrQPbbcP1g5pHvqZ85E8T/+qXGt79Dk/w83z9FYn5d+GpYyb008bccr9rYeYv8OQzLb/63kt8/M8PGIZEjok0JDQmXJLJ7U3VqlA3Ts6LWcs4l9YiahuScni8RsRWxVJK5ucilVHz2NYuc/NYEs80Z1Istb6Y33tGiOI4bDNfv3rEjR5olqVLIETGCJdxDS4UMoxm56pKCDWqlvQG4LzDBY+3BwXsMEAu1bHp+1A1Jb/FtwZyTty8dUA3dOytLtCs9sgCbexJorTDsHPBQ4lpIGtENVO5itVihWBucy5hYr0ESuCFG55f/5Dj2qHj539SOb+nM6m/0jAT+qljJvTTxvwmviuhCm2nfOFrx/zmB6/wRw/fZNsmUlJyNPFZiqPLWyrcm6dWu2pGyokgFwJGjdKzwvWDI7rY4dTU8LlYu2r2kI3owar7lLS4sTqUZDHlouA8vQQuH7U8d6Pl8mGkp7ZWvyrZJHO2ihYzIlZ1i1M0OyirZppzMaRxhSRNma9OcOP3lNAX753N9XFGxKEiBE9OiYPDA7abDYvlgsVyyZAGktp9b7dbKK15VcF5M7TJaQDJUAuxzO/HE4OotfbVKcF5tn3Dxx4OxJj4L39q4L7zeW6/v5Iw/y48dcyEPmPG94BxXn7rMPG+j17ndz9xjW88t6XtMsNgK16asvmwZy2VeS7tcTNcFXE4UTRHrOY1VZwrk/SY4NrhEW23odZMwuNyxmkEAjkP9sck5kgW+tLWHu3gVIQBz7PXtzx+5YCjIZC1Bm9p5SonhWzFCNaZP7x96nAhQExWETshFBtXq76L4v2EixwCMRczmyxGzM5ej6ODmxwd3GBveY5ze+cRcQx9b73xrGjKiJgjXlaQwYJdUDPIIbfUoWIRFlR1ZSY7mJK+aSqcD2T1HG08H/sLz8HW84s/teUNr5llWDPuHcyEPmPG9wAR6Hr41d9+kfd+5ApHa6tMrS2eyQlySuQUJ8OXkz7sZoriEEmFsEZ5fJG6Yzdt2o6UFJyYAU2ytTKlg9yTU0JxpGQknMTm65LARTOJ+cbBmicvH7AdAiIBSgb67rnYxznL5Exn1zI6zzlUsmWoT3IznfrqOymffe6ckJK1yEd3OxXHMGQ2xy3LZo/z+xeo64ZuGEjFIlYQQlHEq5gGYIgdIoL3JXPd+0ntlvPu9Qx1bYeinOljJOZMzI5PfgGevgT/4z9TfuyNMovlXgmYK/RTx0zoM2b8DciZad/5ucsD7/mDq7zng5dYrxOpjyhKypmYbIYtOoaWJCBPRCkvIe2dOH6scq3dLkDfR4aU2AsBGckxR6vCHXjnSQm8OnJWvMvm5iYVmwRPvnidbxxsaN0CcQtGJzfK44wQEaqqKmltrvjA57KPHvGhmq7NKnlgjGcte3o67q7nXGxhbcTgvSfnzPHRMXWz4tzeCtVc9vF74mAtdyeO7C1sJmEWuDklqqqiqhqapqZZLvDB/N9Tso7CYrHA+UDMinMZTRFRIYsnOM9fP1/x7z8U+Zf/OPMPfhSaajakuaOYCf3UMRP6jBnfBqpMZHztVuYDn7zFe/7gBb7+woa+jaRusOpZLIo0JcUXFXhOCZnIvNxfmTOnmAo56rS7btav5vjmRRFXXFedL2RV7iNDxuO8zaUdGYf9LZVnS+DpGzd54sYNpDpP5Wt6jLhFrUIfq/GxQk+ai8jNZtOumMjkPJInOGfXlpJdiIigsrtNy6knxjglwakqXdejwHK5LPGpkWFoiYO9djlnYs6Ic3hfoRmqOrBYLKjrmrquaZoFzXIxuet5v7v/vh9wwROC7c5bVwFCVeOc47nrkV/9/Y5f+Imef/Fzwvm9mdRn3L2YCX3GjG+BaVZ+lPnTzx/zu3+84bOfv8Sm7VCFYYgMccCLVchJ1eJIAQoxZ7WWdE6JrErChHCjTWvWsVK39BYHIELTVNRVRYoRtNmRrwgqDsGXg0JGnW2Dp9CwifDElRs8cfUmqV7iCJAh1N5Ma1QmIgSmYBcntnImZZZvDWpHFYQQuI3Ux6rbxH32sfeCeBi7EaZsdwxDzzC0BB/M5z1nUio7+YBkLd2HkpPua5plw3K5YLFYUFUVdV2TM3Rthw/OZu/DQNu2pWsAzpvpjvNih4HlguNNh/eBxaJG6iWf+vIemz7yL39uy4P3lcc/g/fRjBOQ6k5fwV2PmdBnzDiBsXpbbzKPPdXy/o/d5OMPHbLtlFu3btH1A85X0+Q4Z2UX8mnEJIXINeeyjjZ9eSLT3d+gMs7WYbms2Vs21CEAGeedGb+om8btwQlZEsln1Hl6Dbx4sOHpq4dcOmzpYiCJh8YjEnC6a4/DbnYO1hbHyXS75nItakr5nGWKac3ZvOerqhxikpj3ek7kNJBTxjuPDwEBthuz+gzBkdJgbfYYi52sTqY6AlQhUNcNy+WKug6oKjFGYrTIVhXFDSYoTCkxDEMRHGIec07wlaeqA0PMLFdCqJTgAmFVs9xb8tcvCO/5xIZ//lNHvPn1PVWlM6mfJWZCP3XMhD7jnsdYjYuYMdtTz0c+/OkjPvFn13js6S3iHH3f0feRru0IdaYKYVJ7kymJY0a+it2es+7a9uabWhLWxu1zW6Ue81WbOnB+f0nlHKtlQ58d145bUsqsKkctHu/AY/Fsvgp0LvCN567zxcee4/o2kUODd4FmEWw2L6BZrJNQPrdq3w4SqJnWSDF3sda6lCp9bE27aTQgzhXNgM3XnXNEBZWEeGvfB+8Z2i1xiDR1g+ZM33V0fWtiufJ6OOfwVU3lPS54RGAYelO1Y+JCtITMBI/3npT6MuYAHzyLZkFwFeIcofZUVcVyuWSxXOJDoPIVgqNrB3JwPHN1xe/9ecUvvuuAd/3IhuDP9r02Y8ZpYib004ZUsxjk+wAicOtI+NJjA+/98E0e/spNDg82+OKgFqPifLDZLEBKiHNTlQhllUtHVTsUxi++7exSysbvl93HDji3WrCoa4ZhwNdLvvD4sxwd3uL83h4/+JoHeXD/HHuLBedWeyVwJfPsi1f57Oe/ylOXb9GpA/FUdcVib8VqdY79/QfYO3cfPtjqW0yZlCIuBLz3aFkbG1fTKPcrxV0O2VWx4oxcc0plTUzJMRbrWjHRmio5R9bHRzbwVxiGjrZtyRrHlgTee3wYZ+RNOQTZi5FyZhgGa6OLQMx4Z8EvCoTKT+34ug6sFnuEKhBCRagCVVXhvC9ivWwJd94xVIGUMy9crfijL+1x317Pm38gnv6ba4ZhrtBPHTOhnzbcCtLBnb6KGd8Gh+vMI4+1fOXJgS89nvjqE2tu3Dhm2/agGRVBh2itdBfwPqNpMCFXzmUdylLHbm+nmxPbuKZmivcdRATJYp7ooiyXNRcu7LNtW5arPa4cDzz37Ddotx2rVc0Dz1/j/tUeF/b3eODifagINw/XPPbUMzxz+TpdkmIlm+k72GyPuOVusFrd4uIDr+bc/nnqZkEINRLGituMYTQwdQtUc3GoK/PpMrsXiiZAM+KN1BGHll17KRoCyZmjgwObo3uh71uGYSCmzjoA4mkKiTfNglDVtlOuYzfDImG996U9n8k5olHw2Ny/qioWi0WZ55eZvXiqylbzYoxIjCbaU7GVPhFi3xMHTz/UPN4rf/LlmlddyJzfy+PUYcZpYib0U8dM6KeN+U38ikRWeP7ywP/zu9f5+ENr2t7a6u12sBARbA87xkSOkb7f7U3bLndhgGShojCudp1cCTs5o80lLmU3p3diwrg6BF77ugc5t7fkxq2bnL/4AM9fu8nV4y2KcHjYcvmwxQFeoK6sYzBksGOCxZWOn6kqOmSyRA67jqODWzSLJecunOf+i69mf/8CzWI1iftEFLxVwzoGsRQ1eWk1FFIvDneUA4n3pKQ4dfhiBXvj4BbtdstyEYhxoOu2tG0HKM55mmbB/rlzVFVj++2yM6AB86IH0BILawcmxzB0DHFgtVpZrGoyw5u6rtlut0UUZ6JERYu3vMdLsFEHSo52eOq6nnoR+PwTe7zmPuUXfqKlqm27YMYpYv5deOqYCf20Mb+JX3HIWbl0PfJ/vf8aH/3chiEKaRjo28G82AGsE01Omdib4GskMrRYoJ4QtAFlBu0mFfhYqcvJeflkoSr48n/fhfPnePtb38a1K5cYhszlK1c4WreTj8voIZcwNX3fl/k2pky3vfFvQUZa/lXOtO3AEFvWx0ecO3eBC/dd5P6LD9IslpZopoDmyXjGOY+mclRRs6a1RDQ37ZsPKeEwn3YnCjnRdy2gdG1P12/oupaUIlVVs1qdY1EvrUsgQooZ8R5KUtxkwGOZNTjnEW+vcfDBVttEOLhxk6TK3t4elQ/EGNlsNmRV6saq/6qqwAmVC4QSgpNzpqlrqkWD88KQMn/8yD6rRvlHb+8Qv/MbmHEKkPpOX8Fdj5nQTxtudaevYMZLcLjO/OYf3uKPHt4yRKFrB9ptR04lCa3Eh6ayT54LCYOWHe1kBjKF4EYJ2birvYtHLWtrgHhn4SUqiPPmme6F8+fP89//i/+Wn3jHW3nfb/0mta/YbDr6fqC4qU6Kett2k+lzm13nE8/sW/WN7RrIidS3tEPP0LVs10e0mzXnzt9HvViyd27fdtxTtDUwa8gXGcDOBWesmCWLhbNk8E7QNHDj5g022w3ihGEY6HqLy6yqmr29fRbNHt7tqmhByPmk+I6p3W8fW9UtHmKODEOk6zpyziyXK5x42rZHS4BNTImVrgghUNfWyq99RXAeVAkh8MADF9m/cIG23XJweMDxtucDf75PNyjvfmvHfft/9/fXjG8NlZluThvzK3zKULc3r8a8gjBEeM8Hb/J7nzzkcJvpu0jX9sQuIQg+CCkrmUxMkTwMFhqigneOpEDZs7bqdWxRv8SwRE7Qq5qdaVM3JbnMqsU+RX763T/Dv/7Xv8zh9UtcOH+BVz3wKp56/gVy0vGf7sJP2JnQ2EOfsJsbI85ug37T36qJ2G/ZxEjXtty8fo3l3nnuv/gqVqsVTbMsj5UAI9TxgCJT9e4mpTmq5CQcHtziypUr4BQnjjREVIW6XtA0Nd7XxJjRso9ehYAEmQ4MOe+u2bldGh0CKSZiGiZjmcVyObXdLSHORgeqynHO5LI3X8UKqkz2gaaqcCIMfeTG9et0fY8qBF/TpcCH/1K4duuIf/aft7zm4tx6PxW4vTt9BXc9ZkI/bcwt91cExh3uv/zqmt/+6AGHRwNdN9D3kTgkUk5WfWcxC1VszWwkjeDMNkYT5BKDqhMLGeWOrXSjI0sFG6vNqqlZrfYQhL7vSClTB8/P/ZOf5Q0/+Ho++8SjnN/b48GL9/P0c8/vuu27enz3PKZPeMknLyWib0dMSs6Dif1iS9du2BwfsNw7x/7+/Vy4+ADLxTlbSYtmoOOc7XgjZk87aLaxgRPW60Ou37hqVrHiyGlAc6b2Favl0g5C0axjkxNcVYH3JNHyfHQS3o3mNg6IKdmhKqUS5QpVqKh9DVnN512ENERSsp8jMuDwLJuIZpk0D5utdVNuHh4SvKduaup6QaWeuq5woeKLz9QM6Qb/zT/ccvHCvKP+ssNduNNXcNdjJvTTxkzorwiMlfMHPnWVmwcdQ7QWbozRQlAAlZKYBsXYZJfPnTRDylOVmEvUp3NSDFfsAWKMk/JaBHwI+FCzXC7Mq3yIpfoW3vWud/LzP/9zhKqmWax4y9/7Ua7fuDV5pY8Obd8dvteqcjfjT2nLdtPT9xs2myM27Zr7Lj7A/v4FKm+ta+ecBc54xxAjoxNO1shme0zXb6dDjoXQCIvFEu8CKduKn9rsAhcCcsJxzntfvOB34sKUEjGOITRMbnZVVZnYUCENAzHZzy+lRCpt9a7ridEEgttuIMbBui/Os1wsaOqarIrzFU6VWAR/vqr5q+cvsvr8TX7ppzfsr+ZK/WWFv+9OX8Fdj5nQTxvzqfSOwzxdlE8+fMxnvtBPRJ5T3rW2VclDmpg/pTjtmKsq3rniXT5J4FA1AgeKYYyUtrtQ142tWDU1oaqMpLJVteKE1zz4av6XX/5lfuRNb8G5wH/xMz/D61//Wr74ta/Rl/hS+F4I/TtDbpsBnLhdpFTd0SJf24Fh2HJ8eI398xd41QM/yIX77iPUjq6z1rcI1orPidh3bI83pGSrX7b2FlgsV/gqkLD9fUUIwXbkXXDTwcgOLpNWv/yscsmRp2SrQ1OH2/zkYxwYhkjWbEp7cbYHX1r46/Xa9ua9/axQCI3tr6sq/TCQjo+pnKOuA35Z4aKn9o6HHr8fgF/66Q3nlrobo8z4u2HWE506ZkI/bcyn0juKsRH93OWB9374BldvDOSYyPGE0Cvl3Yy4ELgmM0UJJQjEO0cqFWTOmWGIWOu6kHT5Y8EkYapqnfM7JzqYIkF/8h/8BO9657vIKmRVfL0gLFdcvn6DlMeW/cv9YpywxJtuGmfzdv1WNff0OXEQe1KEIbasVnssVisWdQD8tC++7Vr6bosb5+zOU9cNoa5QV9TlYmI35yvzf09mXCNOSuysUtceJ46h600QOHVBHFUwQWLMaRLSxRjLOEOo65pxylHVFT54+qGnruvJAc87O0xM5jUp2uvsvanoneBV8VRoveShJx6k9lf55+/e0FQzqb8smAn91DET+mnDzxX6HYXCzYPEBz99yCOPb+m7yBBzIW7ghCEM7Nq9I8E752wf+8TXR/vWESORjylgzvliscp0ojCXNUEynD+/z9vf8XYWiwbNCQ0enPLk15/kmWeeBRxTVOn3Chn/Uw4sYyb7TlJXugw6/QMjcxPVSXncnDJ97jk8uEbXbzl3bp8L911kb3+fUDUAbI+PuHH9KkPf47D0teArmnqBePOiHx9fsF3zsX1uNrumVRhXxXKKDMNQMtXtthAC3gdy2bEfYipiOUfwgbqqbVfeQ6grc4lzZpjjnBT3vt1BbDqApYwF4wk5JgbpUSqiOgaJhMrzZ4/ez4Vzys++Y0PxrJnxd8Fc3Jw6ZkI/bYQH7/QV3NPYtJnf+OANfucTN7l1lGwurbYdnvNJlbhhdCwT5wjBTy5msbjFAbeR/LgeVZxdpjby6ImOjKEn4Lx10h944AF+8Ad/AMTSxyoCx0dHfOyjH+X55180Q5v0nS1JxwjU229kxzoqux72+GVXVOVlls2J7oKlwCpSSFcxEdswbEk50vdb1ps158/fz/75C6jCzetX2K6PzZgGh/OBqqrttSmGMaPznGCubePIIhc1eladQmCGriPGoaS1eaqq3kW85lG/AFWwxxgPIZabXplzHFa9iwj90OMrZ4eC2jEGvlQ+2OFKwYuzY05WcswMeaBNwqJpcMuGT/3VA9RV5t1va/H+VPom9wx0Lm5OHTOhnzLU78+/BO4AxhWyD/7Jmvd+7IBrNwfiYCRpFakFieTifDbSnnNWPSqUMJBU5u1pJ/gS+1oIlSmknSNnU6+XRy+tbEF0t/aVshBEWDQLVqsVmm2PfNtu+MhHP8IHP/RhNhtzh/vbPekTH5zcnyt/mQbOWhN22CgWsALi8vQ909a7iOWya2ToTbSWU6LrWwRPt90ydgJUFI8jODsAybgBkEFGItRdByTnNEW22ghjSxqGSdNgByVrkQ/DYD8n8dR1jXfWtk8Z6rqiqj3BOWLOpGzK+PFQRTKhXE6ZLtsOe3KROpRqvnRXsoodghQbyYRETo5NV/HHj5zj4n7krT88+77/neAWd/oK7nrMhH7a8Bfv9BXccxjJ/COf3fC/vfeAw+NIGnoTfZUMbnEON253ywnSExA8PjhyyqUFnKZf/KmstIVQTxX8uJcdo83D1RU7GQWvDieeXHrwWRyhbqiqJRnHZt3ygQ/8Af/m3/xbHn300W+uust13f4E+abvO7nmdrI3LMVlzj4+0X7XnWOdohbScqItz7hElsFyzhNZelIPvZqvvdhwHHVjIprYn2JkI84hPth9ewdOS7qct+vN2VYDYyRm2yN33rFsVvhQTYepcTa/WCxAS2dFHIumLiK3TFeqchFHVdXYGqFV4bE33URdj5W9sOlaVk7Y9B1VToQQkJhJziEusd1GYqxZLCtudA2feWTB6y6uuW9/nqf/7eDn8eMZYCb004ZbMSeunS36QfmDTx3yb3/zJreOO9rtlmFIk0/5uF89kYV4vC9mKarENND3FjoyrqTlnBFlmm2bCj4yDP00a7e97EAio2oZ4iGYBemYtOaDQ4Illa2We7znPf+RX/mVX6Ft22lu/61J/QSL3OYXv7tJyoHkNvGbyG3ngbHFvrsrnVT8YN7yrlTuqLXdcTaCGIVzYyjL6FwnzlHVDXVVTx2MnIoGwVvGuve+3IfddUpqRKu5CPGE4GuWiwXOeWK08YhzzhLuyrwipsGS2nxAxBzpvJfpZ7AbFQyknPBldLJcLmmaZjqANYsFIVRkzfQ5IupI0XbWk7N5fzf0dENg0VQ89mzFFx6v+Nl39tTzJur3jnA/MGfVnjZmQj8L+AsQr93pq7jroWoz8w//6RH/5/tvcLQZ6NuOvhsm4jYySaR4Uvg2ur2Zej2maNXjaHbiRuIrYjhVC2TJY/s448v8OFQ1la/LDBkzBy+mNLkQ7jD0bLstL156kY985CO0bTutb31LMt89w8LYJ4YEKjvt24ki+ySNj4eEk4eFkdRtZ5xC3uY7L3LC0qYQJbobM0Ax0BFbKxPAOyNZSgtdYXS+td3xUZAH5DiQht6+npWcFOc9VdWgKsSYiFHxLhCCI3hHzEyvs/fODlST97zbnWHcKH5LtkaXM5ptlpBiZOgHck425/fOjGrqis1mSxUCTspMPpi4TrwnZuVw6/nklxb8wIOZv/dDca7Sv1fMWqIzwUzoZ4Hw4EzoZ4Btl/n4nx3wa793ncvXBmI0L3Yt601ywrhk8keX3W7zMNju+TRjLsgpT2RuVakxVUzRbped4AocOWPZ6aE2UnCQnCAl9Wu9WfPVr32Vh/7sT/nc5z43XdO3rc4nnNwlN/bWsUIvz8XU3aXaHnPYb6voZarKXZGXm5bOMaa1jX70lNudeMSJPR/x1ukoh4exK+Gcx/bwZfq6OGd/SoeDnJGslqSmVpU7ipK9Mi2CqppPPlLm4G5S6Fu7nGImEyfznhQzPgSqKmANFJ2McMgWaLM+XrM+PiYVwxkJntBYpjoKwzBYN6C09hfFgGa5WpJyQ91UXLrZ8NmvRH7o1ZHVPA7+nqDhVXf6Eu4JzIR+BtDqdUj7tTt9GXctRgOShx455P9434s8d1lJWemLgQxqzmJSQld2q2ejSGs3K9fJQU0mcdyIqaqFYnxiVb8r7ejJ4SwrrijIfahshl6qSS9weHSL//Sf3svVFy9xdHR04nno7ZXzRPCy66lPF2Pz8ZP9dO8Dwdf44r+e8zg22D3XcW1r/HyHXDr0u7ZoFSqqxQrvvLXdy2bAmLyGKk6E4I3MbTdfyu6+HQLGx8w5oynaml4ZPwi2LVDXFUl1stIVESP54HGuHFS8RzURh0jfd6VNX7oo4qhLHzzGgXF+Po5JTN8Qb7vv5WrFYrU0QV5v4zCH7cW37ZY49GyDo+0XVKFitVxx3/338ZWnl/zkcx3vfHP6ph/JjO8AP1foZ4GZ0M8C4fV3+gruaojAZpN5zwcu8/gzW7yryCkRkzmO5ZRw4qx65HayNMJJRWhl61HKTvhkLXeHw+a/5g3ORHBjElkeW9aSLJ7cCUgCDejoolau9ca1axzevEmO6bbrgG8Wu932JCkVNuOdja11O3wEX1NVdal0x66Cx4rjNK1zfXMnIJPJ02skxXVt0Szx9RLvzbVuGHqQ8tplNbmdeEtnc84aFzh8qEAzo2ueqmkOYt+Ssj2OU9MTBO9Lol2eVtHGlUEfHKrFareMNvq+R3Muh4YK5wIuOPqhJw7R3OiqYB2Xvqcur0cua29gowNnLzbeOarlinN7e2jMtjankSF2bLc96+NDlosFse9ZNA3r+gJffGLBO9+8fhnfwfcA5gr9TDAT+llgnh+dGsYq6dGvb/jMF24Skyelnlw8vlVHFzdrQ4+rZ7t/v5uDAyfa0IX0xGxOHaaYDiFMxixW2feTUM5W03fzeNUIWll1KRbq0m42HB3cYhiGYulysr09PubJRToY2Xskx/FLUnbfzX2uhIw4Xw4WbtIHqGayOnywStqV+xkn5TEXJb8LCI4QahbNqszPq0LoqXQ7MmM1b0I1IadE8Ir4qggH9bbH7oeBtt0QS1vb7HBrmqpBy7wbBV85nPcmRHS7n29KA21rK4F13ZRZ/c4oZog2Lgne0TQ1Q7R2/P7583TbLev1sf3sVamqysRwGYZ+sO0FSahG+q4npch6c0zbru0A5ByLZsn99w/Whm8CX37C88IV4fWvPmnXM+M7Yv4deCaYCf0MoNXr5v/pTxHbNvO//vrXadts8aepiKKQItraEd/JanhndbqryN0JNzWbAdtc2uhvJH0TbqnaCputdgspWQIY2bzjM5lIhxMjn5s3b7Ldro3ACmfnk4cL21yf5vsmSts9Ty075EwHlBGmph/b5VaR7kjdRGx24FAUN6mNFQfUUiPOkdXjfW2EqXaoCZUtkcchlnm6vRamqFcqb45tARP1pXL/lkyX2W6P2bZbEpngraKuPDRVKK89FpLiRjLP4Bx9ND1D4wOOirp25RBRHieVVbqc6JNSeY9GpW87vBf6ruX64QE5J+s4+EDdLNnfPw8i9LGnW69JMZFTYrtd07YbS4or3gShqlgsVvRdx9HRIavVEueEFO/jr5+peN2D/dxy/y6h1Wvv9CXcE5gJ/SxQvRaz7Xr5wjZmMK2UferhAx5+5Nh2lJNOZGRVrZpL2+jcxm516zYr0JfMrp2zdvAoNrN/5wp5mwBuVMMbJ5d5cQKcFqGVHSxiimy2G7ab9UTW9tdLFOeoZZxPirNvfs5SVtHsYyayGte4xvPBKDCzEbyzY4JAEGe76VqEZ+JM5KcgRakuzjN2Bbz3DMNQzhEOF0J5zgnNoGVlrPQQsM7FAA66bstmc0zMCR/M376qaoKv0Ww5597XOAmAzfyTKnkYiDESvEcq83i3xkTerdl5oW17ttuWqmmofI0PnpQiRweHbLcbRExhXzc1Td1QNTUp9fR9Rz+0bDdr+r4vqvoB1UTwjqoykZ+vAnW9IFQ1dd2QMrTblmGv5+mrS1LqCfNv0L8ZUs+2r2eE+e14JnAQLs5K95cZIsJ6m/jgJ6/R9kqo/FQto2YMw7T5vJsbv3SGPt7XLmDF7T4+sQ82zttTGkp1uau0p1k6CbLRj2YhZSVuo81+d71yGFvewu72Cd88R3dFGDa15VUQ56lCZVX1OCoYZ/8v2VuXMm934qYHNk91h5BREbyvQBy5qPmdE2KKxYZWSqvbri1le57O1yDeegvFyAVRYurp+3aajddVzWLREHxVDhRmu+rAhHJlxSyVvfSqqqirCucd3nmcF9abdcmnL4lrKbNcLakqT8oD7WbDdrNl6Dt7zKambhrq2sxntusjtlsj8SH25kCXd4eiumpo6toMaKqKUAVWqz2cr/A+kJLSDQPbbctTl1YcbhwXz8+H9L8R9Q8xDybOBjOhnxG0ej0yE/rLhpEMv/jVYz79F9dtJzrnKb1MY1FSl7U0KPvnRRg1ttpPkvdIgiH46WObAxtHx8HmtTlbglguYjRKPjciqKTpoDAqvMdc9ZOYFPTjzd+yGrdFOec8TdXgQzD71ZwwM5zd7reUBLRRtAa7g8voBucoYjY3ts6lHCgc3lWIr8gi+PHroqRiZ6uq+KIfEIQmOMijyNC+7gS8cwypZ70+tLl2qKhCTbNYFl/8jBJttCAQ04BihjYSAqGsr/nSIRmvve1aNpu1zeCrisWipkoVMXZsNse0bUvf9QjC3t6K5XKJKvRxYL0+ou9aUhzIaUBEbdRRrGRDqFkuViyXi9KarwmNuco19YIU7WCYYmK93lAFxwtXzvH0i3Dx/Mvxbr67ofUb7/Ql3DOYCf2sUL0Rto/c6au4q7DeJH7/E1e5dVwc3TB+1OLgMpKN97aO1HUdKSWaprmNwMd9Z2thl2q2rGaNO90k8x4PVOTs0AhjqS0ONOZiqeqBVMjahHOauU3oJmIVt2XD6I7UT3J+Gdv7YrhS1Qu8OLJk1FeMCW8wZrFbsMrJynx3/Uz76ZoV1TJ/d+Neuw3YfahsdlyIOw79dM7YHXYqnA+knMoBorzmlIMGiba0sp3zOLHr9z6Qs625aY4MyWbX9kSFpEIdVoTg0bQ7jKkq7XbLZrthuVrS1DUAXdeybTdst1ti7Ajec/78OaqqAlU2x0e0XUs3DDYCgGL5q2VdLlDVS/ZWezSLFVVdU9dWifvgpgCeFNOkH4hDpI89zind8Fq+8aLwEz/6t3//3jOoZkI/K8yEflao33Cnr+DugsJj32h56MsHU7WN6tT6Vdl5pY17yF3XTQQ34mR1LjClqLkiigPjvCSWY+6DRzXgo5mcDEO0PHXZ2cSaWCsz9L0lm72kx27yuhPsPXL9eMFFA+B8oAo1ddXgnUezQ/Cla2DaAHFjG/+bjWleum+ec8a7QC7jB+ekrH15fKhthl7m65oSmnYjCWcL4Yh3qNie/zg5z6VL4VD6tqVrt4DDiYngvDd3OVt9iwx9h6aEL+r8LB5f0tJiNDGjEemA8x6c4/7770cks922bNstXbslZVv721vuUVUVQ+w5Ojqk227NkrfIA0owLHiPeFc6BgsWyxXL5TmWy9XOy96NJjgRUWHozTzIDh9CCKbsX2+2XL0Z6AelruZ28nfCXKGfHWZCPyNo/cZ5ivQyQRWu34r87sevcfnawNBHsho56Og3WvbJEXN6a9uOlPNUnWfNO5Iq8+lQ1stGAZmCzYnLDFfGmbsz4dQwRCMcpRA3iCpZM127pet6wOHcWEVbhKqR8bfYN79tU00IPkzVrartiI82taPSHEbBH2V97sQCPePXS0CLc+RC+hJsX7wqPukqznzc1a61bzvQhPMe5+wg4IPNkUHLTN/U9F4ga2boOzbrY2JM+KqmaRY0zRIR6PqWvu9I0TwB6irYYcI5QmUK/ZwyOfXTLGLRLOxQkhOHh7fYbDakFAnBsVpZJvtmvWbbbjg86omxN72AZntN7AdStAYNTbOgqpeEUNMs7PNQVdNef9IMOeHF3jex2xZ/9zICqBua5QJxyq1bh1y+cY5t52dv9+8ImYuZM8RM6GeF6nXm6Z4O7vSVfF9DFYaY+fTnj/jUXx6zaZWUzDKd4ghn31cI3ZrB4IzAXRVQN+5wjwI4a8FaAe3ImtBsK2m28uXKfVuVlrNaAIsUBzaEXKpBCy5Jt+222xnAXN1sP73smqveVpVPmFbN/JQOZreXvWcpnvIyKvmNkFR296eq+Je03Bl31F1R8RcnNoqQz7btMzlFFIuW1UwJNCk77JywjVVFs/maa+zpNmtSjHjnqauG5WKJ8462tSz1GAeCDzSLlZF4qZptvqGQY/GBt3n9pj0mlop+GAaqKrBaNqgm+nZN227Zbjfk8ZrK2h8ipa1e4atAVS9omgV1s6Sqm9I5sMNRTjtfAtEiT3Ri4ryUrPXvhFA31IsldV3bzno/cP1mx3qz5PzeTqcx4yUID5jKfcaZYCb0M4Og9RuQ7Zfv9IV832LkvEvXIh/69A2u3OhIxU9d1URh02oZo3Mb0+222mXDaed8EV8ZUcGoVC9ELOPql+1TM66ESTFqGXLxUbd1K7CdcuecxYHGWB4HpvU5VSPlHRdPa2YUsZndYDvZvgqW1Ma4k377fHx8VUZHtpHMTorhxn360WBn/LfjQWG6rUwERiHfKOp76UhivNycs6nj1RzYhq6b1tuqpmLZ1CDKdrtmvV4zxAE/xc3u1vTs9bPX16kFw+Sc2axLh0OV2gfO7S0RL/Rty3a7Ica++PQDYkcRZ+xLVTUsFtaGt9m4paxlNdtXZWcw9NLgmlEkqbm8Z5wQKlu5QyDGiPd2P8cb5fqtyOsenAnr20GrH7rTl3BPYSb0s0T1wzAT+t8a49z4T/7iJn/x1SNisv3hVNaqxvn1S1vTMUZyhqq2pC7GFa4x+GOyb83I9EvdyNyqtgzJlNFZlVQq74kFy+MIWKJX10/77aM4bmz/Cw7nxvU5i2sV5yzgZJrfO3xdU4UKRBgfjiLaG9fkbiPbcV7uxm8VvOwMdcbDwKgSx0t5jpOUEBE3HZBk1Az4XZdg3BA4ee1g6XFt35Z2eDUZsGzXR2zbliFGfPAsmoYqVGbrWhzhrJMxAEboMQ1st1twwv7+Pt45NClDv6XrO2IJ0FG1sBjbwa920ajBKvK6Xk4iPDs82f3nbKl5rrwHckrT2GU6XRWtg3c2GpDSRVBVUk5UIeC959Zhx4vXhLe/ZSb0b4v6TXf6Cu4pzIR+lphnSX8nOBHWvfLxz93k8KiDZGSrKFkTkkdyAxj3zHcxqaMKfExbG4ZhIjrvxgxwjIBLGe3KfSVRYioEPBm2TLV9uQYlD3EKboGxyt/5mpdvL9fmwDtCMV0RMSMb7zyhCicOC4KSjdym6xpJfHycsTrPjLnl4znAphFG0iE0JsobEuId4jlRxZ+szrMFpJRDxjhCmPb0cYjLpKQMQ2eqdpTlcoFzjs36iG27Lethjqa2HfTgA3VxY3FO6GNGYypz9p6UE8vlgr39fVDo25a+6+hTTyLjqkBwDXXVlN32FXW1MLEiGRGP8xUxJsTyU+0lVy0HmN1hKqXyfAqZj5W5el+0EZkTYgo7/JRGSQieo/UxL17xDFGpwtx2/5ZYvPVOX8E9hZnQzxDavGUWxv0tMbapH3nsiD9/5KCshKVdUaW5tLWN5LRElY4za3FjuIra3LTMW8XppJC3/fMxHUxtDzoEci6OcJQI0BPEnPN4qMCyvUsK2G5lzJTTZTiLZiVqSSWrTZQWQoBSPUoxcBGKcK/YtlosqXUBBE50IHbVeU5pcojLOSM+7LzpxdrEkEkxl7m/HU7GVLSUciFunaxjT24FnFyJUylK9GLR6iQXkxvPdrNlsz22IBtXU/mKyld4ZzvzKaVSoaeJcPt+wPvA3v4+Vd0wxMEIviS41fUSnKNZNFRVQwjWwaiqulTdSjbDfLIOpGgiN3Fm56sokneKfyk786ODoF2rhbiMWwaKm3zlYz+AT9RVZTvzorTdwOUba/p+nyrsUupmFEiFNm++01dxT2Em9LNEeJX9mQ1mvmdYBaf8h/dfYrNNBJEpGnQMUdn9XdbOKN101an9nFJkDBHXMs+m7FD3fQkfUROkxZwYumgkXxzMUHA4Usp4Rq90mUR4L3V9E3E478pjClky9WjVGqytb/PosXoUqzI56cWOqf5KpXiSWL0fw1h2Dnf27Q49MRceiX4cP8i0d++m9bsYd2Y7Vp273evLSwg92wpa224Y4kCoAk3d0HUdm83aDhfeks/MG16Q8rqP92lubwlBWC6X9n0irNutPZ5zNMslwQVwpsoXKZG0zpNFaIdcgmXsJRKsqhaHtdgxw2XNJw9DDidM0awvnaWb8HHSJtohRy2ZzQ45FkxTNw1Hxz39kFlZfM/L8l6/a1C/AWReAThLzIR+xtDFW5HjT9/py/i+wtjefuiRIz77xQMQYchKGolZQZOSRTGvFS1VFORkFqwWLDL+Sh/vV4vgzSr8XMRzItkq8sQJZ7ayJqZCLs3sVNa3crZ2+yhMe6kATcRNojfvfbFctaoxqR0SkHFu7ZGykjbO8k8Kx0R2BD7O6McjhHO+fJyLGn5nZTu2mFNZwxtn8+IgRxsnTOI6sfnxqCsY1+Gck7IBYB2N2G+L+YxQ+ZqUcjF6sRSzEKoiJishNyXTPJcRhHmye6qqQlWIKaEJs+Wr7PbgQllHHNXrlPAdsGo/472p1R2eXcrbjsShjFsQpMz+ldIcKCOVk4q/sROiosSs0+HHi8OP4kNguVjhg0yiyBm3Q+u5Oj9rzIR+1mjeCjOhf8/oOnj/x65wvFXL9x7b3Sq7inv8JV5my7vWsUfwiI4kWH6T667dnrMJvlRO2LaikyBNioraNsTsMVLOZtvOTph20tjFOVcEVUYSjp3NrLGJ4t1YEebiTuamE4zdVzoherPnOoq8xoAVcb4cVkbY944V+xhCMwrzRhvYbAv0pb38zTPgnFI5vJgJze5+YBg6YmxBk4n3ELqut8x0FOdDSVfzSPmTS7iKYIerUBLXUhzn9rurzzExZEWDEksFPhKzw6Glo5GTEpytoWlW8CX3XgHd6SWkeA5MXQ6r1ScyHjsYYBMS1MYuKrZnP+6iV85bt0etO7JaVoRwu1nRjILF2+70FdxzmAn9jKGLt86Nue8BqpCS8pHP3OLPvnRMKi3jrHnaIR4r1lHBvBPGlVnyiVmwltb5SXHUSFTlEXePPVZv418yppmN8247WLwhD7yt7/j7ceAfDQNF9caPA/dsxlSK0G1f9rv9JJT1vPGWnQgS4BHnOfIe5zxfbZYcVzXOVzx87gK+aghOcOKnzYYp3C6bPkJVieN7yFtHwrmdoHKXM2/bCnUVZjHct4Sgi9kX96wxE/pZIzw4z9G/S4x70c9c6viND13hys0eTZFsOqlSye5EbiFIMUsZleVG6CHYL1/Nqayc7b5ureh4Yj58Ym59G2Ryd/Pe87puyy9u1/yrYeDHmVuuZ4V/CtiBabzl5MfwT3KCWD7ZHn/Tv7+Fkf6hc3y1XvBiveDFZsnn9+8nhGrSSahXJCtJE1VVWVa75rIyZ0l+mUzlLcp1np+/BNVrwZ2701dxz2Em9DuAeY7+XUKhj/DJh454/OmN7SAnq6pNHF0yvYt4a1dl29dSUX2PBJ+nnetxlSkSY9mtlrENX9rb5Vsnc5pC5m/rO/7n7TH/U07M+P7DfRTSz4n/Kg6wObIvXH6Gp4BnnOPLPvBcqHh0eY4vXryIsigeAG56jw2xx8vAfedgb+nnKv0l0MU77/Ql3JOYCf1OYPHOeY7+N0AVYlL+5OEDfusPr3D9ZkfXRyTnadZqLfad+lpPzMJBT7Tji2JZMqmI3f5/9s48vKky7f+fpKULLRTKWnakLCKbimwqm46izriOrzrCoIAIM7jgwOCo789xXFBwAWZUXFAYeUeoijCKDDKyl1VEFFkLtKUtLbR0b5M2yfn98eTQLcvJyUlOmp7PdfUqJE/Oudsm53vu+7kXEMlVYj9cupS0Jh8HCbmfLJIEXW3VzC0v4feGkIctPYAeDgejHVVQXQWV5XAxj0MmE6lRUaTFteRIu45UdOxAjCmSmLgI2iQYSu6S2MF6W9AkMQRdB6TYQUaAzgOyYJ9Ir+SDlBxOZVQKD9lR063tUiJb7YxvuembxKVwu1yGJbeClRx2HA5TXbEXmWK1ypZq6GazMbe8mEl2Q8ibKoMlicFWK1gvwMULFB3/mZ2RkaQnxJPTvBPFQ+Jo1dIoz6qNFGt46HpgCLoemOMguhdYT+ltScgiSRJrvj3PoROlIIkmJg5JlKBJl0RdNF8BLiW+XerF7cx0FmVfZiSH06OXX+9w1HjuyI1E5IGg0NVuY05JKZPsNncmGjRRWgG/ttmgoAhWFFG04gjftInBMawdXX/fh8HD2+ttoq4YYq4fJruYh2gQZEzFX2EqWq23GSGH3BFu674SZs8/SVFpNXYJrFXV2KpsSM63qwm52YvtkmhfqvlGbjpjv9QhTe5FLtdUS5L90ixxkbhuFmKPRHRFKQNt1V5tvdOPn7Mj8D9+vN4gdDkcaeZczxZETOjKVVP60jqhafV6l1pPRGo5QW8zmiSGoOtFVQbmc8/qbUVIkpdv43dzj3AqsxyQqLZJWKuqcVSLpiZie1vUcl8KpTvnocs13aKuu259uMPhcA4YMWEyOTCZ5TGg4kaiolyM+GwMRAL+5BD3BBL8eL2am5k7gaY2zaAI2N8hlshbunHNnwbSIi78Q/OOTgugWSe9zWiSGIKuGxLmrCfAflFvQ0KKSouDF9/JZNWGPGdjGCHCVdZqqm12Z/tQZ3+0Sy3VpZrsdGr2x4FL3dfk/fSabHgh6CagstKCrbpxCHljpxXwI01P2AHSgcPd44n9XW+u+31vYqLDsP97ZFscnRfpbUWTxRB0HTEVfISpbLPeZoQEkgTWKgdfbyng1Q/PUlBkwyYnojkcWCxWbNV2Z+MYENOvoE4rV5yTs2oNM6lpKCPVaR5jt9uoslY655YbBJNk4EQAjpsKHHD+e62Hcw9w/vvxANiglEyTiQN9E2g9pS/X39WTyIjwSJOV4scjtZmitxlNFkPQdcRUcQDThbf0NiMkkCT45WQZf3s3nQOHS6myy31jTCDZqbJasVXZkbCDs2Wp5GzfKV5fb4CIcy9dbn0KcpmbA4ulHHsjCa2HI5FAlQbHSQVWILrHpVPTT8ZXYhGRg77ASGAwwc1v+CXSzOkbO3Pty9fQpnV0EM+sPVKHZ5GMkam6YQi6njgqMGf9EaSmLS6SBGUVdj7+IocPv8ihuMyGzQ4mhChLdhtWqxWH3Y4841z0445AqlU7XntoCWJeGXL7V8nhwGKtMIQ8BEgCsv14/XTgc8T+dCBpBQxB7P0Hw5svNsGOAYlcMW8Il43qEIQzakxEAo4u/wCjKFc3jKkCemJu3uRLPCQJ7A6J1B+KWPWfPEoqJOwOs2ivKY/bdIq15Py3eNsKMa8bSqeWoDswmxxEmMFqKae8vNgQ8xDhTZWvuweIAj4k8GKO8xxbgScR77hEpw2pATpfggS//vkiPSduZtOotRz48FiAzhQYpOYjMMRcXwxB15u40XpboCsmE1wsqmbFl9mkZ1uw2yTsdlERbnJOT5McUs2sb1PD5Df58Us16E6Bt1gqKCwscE4AM/AXk8nEmDFjOH78OIWFhS6/Dh065Kw2cM1U4D4fz5sCxAFfoj6srgVFThuud9ozHt/FPdP55Y0bcyu56pWDHL08hR1/2efjWfRBihuptwlNHkPQdUaKHQIRLfU2QxfkjnBb9hWy+1DRpRnhJpPw2mXBlieiAZikhjtEogOcGOvpcDiwWCopLi7EYrEE8acJbwYOHMiuXbtYu3Yt7du7bpxy+vRppkyZ4iwNbEgy8IGP5x0P3A9oP7fNPyoR3vv1CM99OsqEeiSixWxnha/pZ7Vz3epTnO29iv8+tRuLNUQ7FkYkiGZZBrpiCLremCKQmg/V2wrdKCq18a+vsrFW1+7HLs8jd9QZb1oz8lQWepHZ7uwKi8VSSUlJMdYqq54/UljRv39/duzYwfbt2+nXr5/LNWfOnGHChAkMHTqUAwcOuFwTi2+Z7cVAH4RohjpFiG2AngibPXntuxBRCsn5mh7O13jrSNHFLnHD2nTOD/iMbx5LpbwitKozjHB7aGAIegggxV2ntwlBx+GcXnbgcDE/HS9FHk8qHq/xwh21asoB50xy+f+ivautupqK8hKqrJY6rzVQT9++fdm6dSupqakMGDDA5ZqsrCxuueUWrrnmGvbu3Vv371QLE7DRh3NnAp2ANF+N1hkJYfP1CJFOcbGmOyJKkQOcQYh7NjAfkR8wHs9ee1e7xC3rM8kf9Dlrpu+gqCQ0tpOk+KZ3DQtFDEEPBaJ7Q2QT6//s7KOeeuAiFZWOS/3X5VIzud7cWUZ+ySuvnQBXVW2lorwYq7XCrZgY+EafPn3YvHkze/bsYfBg1xOzLBYLDz30EEOGDKFNmzbk5+cTExPj9phvAEov95nA5YReiN1X0hBbBYm4FnaoEfdy4FNEffw2arx2T55+N4fEXf/NoujKL1j18FYuXNQxKhXVDaJ66nd+g0sYgh4SmJqUly5JYhhKWkYF//7uAiaTs0Yc6VJ3OLNZ7sfuqNPlTZIkqqurKS0twWoxhFwrkpOT+fbbb9m7dy9XXnmlyzUWi4Vp06bRuXNntm7dyvr161m5ciUpKSlu8xXGILLElTKSxi/mtSlCCLs3gb4P+AE4jfDa06nZn1/s4XXdJbhv2zkqhn3J+lk7qap2eFgdGKQmntgbShiCHiJI8aP0NiFoyL1ftuwtICO3HMwmHHYbdrsNh6MacCACmA7sjmoczgHm1dXVlJeVUllZ7hyyYuAvHTp0YMOGDezfv59rrrnG5ZqqqipmzJhBly5dWLNmDdOmTSM9PZ3hw4eTk5PDH/7wB5evawVs8cGWq4FzPv8EjQM5FO8tpC577VXAPOdjs/Eu7N0cErd+c5a8/ilseetnDSxWiCkKKd4Q9FDBEPRQIbJjk6lJl4CLxdVs2XsRc4SZ6mobdoec/AZ2h6Pmy+6gymqltKQYiyHkmtGuXTvef/99jh07xogRI1yusdlsPPbYY3Tu3JnVq1fTrl079u3bx2uvvXZpzYQJE1xmtZuAgz7Y84yP6xsrWxHZ/s8oWDsfuEhN3b4SYe9ilxj798N8P/Az9r131B9TFSHFDQdz84Cfx0AZhqCHEvE36G1BUDABh0+WcSy9ArvDmfjmQMwstztw2MSXtaKSkouFVFZUGEKuEW3btuXdd9/lxIkT3HvvvS7XOBwOnn32WZKSkli5ciWSJDFnzhyOHj1KcnLypXVz587l7NmzLo/xBsLbVEIm8JrXVeGDDXgVUbqmpNTtSRoKu7cQ/tXlNq557UcODv6c3f/O8Mdcj0hN5JrVWDBav4YUdszZT4GtQG9DAorF6mDBh6dZvjaXotJK7HaJCClClKFJYrpaRXlxnQQ4A/9o06YNf/3rX5k4caLbNZIksXDhQhYtWkRlpdjJ7tevHykpKXTt2rXO2qNHjzJqlOttoiupGZKihD40vox2rTAhQuuv+PCaRxA97G3AWEDJeKf/tI0h4bmrGHW70tssBUR1w5Hki+UGgcbw0EOKCKT4G/U2IqBIQFaulcNpFqxVDkwSmJ1d32zVVZSWFlJWWmiIuUa0bt2at956i7S0NI9ivmjRIrp27cr8+fOprKwkMjKSV199ld27dzcQc0mSmDBhgsvjxOKbmC+m6Yo5iM/Dq4j8ASXeOtTssY9BZMVH4TkMDzAh38LIJ3exYsxXHDuYr9bcOhjJcKGHIeghhtRiHBCGc5JlJMjILicruxyHzY5JAntVNSXFFykrK8LhpsuYgW/Ex8fz+uuvc/r0aR566CG3695++226du3KCy+8QHl5OQDDhg3j7NmzPProoy5fM3HiREpKSho8bgI+8tHOF3xcH64cRJTruStxc8UWhKDHI8LwSm4Kfn+2jA73bOKrOzZSkFmmylbAmQx3vfrXGwQEQ9BDDXM8UpzrbOPGjiRBdbXEmSwLF4utWCotFF4spLS0GIfDEHItiI6O5qmnnuLs2bNMnTrV7bply5bRvXt3nnvuOcrKxIU9JiaGZcuWsXHjRrd15ampqXzzzTcun7sD3/q0LyY4Q1YaC5XAAyhLmJO5DrG/Pg/4EZFw581bb4UYAlM2/ms2PLGLSovvnz0pfhyY43x+nUFgMQQ9BJFa/EpvEwKCQ5I4l1/FZxtySDuTS1FRkSHkGhEVFcUf//hHcnNz+d///V+36zZu3Ejfvn2ZM2dOHS/7xhtv5Ny5c9x9990ez/PAAw+4fLwVsMZHm5uSdy5vfRQWFjJp0iTngKGGyCH48V6OdzV1S+DmI2rY21HjrXujm0NiwlcZnB/wGV/9caeSH6PGzpaut1wM9MVIigtRzLnPg/WU3mZohiTBuk1ZPPKX/eQXGkNTtCIqKopHHnmEl156yeO6zZs38/jjj5OdXXcSeYsWLVi5ciWjR3vfD500aRJff/11g8dNiNCvL62RUhANV8KdhIQEnnvuOaZNm1bn8fXr1/PQQw9hs7nvyZ6M+/73jyC2NyKAhcATtZ67G1gHJCC89m4Kbf0hvhklA1p7X2huCc06KzxqcDFHRNCiRQui+/Shy4MP0mLgQL1NCiqGoIcopooDmC68pbcZmvDlxrM89tcDZOeFUw8wfWnWrBnTpk3jlVc8Zxnv2LGDWbNmkZlZd3fVZDJx++23s3z5ckXnO3nyJMOHD3fZme9OfPfOwz2zPTo6mrlz5/KnP/3J7ZqZM2eyatUqj8dJAnbjWpR3IrY4ziEqC76stW41MAmwI9rK/o+P9ocLOVFRZIwbx5Uff0x0hw56mxNwDEEPWSTMOXOhOldvQ1Tz+YZMHvvrD+ReMIRcKyIjI5k8eTKvv/66x3X79u1j5syZnD59usFz7dq146uvvqJv376Kz3v55ZeTm9vwvdgKsYfrC5mIyWRqLjxDgN+reJ1S8oAlqG8/GxUVxfTp03nxxRc9rtu0aROTJ0++VB7oiVjgKO497QeBVUAM8DE14p2BEPoiRDtZX0fXhhuHf/tbrli9Wm8zAooh6CGMqWw7poL39TbDZ9ZvyWHGs/vJyq3Q25SwwWw2c+utt7JixQrMZvepLydOnGDixImcPHmywXMmk4mZM2fy8ssv+3Tu+fPns2DBgobHw/dQO4hw8TIfXwOeQ9BakgH0RtR5KyUqKopp06Z5/d1+9913PPnkk2RlZflkkzdR3wncDFiAKdQVbzkaYog6pLdqRfdTp6BVK71NCQiGoIc45uw/gS1PbzMUsXlXHg/P20tmdrnepoQNZrOZm2++mXfffZeEhAS3606dOsWMGTP4/vvvXT6fnJzMZ599Ro8ePXw6f15eHv3793fZF0BNqB1EhzQ1Pds/xbcsen9IRFkGfrNmzZgyZQqvvvqqx3U7duzgscceIyOjYde2yMhIJk6cSEFBAd98843LVrrgXdShRrzrN/cZh7j58rXpD4iIRWPnTmp+b7kxMcR/+y1x116rp0kBwRD0EMdU+h2mix/rbYZHduw/z8Nz93LKn7pWgzqYTCZuuukm/vGPf9C2bVu36zIyMpgxY4bbeeQRERE8//zzPPbYY6rsGDt2LIcOHWrwuJpQO4hwew8Vr4tENFMJFnF4DrtHRkby0EMPsWDBArcZ6wC7d+9m1qxZLrc+AEaMGMHatWuJjo4GxI3Zdddd53Z6nRJRlyMg9SMa8uNjUD40R200JdSo/7s41aIFl6Wnh52nHqm3AQaekeKvx1S8BuzFepvSgF0H8pk8dw9p6aV6mxI2mEwmbrjhBt5++23at2/vdl12djYzZswgNTXV7QjZK6+8kpUrV9KpUydVtvz73/92KeYA76o6IixV+bpg5iqn4l7MzWbzpRwGT1sfx48fZ9KkSS63PgDi4uJYsWIFN9xQtxd6r169OHDgANdddx2FhYUNXleJaECTg8hid8UHwBXAnxA3JvINgBxuX4YQaiXh9w+AG2n8U/Dqj/DtVVrKsWuvpe8vv+hiT6AwPPRGQKh56dv3nefRZ/Zz7HTDbmEG6jCZTIwdO5alS5d6FPLc3FxmzpzJtm3b3Ap5VFQUS5Ys4b771AeoJUmiW7dul5rO1MYXD68+V6NuqtrT+Nbv3B/uBtbWe8xsNnPLLbewZMkSEhMT3b42LS2NmTNnut36ADGhbuXKlUREuO8IWVlZyeDBg7lw4YLL55XkE6wGfodIlqvt1ctet7GnDhkff0y33wcyzTK4GILeKHBgznkWql1PtgoWH312mr8tOUyGsUeuKaNHj2bp0qUkJSW5XWO1Wpk1axZffPGFWyGHhiFctbgrqYoETqJ8klp9vIWyXWFClF8Fi9o2ms3mS1sfbdq0cfsab1sfAImJiXzyySduh9rUx5uoK9kPl0W9I1C7A4F8Y7WKplvSBvBT69YMzNemt30oYAh6I0HPuvT57/7Cq+8epaSsWpfzhysDBw7k/fffp1+/fh7XzZw5k88++8xtshSI3u0rVqxg/HhvPca8c+LECUaMGOFSmOYhupKpQe3+ebCy20GE269HREx+9atf8f7773tMRszJyWH69Ons2rXLrZCbTCamTp3KwoULfbanvLyc5ORkt3vqSrzs1YiWsvVvADoDucAZlDefCUdydu4kaeRIvc3QBEPQGxHm3BfBejxo53tn5UmeWXiI4lJDyLWkf//+vPfeewwYMMDtGrvdzuzZs/n00089dhMDZSFcpdhsNvr06eNy/1ZtIpzMYkRbUl8JZrj9oRYtyBk+3GsOg5KtD4D27dvzzTff0KtXL9U2paWlMWrUKKqrG34OTShrHCOH2Wv/LuXyvGZAU4u5ZQAF7eKJiDRz4abbuOGjlXqbpAmGoDcmLEcx5/lWQ6yGOa8c5L1P0ygr96US18Abl19+OUuXLmXQoEEe1z311FN88sknXoU8MTGRlStXMlJD72LChAns3bvX5XPb8b3mvDZy6ZQvmIA/oz4q4Cu71q/nCi8h8WnTprFmzRqPQh4REcGcOXN4+umnNbHrxx9/ZPz48S7PGYkoVfPmZbvyyGXv3Z+8iMbGrs4J9Bvfh8QYkRO+1xrFsI+VTJUPfYzhLI2JmMuRYj2LgVoycyq45w87ie67mjc+PGaIuYb06dOHzZs3s2vXLo9iPm/ePNq3b8/HH3/sUcxNJhPTpk3j1KlTmor5r3/9a7diPgb/xBx8D5v3QtwABEvMN0ye7FHMZ82aRdu2bb3mMURGRnLw4EHNxBxgyJAhfPTRRy5L5GyAknfBLuf3u2o9dh81c9VT/TWykdB1dK9LYg7Q0RE+nSwND72xUX0Wc85ffHpJYXEVBZllWA4VUFBopaDQSnV6Ge0tNixWB2mZZTxVYPGpM5aBd5KTk3n33XcZOnSox3WLFi3ijTfecJlRXp/OnTuzdu1akpOTtTKT/Px8JkyYwKlTrocBmRCTvNQmwskoTYjrhWhh6ukGIhNRvqXVpXj58uXccccdLp97/PHHFW19yCQmJrr9XfpLx44dsVqtLp9Tsp8uh953ALXbqsQB0fi3pdIoiG0GE+t+HsttDpp/uMvNCxoXhqA3QkwXP8JUuplKi52z31+g8JdCyk8WY8soo/qihaR8C9U2iSSrna4O5X/eR4AvMGZU+0v79u2ZP3++11GkS5cu5ZVXXqG01Hsdv9YhXJkFCxawYMECjwl3WpU3eQsHtkLUtysptgvEcBdXyW8lJSUevXF3REREEB8fr4VZl6ioqHC5jy6jJMchA7gMMbu+dpe/RcBT6FfKlgm8hxhEc5yaG7UiRDMdzfb446PhgasaPCwt9W18bKhiNJYJcSwWC0ePHiX3P/+hcu9eqk+cIDkri2hLBQPtEr01PNcHzq/VwHNA+AxvDQ7t2rXj5Zdf5t577/W4btmyZbz00ksUFSm7derbty8pKSl066ZNLvLOnTtZsmQJW7Zs8ep1RqLNBT7Tw3OtgP9Hw+Yf7gjUpLbiYu2aN9ntdk2PpwQl76buwBuI32FtnkQMppmhtVEeyEQkSf6HGgGPBOIR1RDy7dWIINrU2DEEPcSwWCz8sGYN51atwnbgAJfn5XGVCg/BH+5zfmUgPnAb0S60GY60bduWF198kfvv9zzh+5///CcvvPACFy8qD2yOGTOGtWvrtzlRzrFjx1i7di2pqamcOHGCgoICj954fRqOZFHHly4eiwVeRrmQQ/iPXfUHpU1M3f2+g5WrkAo8TM3fsRcwFpiM/3kaTR1D0EOAvatXk5uSQtudOxmQn0+ojAzoTk1YbjXwGnAY36ZQhTNt2rThpZde8irkW7duZfr06W4bhHjimmuuUbRu3bp1ZGVlsWfPHrKysjh37hx5ef4N9ZmKb2KrlEjExdtXz98Qc888qrcBXshEJOQdRLwHpiIigf7mZhjUYAi6DqSlpXHob3+DbdtIzspqFCEl2WsHIe5LgX00Xc/9z3/+M3/5i+fkxPfee4+lS5eSnp6u+jxvv/02DoeDFi1acODAASorKyksLCQnJ4fq6moKCgpUH9sdSpLSfOUw6oUcDDH3xhiC52GrYTEwF9HxT+2UPgPvGElxQeLs2bNsXbSIZv/6F7ecP684PBbqZAAvAVud/24q3nu3bt1c7mlbLBaysrK4cOGCT6FtvTEBgxGjMgMR9lyN+tGnGcBD2pkSVrSm7s12KDIecX1IQpTO6eqRG0lxBv7wzTvvUPHqq1yTnU34jACooTt1Pa6dwHpgD3AIKAbC8Y4xMzOTzExPqV6hTyzQF9HONdCC0AVxYVfDcppO05NwQ46sGF55cDAEPQCUlJSwdfZsYlNSuK2iQm9z/OJqRHepPwNPKFh/HQ09vNWI8YvrgCygAKM0Tg9aIbKHbwZuI7gJSMsRXpoa3iW0w8mNkQjEjVwgW+r2QVTKvElgcjEMGmKE3DUk7/hxDk2ZwuV799ItyJnpgeIviDBsJeLu7zeIelWtEvcWOb9vBwqpEXwIX+8+0MQimoQMRgw2uZHQDskaBB9ZbLej3WfZ1fH/RYi998I85G4IugbkHDnCwYcf5rrvvw+5vfEUhIdcCPzofKwYZQMdarMIeBvRMUxCiEY/RJLT41oZ64GdgDxhOg8R0pc5VG9tOHv/Jmrqc9sgQtnJwBXAUIyyHwNlyINZeqD9JDt5NGtIeuaGoBu4I+vwYQ4+/DCjf/ghZIQ8BZGB/iN1hU22bzAikeYt1CWnFCGyVbdSI+4mxLzlEYhs22AIvC8sqvf/+jcEMsVAuoLj+Ro5qC3CrohB7GXXRhZpmZC7MBo0esYhPHQtUzfl1rJadpxLRYx9rd2NYSRwKyqiC4agG9SnoqKCr//nf7h5w4aQEPIURD1nOiLL3IRo7ziQwGfALkLsjR+i4Q1ET8Td+o34Fg0wMDAIPPKktbdQlh/jjRTgfrSbX78YeAHPEbdIRFRqOQpnuhuCblCbTQsX0uL55xnpZkBCsEhFhLS+Qoh4JDCA4GQse0IW+ONAPnXL2GIRQt8X8aEfgMh+1aahqYGvpALfIPpng8hf6IKItARr/riBvpjRTtDjnN/97bueCQzBt60zEyI66HUIalwU/O7qBg+Hi6AbWe4KOXPwIAfvuot7zp7V1Q7ZG0+jxhN/idBJPHmSuuHhDETbz40ImwsQ4fqttdZDzZbAEOf3kUAHRCjf8O61IxWxJfIzNTdbcv9sEDdhwb7DHweUIMKqBsHnsAbHGIdInP3Uz+OkINrC+tqwSkJcU+KAo3hwEsqrKK+2E9csQq2JIY3hoSvgi8ce41fvvONxHzTQ1A4/+dNxK1SQhf40Qlzk7HYr7j/M9feie9b7v+z1u0KrSMASD8/lUePt1qYV+tfg1n//DAB+j2jFqXfrTXnfVatQbWMjBVEaqgW+vM9Tgevx30OXjzMG//oFpCC2APwVpEiE8+Du97BvQBLDRvao81i4eOiGoHsgPz+f/4waxaQAzTZWQu0Lsa9TqRo7cjJb7SS2+olrNsD7FPHgUzu3YjD6NUbJROQwpCFsugdtbwRT0CaCEohkqsaC0jnxSvBFVBcjhi99in8Rvs7ABaDKj2NkIm7QtRKjWDx76jlt48jpnEB5ZASSJDFmf4ZGZ9YXQ9DdsGfVKlpOnswVXsZLBoqmLORaIDezCSRJhM5WhyueQQzUAZiCeqHMRGQYr0VUT7jL8pcjKEMQWyYv+3ieccA2tNvTNfDM3Yi/qcOPY8g3Bf7eiHVG+89rEpCtcK3UiNo0e8IQdBd8et993Pr557pksNceLWgIuYFa5FrgZGAT6sLq8nvxFOo8p0hEpcUSlJcXBbrhiUENcYhrjFLRc0Wi87vygcANkaMzgUDpjUa4CLpZbwNCCUmS+HjMGH6nk5iPR+xFpSOy1S9iiLmB7/RBiPlUxJ60r2Ke6jzG9YgbS7V3/DanHaMR720lne83IdqS/kblOQ2UkYkI89/qxzEWIyKI/8+PY6QCH/nxem98hLL3XbhgeOhOHA4HqX37Mvr06aCfu/ZowdEYgyjCGal5c4716UNFfLz7NTYbV2VnY/axoiITuBywoL7lphymD8RFIRJYifc9d7k+2t8kKwP3yF7xGdQnRSYiklj9KVMLxlhcJe+jcPHQDUEHqi9cYOc11zA+yCVpmYi9xnOI/Z7VGK07w4W9/fuT168fjl69MPXqRasePejSqxdt27b16TiZ6enkHjlC1NtvM2bXLo9rewBnUS/m8pjLQGJC2X6+vJ++CqNsMRBE4V/bVzmz3Z+9c/kYgcaEuHHxlP1vCHqYYLFY+GngQIYH2TOvnbD0Z4xpUo2Z4pgYUocNo3TkSNoOG0afoUNp2bKl5uc5OmwYI06edPmcv8MwApGU5AklQhCHGDLjz/6sQUNk73w76h2IPoitQX8y24Phnct4e7+Fi6A36cYyFouF/fv30+Xbb1m9cCET3nsv4LXmtb3yIYhabL3rgA1850ivXmTcdReJEybQ7+qrg5LAlTd+PLgQ9LsRF0a1XQL7EFwxByEo7fDcke5lxGS/R2h6pWyBZAUiWVKtmGcibh5H+2FDKsETcxA/c1N4DzVZD72qqoo9e/YwZMiQS49lpqfzy0svccsXXwRE2BcjLlBgeOWNkbPduvHL/ffT9o476N2/f9DPn3rHHdy6fXudx+SyoTtR17wmmF5SfUx4z2bXwhM0qEEL71yLY8hVGMHE0/ZNuHjoTVbQt2zZwtVXN+zpC3Dw+++xP/UUN/z8s2bnk9/AScAuDK+8MbH3gQdoNn06vWrd/AWbbStWcPuTdWse5GYcbYDzKo4ZyHIhpcTiOalqJyKpyUgW9R/5/TIE/9rsapEMF0HwWwzfDGxw85wh6I2YjRs3MnLkSK/r1v3jH4ydP59uFRWqz5UK3ITIPL4D/VuAGiijOD6eA9Om0WPmTNq0b6+rLfu/+46hv/1tg1LKzoiWoafx/QZRnowVCnjLQpbHfHpLbDLwjJxnoeb9IqNFMpxeN5Kebh7DRdCbXB36tm3bFIk5wB2zZlG+fz//vOkmVedaTM0+078wxLwxUJyYyKZnn6XsyBGufv553cV814YNDJ08uYGYP4PY9/4z6i7OD/ttmXZsRwiFO5Y7v08OvClhy2LE1soU/IsOLnd+f86PY3zhx2v9oZLwr0lvUh56WloaLVu2JCYmxufXbli2jJFz5ij+MNyDSHgzQuyNAykhgZ1PPEHyo4/SvHlzvc0B4Ku//pVfL17ssslRFCKpTE2XL7kkLJTwNphlHEL0jb1035H7E2hRMdAZIYxqjxOsUjV3PI3rREzDQ29klJWVYbVaVYk5wC1Tp5KXmsqa3r09rstEhLa+RCQqZWOIeaiz5777yD50iEGzZ4eEmJ8/f56Nd93FRDdiPg7RhGi1imNvIPTEHIT36MlLfxHRee6R4JgTVtyI2PL7t5/HyUREhcb6cYw3/LTBX1xNQwwnmoyHvmnTJoYPH67JsT6fM4epy1zvAsUhPjxGFnvoc7ZbN9LeeIOrbrxRb1MusWXNGi6bM4dBhYUun5cTm9QmiSUi2nWqJSEhgaSkJFq1akV5eTnnzp3j4sWLOBz+jPgQePPS+yBukP1JxmpqyPvV8/D/evQM8Cr+Zbf7OlkuIiKCTp06kZSUREVFBWfPnqW4uFjl2UXvelfRhXDx0JuEoO/bt49+/fppesy9mzYx/A9/ICE/v87jdyNqgUN5CpcBbHr2WYbNmaO3GZc4k5bGD3PmMGWbZ//Zn8QmucTNVyIjI5k0aRJvvvmm2zXvvPMOr732GiUlJSrOIPDW0WsRouzT6B6nDHm+uL9Z7TL+lhBmIrrTKaFZs2a8/PLLPPJIw5hMVlYWDz74ID/99JPPNpgQ0a36GILeSKioqCArK4uOHTtqfuyL+fk0u/12uhw9qvmxDQLDL927Y/nkE5IHDtTbFABycnLYsWABN61Y4fVi52+GsRrvvGvXrmzYsIHOnTsrWn/HHXewvV6tvC94+9miEBPctBCocEbeNwfvEY1MxBaht5G1/raLVZrd3qpVK1JTU+nUqZPHdXPnzuXDDz/02Y50Gt40hough/0e+o4dOwIi5gCJbdty9I9/DMixDbTn6/vuo+X27SEh5hkZGaQ89RSxV1zBdAViDiIzPRJ1Yi5PxvKF8ePH89NPPykWc4B169bx9NNP+3imGrxlQA8EtOsOEb6MRGz9bVSw9kvEXHRPpCJyGMb4YdM3Cta0adOGw4cPexVzgIULFzJv3jyf7fjS51c0HsK69Wve3r3EvfkmuwYPhj59aNO7N1369CEuLk6zc9ibNdPsWAaBobh5c/b+/e9cf/fdepvCnp07yX/vPa79+mufErzkdpvqCijhLR/X/+Y3v+Gf//ynqnPNmzeP1q1bq7rYFiF+Vndh9z8jwsgpGGF3d/RB9Cf4F9oNe1ru/O5P6WCul+ejo6P58ccffbo+P/3005w6dYrPP/9c8WsOK17Z+AjrkPu+/v0Zfvx4g8d/7tAB62WXkderF1E9emBLTqZNp0607NiR1u3aKc6Er6io4OxttzHsxx+1Nt1AI47064fj//6PrpddppsN58+f5+Dnn5PwwQfcnJ6u6hhycxU1e+e+lgqNGjWK9evX+3iWhixcuJBXXvHUrd01RthdPXJJoi/bMouBF/BcinY1IjKidv9cSSOjNWvWMG7cOFXHHzBgANnZyoo4XTUyCpeQe9gKet6+fXRU2ECmPlJcHL+0a0dl27ZEJCRgjo3leGwskc2b0yw2lmbNm2OOiiJh3TpGGPvnIcvme+9lwN//TnR0dNDPvWfPHrK+/ZbE//6XcT//7LL8zBf8EbG78R5SlWndujWnNZw8eNNNN7F//36fXuMt2/1q4BhGtnt95D1qX3MsngGW4lnQExGd1tT0PQDv78HRo0ezbt06lUeHY8eOKW4YdiUNP0eGoIc4G0eOZMK+fUE733hgBkYYMFTIHjuW+C+Dt1t24MABTu7cSfSOHVy2axejK30pzvGMv8MwohD7n94wmUzs2rVL04oQi8VCz549sVgsil8TiWdPUC6f2oHnwS5NCfk94kqsvDEOOIRnQTfjvUWvJzwlZEZGRnLhwgWVR65h0qRJfP31117XuSpdCxdBD8s99PLCiwzt4+Cntv0pzS+jRZkVc1kVA86XgaVa8/NlIIZIbEWI+m8RrRGNvtP6ceTaaxkWoGPn5eVx+pdfyNu3D/vu3STv28d4i4XxPhwjJyGGMz3b0OPyDkSYzRzffYYxpwtcrv0CcRFSI+aLUSbmAHfddZfm5Z0xMTG8/vrrzJo1S/FrbIhtAndi/ShC0Jd7WNOUkMU8mcBsQyx2fr/Tj2N4SsicOHGiH0euYenSpXTr1k2TngiNlbD00FMXPsN1pxqWzhRX2TD93wFa2gLzB18ELKAm+SMJuA1D3APFEkSCSxpwHJGwI+/YfnfPPQxVUdIiY7VaOXPmDBfS0jiflkZkWhoRx4/T7fhxBpaWqgqh5yW1pLBfezp2aU2rmLr30icLyum9pmFdrbz//Rg1F1ZfUDoeNTY2lpycHBVnUMZVV13FmTNnFK9316JTJg7oh7GPXlvM1ZaTyfkZ7nxUOVx+BnVdLz3tn2vlncso8dLjgfrdEgwPPYRp8fMOcNHBMyEqkkyTiZYBOu+Tzq8M4CVElumHzq8kYASi4YwRlldGKuKCXVu0K4Fi6o5ejER8SGuPUbnhiy/4ctAgxj/+OAAlJSVUVlZSXl6OtaICysooLymh+MIFmuXmIhUUUHH+PB1zc4nKyKB/VhZ+9xWMMPNzUkvyOydwWY9EureMoYObpRVVri8obyCaYagRcxCZ8Up4st5oVq15++23ufXWWxWv99aisx9CYJoyWoi5jCevLgPxGVPbwnqTh+duu+02lUd1zaJFi7wKepmmZwwtws5DP3f0Jzot/kODx4urbBz+7wmuzVbfNlANsrivB/IQHxwT0BEh8GOAx4NqUeiwxPl9G1AIZAH5iA9c/TBxLGK4RA8gATGKNonQ68iX26EFZzq1JL5TAgM7JSh+3e6fzzFyT3qDx+MQAzHUXLCXoaz3eaC9c5mhQ4dy6pSyW4wkPCdgyV5jUw2uainm8v62u99lovO72oEsnqJE6enpJCQo/5woYeTIkRw7dszjmvo/q+Ghhyin/v0p9VsSHL9Qhv27E1xbag26Pd2pm3G6CFiHSEJZi2hy8CRCsDoDXRB7VVfTOPcHU6jZcpCFGkAu7HMl1lAj2G2AwYgL1RXAULSrpdWa0rgo0hPjyEtsTmJSS/oltaRjpBk1bYzaZTS8XKYgIhK/VWnfOwrX3R2k+vx58+Yxffp0RWu9NcEZg/j8NMV69PGIfJ0hwA9BOF8xNWOg1eDuxqxLly6aiznAtGnTmBNCbZ2DSdh56Lum3sS1zSoA+CG7mMpT+Vx7/LzOVrlnNfBfRGg5nYbhZFno2iLEHhomp2jh4Wfivqyk/uNy6FvG08VXDodDjXfdmpoLRGADvdqyJbE5pX3a061tHD3bNCchSpv74ZMXK+j9xaEGj9+NuPlT6zsoyW43mUwcOXIkYN0UayNJEh07dqSqSlk1szfv24xomOOtZWk4IXu7atv/ukL20NNpmOsj91/353zu2pHOmDGD+fO1H2Flt9tp3769x+Q4w0NvJESeTGdfdiEdc4q5ys2+ZCjhapBLBsJz/wXx4ZVD0dkIId1ab32wRLF+ItjgWv+WPWoIba/aH664pT/tm2vfGbBsp+u6741AL5XH3ICy7Pbu3bsHRcxB3DyMHTuWb7/9VtF6Tx3jZNbSNARd7s1uAd4kMJ95V/3c5cLPASqP6Sn3Y/ZsNaOCvBMREcFll11GWpqSdNDwIqwE/exXXzE8VWkaUOjSHe8fWFn0XZEH7HHz3B0Kzh+Ke9OhwLHMQtr3a+99oQ9s3p/J+LzSBo+n4l+4Xak3dc8996g8gzqeeOIJxYLubWCIv816GgspiD7+1YhEW60/m57m4+U5v6stWXM3OzA+Pp727bX9LNVm3LhxhqA3dnI3bmwy5WFKRN9AW0bvOMXmKhvjB3kfHKGEXT/lMP5H1zuMy53ffW+cKlC6t/rcc8+pPIM6Ro0aRWxsLJUaNd7xNyEs1HkGeA2IAU6iPtPcE562NuRqA7XnzXDz+LBhgeoSIZg9ezYffKDVpkTjIaymrVXt3au3CQZhzvi9GRxaf4S0AvWNR9MKyjny3QlG7XV3uROTqdqqPgMoyVkPVqi9PoMGDVK0zlu72p7UzeUIN8YjGuj0Ao4QGDH3RjYij0ct7koL1fZsV0pSUhLNFA7OKjWHjwyGz08CtNCwB3UgSUGEVA0aJ4Nzikle8xM/rP2ZTYfPcaHCe/fBzKJK9v2Sy4m1P5O85if6u+kKJ5OL+jwEedSlN0aMGKHyDP5x++23a3KcQPWT0JtMRKLaVkQy2gmCI+aubqDyEUm5anFXJPzggw/6cVRl9OjRQ9G6X9q1C6whQSSsQu6Di3yd+KwPDyAy2Y1Oco2bqy6UwYUy2J0OcVEcbBGNyWSqs6ZXlZ0WBeV0Q/nfOAXx/lC7V7pc4bqbb75Z5Rn848EHH+TZZ5/V5dyhTgogN0L9lMDnsmR6ed6KaOKjhlRcN6yJjo6mdevWKo+qnIEDB3Ly5Emv66Lmzg24LcEibDz0okYi5iDKkKYi3uwfIspCEoF7EB/oUGAJIuSXiLLmJE2e8iquzC1lyLmSOl8tVITm30U0H1J7MXeXiFSf++/3NtAyMCQkJOgyAS/UuQfRIjUesV8ejMRUb+OLKlEfCfnezePBEHOAwYMHe12zp317rgxQtr0ehI2gX9y8WW8TfOIDxD7nGYS4xyBCXvcDEQghHY8Q1kCH55cA06kRcDMi4W6n064bA3x+g7qcAFXNaWTyFayJi4vz4wz+06mTNomFwe37GBhSEZ+7LxENcy6iz365O9TKr7sby4EDB6o1xSfuvNN1br4cQysxmbhsx46g2BIswibkXpzhPsEolKnfSW6182sPNRPcZOQynSHO78k0rA/tiOictYSGyJ3bihE3EvW7tsUCnRCewmTCs5a8MZCLsvJCdyiJVbVp08aPM/hPt27dvA5rUZLBrn2fseAiZ7FHEJwQuyfq11vIjsQYlccrdPN4q1bBKTjs2rWry8fl98xPs2dzbXJyUGwJFmEj6GVZWXqboAmuGs0sQkxDKkS0jP0RIcZb3RzDUyBV7jwXg2gMMwJxg9AU687l4S/10bPtrrx/rvYiqnTLplcvtS1rtGHQoEFs2+Z5cyCcM9gzEZGvNMTn70v098rrR3bchcyV0rD3oWDMGLXvbt8wmUxERUU16ExYBNzXqhWrFi4Mih3BJGwEfcuZMyzG+4WwMQ5Ckae4ucNTkxkIzc5ttXu+uyIP7xO3fvTyfP02ur6gZWtNX1jl/K62+5mnyVa16d27t8ozaIPS0rVwZDEwF5FLMw/Qvvmpcv6jYI3a7R93kzPatvWnINM3oqOjXbYaXq+w/XBjI2wEfVtxMVvxnuQhC2MUIsP8LRp/hnljaDKzGDEr/pzehijkI/QR9MP41wHtsMJ1/fqpzV3WBiWC3tPL856msYUitb3yJGAX+nvlFg/PyV3i1Ebv3EVYglkumZiYSGlpw06MFRUVQbMhmIRNUpzNpqTytoYqhPj3RCSDGQSGxYiEn9k0HjHXk2y8C5knjitcF4gpV76gxEvzll2tJPkvVHgG8Xc9hfDKs9FfzOtT36P2FiHzhKdyuGC+91q0aBG0c4UCYeOhq0VC7EVHAQ8B7+tpTBiRCvwGZQlaocgUnc5bCVzlx+vLFK4bMEDtuA1tSExM9L5IAd4Lk/QlFZGkeo7Q8crdoWXOgrdIabBoauWRYeOhR0b6d29iQ9SERyHupg3UkYoY8Xg9jVfM9do/lydT+VMmqDROlRwC2b1KW3O6I9TfX/cgxgRfQExIC0Wv3Nu2hdqrap73JUHBk6CXlHgaS9M4CRtBj4iI0OQ4NkT/5EQ8j/4zqEsmIjv8esQeYWNFLzEHcRH0p6HMMg1tCQb+3oSD+ilggWQxEIfwUkcjmsSEao6Lt22LeJXH9SdcryWeBN1VslxjJ2wE3d+7/foUIfZ9Ewmd7m2hSCYiB6EncFBnW/xFTzEHMVnNn2kEvgwONofAQAp/BD0UP5OZiOjUbERp6HZgC6HnlSvFn0l2oeL7RkVFuX3OEPQQJlCJFkWIuu4+GANV6nMPQsi3or48LFTQW8xl/Ln4++IVWSye8ptDg5EenpNLFkPFQ5dvatMRSW8XCb1SUSXUvlHyZ0/dc8ug0ECLCFGoETY/0cCBA1m9enXAjp+GCCcnA//Fe6nbM8DSgFmjPUMApc1zpyMGgPhWVxC6hIqYBxOr1UpMTIyuNkiS59vADh6e2424eOnt/T4DvI6oKR+N+FzobZMv1M9sD7dKFLvd7va5cEyYCxsPPVjtBNOoKXXzVJpxISjWaIeSBKPFiKTBDzHEPBRx15nLFVaru7YfwcPTxRY8NzQ5BOg59FIux3zVacc2Gmd4PVDd+EKlx76ncma9b2gDQdh46KNGjQraueRSt56IznSuPNsPCB+hWAy8QOhnFftKOIm5r+zfv5/bbrtNVxu87WF6Sg4sRp+StVTgYcSNfStE9nqoJrzpSahswXl6jxkeegijZFSe1tSuYZ8e9LMHnhRqmsIYYh76+PI3ysnJCZgdSvHmobtDnrMdzP1zOeHtesQ++VTEPnm4ibnSToOe8DZj3VXntkDRGHJFtOT/AwAA///t3X1cVFX+B/DP5SlRgbG1MtCYSguqBV0L2zQGEXe1TVBsezSmtHbNEhJ319LSwp+6ti0FZtaW/sKHLH8bNphr5UNAW4ZbxFCGabaDimZaDoOiIHB+f1zudWaYuffO88zl+369fCkzd+4ccLjfe875nu9RTUAHpDMafcl6DbsafsGFteR3Q32BHFBnMHdVoNfgms3SnyypocM3uv/2R0C3XsVxEPxnpx3q/fx4Y8mpXFGZmpoaL7yLMj/84HjHiGBY5eELqvqu+vbtG9D37wC/bWmormG37oWE8lpyKWoN5q6uwPDnRdWRjz76SPJ5qfXPVeCHu305X20dyKvAJ7x9D3V9dpQs/fPFNiqHDsn14b3nzJkzDh/v39/dFfbBTTVz6ABw1VVXoba2NtDNENewzwe/HjVUeLI7WbDjwJdzVdMF2ZqrW13+/PPPPmmHUvv27ZN8XmoC7SD4AOsLh8CXgBY2dg3FzHWllGS0u1MvX66WQmNjoxtndc/Zs47T/gI1mutrqgro1113XVAEdMFZqHtP51DBAXgTvXPPd2e+/96TEjae+/TTTyWfH+DkcWG/+Jlebk9vCuS+Vi/z/FdffeWXdgDOk+Iuv/xyv7XBn1QV0MePH4/169cHuhkkiMgF808AfOG/5tiYDO9t3Vslf4iNQM+hm0wmyed1Th5/C56Vx7X3CYCnQYFc4MrSR3f5a8j9448/dvrcJZcEctGj76gqoN91113Q6/WBbgYJEkp65rf6qS2OPAM+U9obTrl4fGdnJw4cOIBhw4Z5qQWuOX5cevsOZwlvNQCu9sL7Wy8/49C7ArlwE2vw0fnlbhVPnPBPlY7du53XTrzxxhv90gZ/U1VAj4yMRExMjF+XRZDgpHSYfSMCVx1rSoDeV7Bx40YsXLjQ7+974sQJnD9/XvIYZ4FVeqBeXgmA58D/n0eAT5J8SuL9QsUmAEI+97tWjwslctvgv+k/ubKv/hodkuqh33zzzX5pg7+pKqADfAlYufk5om6uzJn35nn1Xbt2BSSgl5RIrwGRqvnobuCdDz6Yn+0+fyisdijt/vs4LtTpP4ILiWqn4duKjdHw3U3Atm3bMHHiRB+dnfftt986fW7SpEk+fe9AUV1AnzRpEgX0Xqy3JsC5M/e5f78n+2m5b9cu6V0DfFEiajeAeACPInC1Ig7hQu/5a1xYGvotLgTOYFppcht8t3x1+/btPg/oP/30k8PH+/Tpo9p16FxnZ2ewfH684syZM4iNjQ10M0gA9NZgDvC1D9wpAlRbW4srr7zS282RdOmll0oOuT8BfitZtRgLxzdcwVi0SQe+Jr0noiA/cjBs2DDs2bPHw3dyrrq6Gjk5OQ6fGzp0qGTvPZSprofer18/XHzxxQFfZ0v8qzcHc0/87W9/w8svv+y399u6davs/PndfmqLv3gSIF8HP7QuRS657Rz4UQA518LzYA4omwb47399u8HqunXrnD6n1oQ4QIUBHQBuuukmfPDBBwFtgwbAlwitZJtc2CbUhAoK5u7bvn27X99P7uYhAkCKf5oSEh5ScEwolpvu6OjAZ5995rPktE8+cV478e671XbLeIHqhtwBYMuWLZg82Z9bN1zAAcgBUB6Qd/fc2+ArqoVKQRwK5jx3h9wB4L333sPo0aO92RyH2traEB8fj66uLqfHXA6gyerrXPAbIJHgEw0+u97+k6N0dnrChAnYuHGjdxsFoLm5GVqt1uFzHMdJbqka6lSZGTBp0qSAlPaLBh9cQjWYA3xgPANgeKAbogAF8ws82X96/vz5XmuHlCVLlkgGc4DfS4CEBoaeCXxK6sMLKisrvdcYK4sWLXL63ODBg33ynsFClUPuADB69GjZDSC8SSqZpNTJ48FkEIA7rb6uBfAigL/At0tj3BUN4BuE1pSGL3kyzPbVV1/h6NGjiI+P91p77DHG8Prrr8se12T3dSjfHPdGrkzgnDt3DgaDwWnymrveeecdp8/l5uZ69b2CjSqH3AGgqqoKmZmZPn+fCPCFKhzNYx0C8GsErnCJq0agZxnURgC3ILi+BwrmPXk61Jaeng6DwVe1w4DnnnsOy5Ytkz0uAvz2pCQ0uTr14+1s923btuHee+91+vwPP/yg2rKvgIoDOsDX6/VltvsV4GtAOwosmwBMQ3D2bqVEA/hf2PbWASAfwEoEfo0sBXPHPA3oHMdh7969Ptu0IiEhAa2trYqOnQzqmYcid5JqOY6D0WjEkCFDvNKGMWPGYO/evQ6fGzJkiOweAqFOlXPogqVLfbOaNRpAMQATHAeWqeCX3oRaMAf4ZLi7wX8P1krBb4vojTra7tKAgrkjru6F7ghjDHfd5ZtshIKCAsXBHOCXYUnXkiPBpgTurZBhjOGRRx7xShuMRqPTYA4A9913n1feJ5ipuocOAKlJSThy4IDH5/kFgF+CT8Bydtk7BCALvquu5G8a8LWg7XcEawTwP+C/T3/szqQFkIfQXJ7jD2Ph+m5rzrz66qu480778Rn3NTQ0YMyYMbLJcI4MBf85815riLcJ285WenAOjuPwn//8B1df7Vl3YeTIkU63BY6KinK6N7qaqD6gt7a2ovrqqzHxxx99+j6bwO/epLaPDAdgHtRVuUtNNgG4B96bComIiMBXX32FQYMGeXyurq4uXH311TCbg7EmmnNSteRDwUAA/sjlroP3qt0NHjzYo33S165di4KCAqfPZ2dnY/PmzW6fP1SoPqADfDblZ3ffjRu3bkWMGz0FOQ8DWIPAzy/70ggAm+G9/buJ50oAFML7n7sBAwbgwIEDCA8P9+g848aNQ21trZdaRdRuzpw5bm0WdOrUKVx77bWSFQgPHjzodG26mvSKgG7twGuvofVf/0KzxYLPDx/G1oMHPTrftwiuDHBfigAwJtCNIAD4fcF9ORqUmJiIuro6+QOdyM3N9euyURL6OI7DunXr8Lvf/c6l1yUlJeH48eNOn58wYQK2bt3qafNCQq8L6PZiY2Nx5syZQDeDkKAzcOBA7Nq1y6UM5La2NowdOxYNDQ0+bBlRK47jUFlZiZQUZQWAhw8fjsbGRqfPh4WF4cSJE9BoQn0iRRlVZ7krIVXEn5De7OTJkxgxYgSef/55Rce/9dZb0Gq1FMyJ2xhjyMjIwKuvvip5XGNjI6666irJYA7wVUN7SzAHqIcOAJg2bZpPagoTohb9+vXDnXfeidmzZ9tst/rzzz/jxRdfxIYNG2iHQ+JVCQkJmDt3Lh588EHxsdraWixduhQ7d+6UfX3//v3R3OxJUeTQQwG923XXXae6PXKnTp3ql003iPccO3YMf/vb3wLdDEkRERGIjo5Ge3s72traXH79sGHDvLb2mPgHYwzz5s0LyMYmHMehf//+aGtrQ3u7sjqCHMdhy5YtmDhxoo9bF1xUW8vdVd98842iIZxQ8eCDDyqqnU2CT2trK1auXBnoZjjV0dGBlpYWt147bNgw7Nu3z8stIv5w1VVXITc3F4z5tw/IGHP58zZjxoxeF8wB6qH3MGTIEBw9ejTQzfDI3Llz8dxzzwW6GcQDY8aMwe7duwPdDK8aMWIEPv/880A3g3hg8eLFeOaZZwLdDEmjR49GdXV1oJsREBTQHbj++utDshfBcRw2bNjgsxKexL9uuOEG1SSYzZw5M6hHHYhyjz32GFatWhXoZjj0y1/+0qPllqGu12e5O7J3717o9fpAN8Mll156KWpqaiiYq8jXX3+N8ePHB7oZHomKisLrr79OwVxFXnrpJRQVFYHjuEA3xcZtt93Wq4M5QAHdqTVr1mD37t247LLLAt0USWFhYXjooYdw7NgxjBw5MtDNIV72/vvv4w9/+EPQXTyVGD16NI4dO2aTpUzUYcGCBdiwYQMiIgKfhhUWFoaVK1diy5YtgW5KwFFAl5CWloajR4/i1Vdf9dm2ku7q06cP7rvvPpw4cUJ2zSYJbatWrcLBgwcxZsyYoA/s4eHhuPXWW1FbW4vq6upetQa4t7nrrrvQ1taGvLw8j8sEuyMsLAwTJkzAoUOHMHPmTL+/fzCiOXQX7N27FytXrsSHH36IH3/8Ea2trX7L+Ozbty8uvfRSpKSkYNq0aZg61X6DU9IbmEwmLF26FNXV1Th8+DDOnTsX0PZERkZiwIAB+NWvfoXf/va3yM/PD2h7SOAsWLAAH374Ib777jtYLBafvEd0dDSuvPJKjBkzBsuWLaMbRjsU0AkhhBAVoCF3QgghRAUCn9FACCEhrKupCed37MT57dvRdaQJXU1NAICItDR07NmDiFFpAIDw5GRwsbEIS0hA2OAE/u+EhEA2nagMDbkTQkg3ZrGgq6kJ4cnJssd2NTXhXOlLaC8vFx8TgriAi40Fk5lPDkuIR9/ly8XAT4i7KKATQnq9jpo9aC/fjM5vvkH/DevAxcZKHn9++w60PvGkbLCWEpk1DlG5uYgcn+X2OQixRkPuhJBeq6NmD86tWIGOmj3gYmIQs8UgG8w7avbgzKxHXXofLiYG4cnJiBiVJv4t9z6EuIp66ISQXqerqQmt855AR82F4fH+69fJDnsziwWWseNke+bhSUmIHJ+FiFGjEJ6cRMGb+AX10Akhvcq5FS/hXOkKm8eiF8xXNId9dslSyWAenpSEvs/9VdEcPCHeRgGdENIrMIsFp6flodNuw5uo3Cm46AH5vRuYxYL28s1Onw9PSlI0/06Ir1BAJ4SoXmdDA05Py+vRuw5LiEf0gvmKznF+xw7J56OfWkDBnAQUBXRCiKo5C+YA0Hf5csVB+Px224AelhCPrqajAPjeudJlZ8K69a4jR2xGCyJGjUJU7hRam07cRgGdEKJaUsE8MmucS2u/maVF/DcXGwvWclr8Wsl5zm/fgfbNm3vcGAg6avag/Z13wMXG4aIH9IjMGkc9fuISynInhKiSVDAHgNjKXYp7w50NDWjJnuz0+b7LlyEqN9fpa88uWWqTUe8IFxMD1tJi81jk+CxEZmW5HNyZxUI3A70Q9dAJIarDLBa0znsSXEwMuJgYsRyrICItzaWhbftgbB98wxIGO3ydo4x6p21uaQEXG4uItJtwfsdOcDEx6PisRuzRC+vXI9LSEH5dMv+9dQdtZrGgc98+MEsL2svLETVlChWs6YUooBNCVOdc6Qqb+enwpCR07tsnfu1qmVX7YXL7nrS9rqYmnHnk0R4Z9dbCEhJ63GgwiwXnd+zkv+A4RC94EudKV6Cr6ah4rvbyzYjMGoeuI03o2LMH4cnJ6GpqEnvlkVnjKJj3UrTbGiFEVTpq9qB987s2jwnBPCwhvrunO0rx+bqammzqszs+5ggAPiCfW/ESLBmZksFcOK/QJmvCyIEwymC9pr2zoUEM+sL3JDzGxcYiaspk9F3+V8XfG1EXmkMnhKiKJSOzR89XEJ6cjM6GBkTlTlEc+M7+zxK0la2VPS5iVBo6G/Z5VN/deiRB2NhFGFYPT0oSbywczbe78j0RdaIeOiFENfjhacfBHIDNsLWSIN1eXt7jOGfJZh01e2yCORcTg4g0ZUP74UlJiEhL655DT+MDdve5hL9tlrjdfGGEgd+tbRkFc0I9dEKIOkjVWbdOHrPu3QoJZuHJyQgbnAAwABzE5LLz23c47A3LCUuIB2s5LSa4ORKRloaoqVMQmZXl9CaBH05vQUdNDSLHZ6HtjbIL31NMDCJGjaL5ciKigE4IUQUlQ+OOEtGsH7NPngO6bwYYE7PQBcxisSkuI/c+4vliYtBv1cu0/znxOgrohJCQJ2xpKvTOhflndzh6raPHHAXz8KQkAHzCm6NefURaGqKfmk+btxCfoIBOCAlpzGJBS/ZkybnzYKFki1ZC3EVJcYSQkHZ2yTKnwdyduujWr7H9d3yPY8OTkx3Ofwuv42JixMdcLTVLiKuosAwhJCiYTCYcOnQIlZWVPZ7LyMhAXFwcUlNTbR4/M+tR8d+OktesA739sLmz+W/r13Q1NYGLiUFYQkKPuXUATteaC+ewbo+z0rCEeAsNuRNCAsJsNqOiogIGgwFVVVUwm82yr9FoNNDpdMjJyUFeXh66mppwrnQF2ss3i2vMpQjJauHJyWAWC1hLi+xcu3WhF7lsd+H8PUvDxiO28iPZ748QT1BAJ4T4VVVVFdauXYuysjKHz8fFxYHjOKSmpsJsNkOj0QDge/BxcXGor68HwAf3/Px85OfnI+bYMZx5ZJbDHrcULjYW4clJ6Gzge9+OgntYQjyYpUXMcleSbGef5d5n9mPokz/b4bHWiXyEeIICOiHEL4xGIwoLC1FVVeXweY1GI9tL12g04rA7YwzV1dXQaDRYvXo1sseOxdklS9FevtnpcLorhF62pxnz4UlJ6L9hncPnz614Cay5GdFPLfCkqYQAoIAeWk6cACoqwO3fDwBgSUnA5MnAgAEBbhghzpnNZixevBglJSVeP7fQi29sbERBQQH+/ve/o3XeE+JQutSWpc6Cvv1weeT4LJzfvgMRo9LAmvldzcIS4sHFxtkM8TsaZudiYtF/w7oevW9mseDMrEcRlpBAFd6I11BADxX/+Ae4uXOB1lbbx+PiwF5+Gbj77sC0ixAJRqMRU6dOhclk8un76HQ61NXVYfLkyVi9ejVa5z2B9vLNDo8NS0hAeHKS0wpuUsT66g5678Iwu3Cj4GzNuVDRjovpj5gKAw21E6+hgB4K3n4b3L33On8+LAzsX/8Cxo/3X5sIkVFWVoYZM2b47f00Gg3i4uKQkZGB1atXo2VSjsPMdHtcbKzNnunWQToqd4pN4BeWoVkHbvtzAUDUlMnokz/bYc/89LQ8dDY00Jp04nUU0KW89x5QVyd9zLx5QGSkT5vBDR0K/Pe/0geNHAkms8UjIf4yd+5cnwyxy9FqtWCMIT8/H7PvuAMtk3JkM9Pth8q5mBg+Y37fPnAx/R0OywtZ8mEJCeKwe1hCAiLHZyFqaq7T9e+np92Pjpo9iEhLczqvToi7KKBL4B56CPjf/5U8hjU3A/37+64Rhw+D02oVHcosFqBfP9+1hRAFZsyY4TSD3R+EoL5z504MqtiCcytekjzePunN2WYsjuq8hyXEo0/+bESMGiVbxEaoNc/FxiKm4l23it4QIiW0Css0NQHbtoGrrQW+/ho4dgywWIC2NkCjAS6+GBg0CEhLAxs1Crj1Vt8GW39oa1N+7LlzFNCVWr0a3FdfyR7GMjL4xEO1OHsWkJvPHjTI7UTLkpKSgAZzgF/elpiYiKKiIqxZswZtb5RJ9tLtM9itN2Gxfs7R8H30ggWKdjuz3oY1LD7ee8G8N14TiVPBH9A7O4FNm8C9/DKwezfAnAwotLQAhw8DRiPwwQfgAP6De/fdYH/8I/CrX/mz1d6j1fK/mHJFN4YMAX7xC780KeS1tYH7y1/kf6YAuB07wNQU0D//HFxGhuQhrKQEeOwxl09dVlaGuXPnutkw72pubkZdXR1MJhMGPaCX7aULhDlypcvUWIv8cW1la3H2f5aIX1/0oF7RuZ3q7ddE4lRw13L/17/AXX89uGnTgE8/df7Bdeb0aeD118HddBO4++8Hjh/3TTt9KSIC7PHHZQ9jf/6zHxqjElu2KArmAICGBuCLL3zbHhUwGo1eD+aJiYnIzs5GXl4edu7ciS+++EL8d3Z2NrKzs52+VihIU1RUhIse0LuUfGa/9MwaFxtr07uWypTvbGjAmUdmicE8YlQauJgYz0rA0jWRSAjOHnprK7hZs4B1XkwaefNNcNu2gb32GjBlivfO6w8LFvBJcc6GMh9/HHj0UcfPkR64DRtcO379erCRI33UGnWYPn26otKtSqSnpyMjIwONjY1IT0+HVquFTqdDUVERFi5cCK1Wi7q6Ouj1ehiNRjz77LOorq7ucZ76+no0Njbyc+TNynrcETePQuc3DWLGu31CHLNYbHrv57fvwOlp9yNi1Cjxsa4jTTi/Y0eP5WwdNXvQZ7brIx8A6JpIFAm+gH78OLicHOA///H+uU+dAnfnnWDFxcBsx2UYg1JYGNiaNcC0aeA2bgT27wc4Drj2WrC8PGD06EC3MHT89BPw/vuuvebtt4HnnwfCw33TphBXUlICo9Ho8Xni4uKwZs0a5OTkALgwhH/y5EmYzWaYzWZouxNEhw8fDqPRiNTUVBQUFECr1cJgMKC5uVk8n9lsRkpKCgwGAyZMzcXZJUtl23B++w4AVkPvTubehV66EKitC9gIe6ILhJuDsIR4XPSAG8PtdE0kCgVXQD91ClxmJqBg7ajburrAPf44WEcHMGeO797HFzIzwTIzA92K0LZpE9De7tprjh8HPvwQmDjRN20KYUIVOG+wDuYAoNfrUVZWhsLCQrFuu0DosWs0GhgMBhQXF0Ov12PcuHE92mc0GvG7305Q3I6whASHm7ZYB3mpvdetk+esk+uiFyxwvYgMXROJC4JnDr2jA9wdd/j2g2uFmzcP2LXLL+9Fggf35pvuvW79ei+3RB1KS0s9HmpfuHAhTp48CaPRiMzMTKxdy2eDG41G6PV65OTkYO3ateImLQKTyYTKykpotVpUVFSgqqrKJugDwKFDh1BXV+fSHHpXU5PDpDjW0qIoo916j3RhiL7v8mWKXmuDronERcGzDn3JEnALF7r+urAwoE+fniVRlRg4EKyhgV/a4YDb69D/+18+YeX778FZLED//mCXXQZcfz1wyy2uD90eOwbs3St9TGoqcMklto/t3g2cOePae8nRaIAbb7R97JtvgKMyG2FkKbyYtbUBH38sfcwVVwDXXKPsfNYOHgTnzusAoG9fsGPHXF/yo+T7ufJK4OqrlZ1Pyc967Fjbz5jRyO8DAABff82XEJYyaxaYVU9ZlJ4OREWJX5rNZgwdOtSjgJ6dnY3y8nKbcxoMBpSVlYHjOKxevRpr165FamoqSkpKUF5eLia7mUwm6PV6PPvss1i0aBF0Oh3MZjMGDhxo1+x07Nq1C82/ulEcQueT3Thxq9Pw5OQeQZ9ZLOhs2Mf/bRVUI7PGKS4bG5YQj77Ll7tXES4Ir4mSGhuBykp+OejJk/xImEYDds01/HI5+zyU1lb+OinF2e+GJ9eJ774DPvkE3Pffg40fD4wZI32eEBIcAX3/fnAjRvDrqJWYOBHsrruAzEx+jWV4OP/h+OILcP/8J7BmjfIP89y5YM895/AplwP6xo3giouB2lrnLxgwAMjLA1uwQPkys3XrwD3wgHQ73n0XmDTJ5jEuJUX+RsBVOh2Y3V28op9TZ6ey8ysppDNnDtjzzys7nxXu2WeBoiKXXydga9YAehfnQJV8P08/DfbMM4pO585NJjdlClBRoej8kuc9cgS4/HLx65KSEo8y2/Pz81FXV4ddTnqFmZmZ0Gq1aGxsxDvvvAOz2Yyi7v8/vV6PkpIS6HQ6NDc3Y2F34DMYDDCZTDbtSklJQW1tLU7fdz869uyxqcce/dR8xVnnnQ0N6DrS1D1vXgNmaUFX0xEAHAAmJtBFpKUhbHACIrOyXO+VC4L0mujQzp3gliwBqquls+6TksCeeAK4/37+64YGcDfcIH1uZ78b7lwntm3j27l7t/iQu0s0g1VQzKFzixcr++DGx4OtXcv3QOz17QvceivYrbcCf/kLuAcfBHYquIteuZJPBhkyxPWGCxobwc2cyc+zyjl1CigpAVdWBlZWBtx+u/vvS1yzcaNHL+c2bABzNaCr2IoVK9x+bXp6OoqLi8XtVHU6nc3zZrMZGd3r5XU6HTIzM7Fo0SKkpqZCo9GgpKQEBQUF4hy5wGQyYfjw4TbnEobqwwYnAHsgBvP+G9b12DhFSnhysni8W8ltLgiJa+KpU+D++EfgnXfkzwkA+/bxHZM33wTz5xRWezu4wkJg1Sr/vWeABH4OvbGRT1SSc9VVYB9/7PiDay8hgd+sRGKdqujcOaB7zs4thw7xhTqUBHNrZjO43FzZ3hbxkt27gQMHpI+R66l99BFfmYvAaDS6vYNaXFwcOI4DwPe0DQZDj2MMBoO4g5pWq0VtbS1ycnJQUFAAvV6P8vJyJCYmwmg0orm5GdXV1aioqADHcaioqLCZbxeWtHUdufB/52gXtKARCtfEw4fB/frXyoO5tQ8/BJeVpbwWhCfOnAE3dmyvCOZAMAT09euBjg7pY6KiwDZt4qumKRURwd+5XnGF7KGckl8eZ6/NzgYOHXLvxZ2d/NpSXyxHITZk154PHswPz3UHGoe6ujzu5atFZWWl+O+4uDiXXltcXAydTgeDwYDU1FTUdW+AZDabUV1djbVr16K0tBQAUF5e3qP3LtBqtcjPz0dcXBwYY6irqwNjDNnZ2bjC6vfevn0eF3fxtWC/Jp46BW78ePkbZCn19eB8vUyOMX5E4LPPfPs+QSTgQ+6ckrm9wkJgxAjXTx4TA/bGG+A++kimERw/v9S3r+vvIbcLmpz2dnB5eWBff03rnH3l/Hng//5P+pipU4HERODXv5ZM1OE2bAD705+83MDQU1VVJf6bk7oJspOSkoLhw4djwIABKCwsREVFBerr65GZmYnhw4cjMTFRDNTOArk1jUaDnJwcMYkuNTUVOp0OGRkZqK+vBwCkpqbavCZoe+bdgv2ayD30kGfBXPDll56fQ8r69XxyXi8S2IB+6pR8Wc2oKDBPkhZ0OjAFF4aA2r+fH7q6885At0Sdtm2T/cVmd9zB//3734OTyrytr+ezxu2CRG9T0R10UlJSxMCplMFgQGJiImbPno3m5mbs3LkTlZWV0Ov14nB5jqMseyeEIG4wGGA0GsU/9jq6txcOT07q8VzQCPZrYkUF8O677r+3P/WyYA4EOqDX18vXIr71VpvM2qAWHc0vzRgwgP8w1dYq3i2Ne+UVMG8H9Ph4vnazEm1twA8/yB/n4vBqMJAdbh8yhO+ZA8AddwBz5/LD6xLnY6EU0GNiLqyo6OgArKqpOdSvH7/syV4YP0Pn7jK1xMRE1NqtAMnMzIRGo8HixYthNBqh1WqRl5fn8rnNZjP0er3YqxeS7QD0SJLr2BPEU1xBfk10eRldZCQwcCC/A5y3l9CSHgI7h97QIHsIC4U1ghERYIsXg504AVZVBfbuu2D//jfY8ePAE09Iz8sKdu9WvkRFIfb++2Dffy//5+BB4Oab5U94+eVg3XObIcNsBt57T/qYqVMv/B/Fx8uvS33rLcmAH2zY2rVgP/7I/3GQgNbj+KVLLxxv9QeXXQYANr3fZrmbAytCr9tsNmPt2rWYPn06tFotysrKkJ2dDb1eLxnMTSYTKioqZG8oysrKxDn+uLg4aDQasTRrVG4uwgYn2JRqDSrBfE2sqgIUbDkMALjlFrCtW/mKe0eO8AV2vvwSePhhmlr0ocAGdKHYhZShQ33fDg+xsjJg/ny+h24tJgZsyRKwlxRs3djeHrDkOO7pp+WH0aKjwcrLPVveFwj//KfsjRL7/e8lv+6hqYkqanVLTExUfCzHcZg6dSqmT58OxhiKi4vFcq8ajQZVVVVirXZ7RUVFMBqNYIyhqKioR1DXaDSoq6tDSUkJcnJyYLGq9KbT6dBRUwOA35f8/PYdODPrUbFue1AJ4msiJ5eHIsjPB6uuBiZM4HvogpQUsFde4a8j9tdKfxg8GLjtNn4d/MMP83/k1sGHmIAGdE7JnsPuVCzyp9tvB+6+W/qYmTOVVSNycxmQR956C1i2TPoYjuOLqqS5Ue0qwGRLvV5xBWC1UxYAvscu04vgvLnrVYgRstIB14bfU1JSsHr1apSXl0Ov14tLy4QCM85uDsrKypCYmIgZM2Zg6tSpyMnJ6TFHLhSgGT58uFhcBuBvOHQ6HTrter7MYsGZWY/i9LT7Zau+CRuw+ENQXxN3KLgBys4Ge+EF6VHJ22/nC7r4yy23gH38MVhjI9iWLWBvvMHfWLzyCtBd60AtAjuHLrc0A7ApNRmM2LRpyo67/35w//639EGnTnmhRS74/HM+Y1UGe/bZ0EzYa2zkq1dJsR5uF1x2GV/mVCoT+N133V8ZEeKsh9nt66s7k5KSAr2TojxCEpyzrHaz2Yyqqirx5qGurk4sOiOYM2cOXnjhBcyZM8fmuYyMDDCLxWnQFnZKixiVBmZpARcbI1aSA/i168xiQf8NfrqBC9Zr4pkzfMlUKWFhYMuXKzvf9OnAihXKh/DdNW4cv/4+IuALuvwisEPu3bsXSfr5Z9+3wxNK98lWssTEhflIjx09yhe2OXtW+rj77uP3Yw9Fb74pm2DkbHhdNkHx9Glg82Z3W9brNDY2IjMzE6WlpT0K0hiNRhgMBqfD7dY3EOnp6QBsl6KZTCYUFBTAYDCgvLxc3NxF6J3b9675Ou62Omr2oLOhAR01e3B++w4x0AvB3G9L3YL1mrh/v3yy3siRyvdY4Di+VK0vcRyf89NLgjkQ4B4602ggmy6mJPM6kJQOfymo2851dsIvhfXPneN3cZKrejZ6NNhrr/mjRT4hO9yemNhzuF0wZQpf/lKix8Rt2AB2330etDA0uVpIBuAD8K5du1BVVSUG9YyMDGi1WlRWVmLAgAFOX2symbBo0SLo9XqYzeYeWetCdrzJZILZbBZvGOLi4pCTk4OW7Mk2xws11+WEJcSj36qX/bpuPWiviT/9JH+M0s6N4Kab3GuLUjfcACQF8RJFHwjsrYuC5A7u0089W3Ppa0rv/oIos5N7+GGgO0nIqSuvBPvnP4GLLvJPo7ztiy/4ncmkTJ3q/LlLLuFLam7f7vyYHTv4i+ugQe61MURZB1SlQ+4CnU4nDq1XVVVhzpw50Gg0OCRRbbG4uBhlZWXi0Lz1ewpz6ampqYiLi8PU7v/TuLg4LFq0SOx5uyo8KQn9N6xzff9yTwXrNVHJ8le7Xe68fryrfvlL354/CAU2oCv5gVdW8pW+rLMlifuWL+eHoqXExvK7t116qX/a5ANK9i+Xy2Znv/89OKmA3tnJJxU+/rirzVMNZ8Pk9urr6zFu3DgAEAO6wWDA2LFjxRKwJpPJ4fk0Gg0KCgp6PG42m1FZWYnhw4fDbDajvr7eJsDn5OTg9LT7Xf6eIrPGoe/yv/o/mAPBe01U0iFRWHNDdP68e21RSmLUR60CG9CvvBJISJAe+j1+HHj7bUBh8lkPZjO/n7icoUPVf9NQUQHuqaekjwkPB3vzTe8v52hvV5bM4+pFwZHOTkWbW3ByGa5yc4boHnb3NKC3tys/1hs/Hw9ZJ6+5kuW+s3unL7PZjMLCQuzcuROlpaXYsWMHtFqt5LI1e8Ja9sbGRjQ3N9tsrZqYmCj2zl3NTu8z+zH0yfdxjXEpwXpNVHJz4+rGRb7e6CjIE6p9IfDZArffDrz6quQhXFER2OTJNns8K8Xdey/wwQfSB/3iF2Bq30Xr66/B5eXJFkRhxcXAxImunVvJ3fvRo8o2klByoZHz4YfK5hm9ERxra/mh/euuc/y8kp+NK99zkOSUCCVflQZ0YW5bq9UiNzcX5eXlMBqNiIuLE4O4sHuafe11R+cqLS1FXV2dWCFOKPsKQMyYt587l8LFxKDv8r+6v3+5NwXjNTG+ZyJhD3KreOzb4eLxRF7Ad1tTlOl48CC/766CHpONV16R/+ACfAKUmnvnJ0+CmzIFaGmRPm7mTMCdubl+/eSPUfrL+8knrr+/HdlSr14mObyv5IIrVTveWns78Pnnyo71MftlY0oYDAYUFhbihRdegEajQVlZmc1QulartVlD7ojRaITZbMbChQuh1+uxaNEiaLVaMbM9PT0d+fn5OFe6QvHceURaGmIrdwVHMEeQXhOvuko+n+bQIWDrVmXtOHuW3zyFeFXAAzp0OmXZjm+9xd9ZKu1VvfYauPx8RYcqXUseks6fB3fnncD330sfN36822VdmYK60tyqVfIXn7Y2cK+/7lYbRGfO8BtI+NPGjc6/t9hY+Rue777jN5CR88YbfE1sTygZhlRQgljoRVdUVCBbyR7bAObOnQu9Xo/U1FQUFRU5nBdvbGxEbm4uSkpKYDKZUF1dDZPJhJKSEowbN86mRw/wvXUhES4xMREFBQW4IjISbWUy+3mD75VHL5gfmOQ3KcF4TQwPV1RYipszR9E+59yf/qSsKh5xSeADOgA2f76yAzdtAnfddfydXWur42NqasBlZ4ObOZOfS5Uzfjy/2YFKcfn5fA1mKcnJYG+95X4mvpKlIZ99xpeYdaarC9wjj3i+He077/h/E4hDh6QL2Cj4+XAzZ0rfdH35Jbh589xonB0FiUKSu8110+v14vI1VzLdrXvg1kPrFRUVKCwsxKlTp6DVasUlbenp6WIPPDU1FaWlpeIwv8lkwowZM8Svc3JykD12LM488qhYGMaZyKxxiNliwEUPOC52E2jBeE1kv/mN/GsPHgT32986nx/v6AD35z/zIwXE6wI/hw4A2dlATg6gYOMImEzg9Hrgj3/k7xgHDeJ7QD/9xO+ve/iw8vflODC5sqehbOVK4B//kD4mOhrs73/n75aV3jEPG2b79ejR/E5cchuWLFsGrr4ebO5cfnezqCj+IlRZCW75cpfn4Bzx93C7+L7r1jnfknLMGPktMY8cAXfzzfyF/I47+LrTAN97f/NNcM8/750blUsukT/GYAB3zz1gGRm2yVCTJtlMIRQUFKCoqAjV1dVITExEY2Oj7KmLiopQV1eHNWvWwGQywWAwoLm5GXl5eThlVSnROtgbDAbk5OSI26SWdo8kCUlwwnrz4uJitM57UnKoPSwhHn2XL0fEqCAvYxyM18T77gOeeUb+puDzz/mbjIceAps4kd8ZzmLhbyz+8Q/g22+Vt4e4JDgCOgD20kvgPvuMz+BU4tw5+bKecubPV1bBLURxixfLH3T2LLjbbnPpvMz+F/rii/lSqd07XEnauhXc1q18udXoaOe9CnccPSpdrhXgA5o7/+cffSS9zKa8HHjpJYfbjrKcHHBKalf/9BO4uXP57Vsvuoi/QfL20p4BA/jsZbkynps2gbNbKcD27bO5mcvLy0NRURFMJhOys7MVBXQAqK6uRmlpKRITE8Wa7iUlJaiqqkJ5eTkKCwvFY4WiMUL5V51OJ1aWA2yD+bnSFWgvL3f4nmEJ8eiTPxtRubmK2hgMgu6amJgITJ7Mj4LJOX0aePFFcC++6Fl7iEuCJqAjPh7s3XfBjRvn3Yu8M7fdBvbMM75/n0Dy4xafbNYscEoCuvgC5v3/540bZXsP7LHHALmlew5wt98uPc/d3MzP3TsqGavTASkp/F7XSvlyeZpOJx/QFdBqtVi4cKHYS09PT0e1goAiLDErLi5GY2MjSktLkZ+fL5Z4FYbwTSaTODyv0+lQX1+PgVbFSKyDed9du9C6oueuhqEYyEVBeE1kS5aA27LFtaWWxG+CYg5dlJYGtnmzsnrGnsjK4tdahwXXtx/ScnOBW24JaBMUDbe7ucmM7JaqMu8fTFM77NFHpXfDcsHChQuRkpICs9kMjuNcKgtbWFgoFpux790L68ybm5tRVFSEoUOHosRqlCMxMRGJiYkXgvm8J8XnuJgYROVOQf/16xBb+VFoBnNBsF0Thw0DUzLyRwIi+CJaVhZYZSU/vOMLej3Ye+/5/hektxG2WHWxFGgP7l58v/oKsNtSs4cRI5RvHmFvyhT5ZTsffOA8D2HCBOCRR9x7b8HAgfzUhqdSU4G8PM/P0628vBxxcXFiYRhXgrrQWx85ciSKiooQERGBoqIiDBw4EEVFRZg+fXqPrVITExORk5OD2tpaRBsq0DrvSUSkpSEqdwr6vbwScbWfo+/yvwb/PLlSwXZN/NOf5LeMVuLRRz0/B7ERfAEdAIYPBzMa+SQPL/UkkJAAtnEjH3TUvOY8kIYNA6uoANzYvAMAcM89fIKeGxSVer3jDrfODYBPDpPL8j1/XrJCHXvxRcDdHaZiY8G2bAGuvtq919u35ZVXgO7esae0Wi127dqFuLg4cc7bnQ1clEhPT0dxcTGKi4vBLBZEZo2D5sC36L9hXfAUhvGFILsmsrVrgftdL6srevxxME9vcEkPwRnQASAmBuzll8Hq6oB77nF/SdWQIWDPPAP2zTehuad3qBk9Guyzz/jMd6ViY8FWrQJbv969i1VXF19TXY6CYXMpng67IyICbP16sOeec20f9d/8hv89ULAOWLGoKLBt28CWLFFW1lOGsJtaSkoKjEYjBgwYIG516ilh7Xl2djbWrFmDnJwcAAAXG4uwhASvvEdICKZrYng42BtvgL36qvIdJwEgLo5/nZs37kRa8AZ0wQ038BfBpib+wzN5svTQU2QkcOONwKxZYBUVYN9/Dzz9tFslEombrrkGrLoazGDgl944C15DhwJPPslfWP7wB/ffr7ISOHJE+pgbb/S8d5uTw2fmS6mpkV6WExYGzJ0LduAAv8/8tdc6Pi46Gvjd78A2bwbbts03w63h4cATT4AdPsz/bt17L5CczG/168Ye0qmpqaitrcXChQvFojDCWnJ3CIFcp9Nh9erVKC8vV1zrXdWC6Zr40ENg+/eDFRVJT2dddhlQUABWX+9Zz55I4jo7O/2yBbfXWSz8MiWLhc+41Gj4JTmXXNIri/IHtc5OYP9+fvnN2bN8j3DoUP6XnPDrhQ8c4DPlIyL4n8s114T059hkMqGoqEhcZy4Mw7Puinr1DjL+U1JScOjQIWg0GlxxxRXQarUoKCiQre1OugXDNfHwYT6X5eRJ/vdeo+ELK113nfemCohToRvQCSFBz2w2w2AwoKqqCnV1dWIgT01NtakwJwT64cOHQ6fTicPqhBDlKKATQvyuqrscsUajoR44IV5CAZ0QQghRgeBPiiOEEEKILArohBBCiApQQCeEEEJUgAI6IYQQogIU0AkhhBAVoIBOCCGEqAAFdEIIIUQFKKATQgghKkABnRBCCFEBCuiEEEKIClBAJ4QQQlSAAjohhBCiAhTQCSGEEBWggE4IIYSoAAV0QgghRAUooBNCCCEqQAGdEEIIUQEK6IQQQogKUEAnhBBCVIACOiGEEKICFNAJIYQQFaCATgghhKgABXRCCCFEBSigE0IIISpAAZ0QQghRAQrohBBCiApQQCeEEEJUgAI6IYQQogIU0AkhhBAVoIBOCCGEqAAFdEIIIUQFKKATQgghKkABnRBCCFEBCuiEEEKIClBAJ4QQQlSAAjohhBCiAhTQCSGEEBWggE4IIYSoAAV0QgghRAUooBNCCCEqQAGdEEIIUQEK6IQQQogKUEAnhBBCVIACOiGEEKICFNAJIYQQFaCATgghhKgABXRCCCFEBSigE0IIISpAAZ0QQghRAQrohBBCiApQQCeEEEJUgAI6IYQQogIU0AkhhBAVoIBOCCGEqAAFdEIIIUQFKKATQgghKkABnRBCCFEBCuiEEEKIClBAJ4QQQlSAAjohhBCiAhTQCSGEEBWggE4IIYSowP8DJ+U2dUqgyzoAAAAASUVORK5CYII=;" vertex="1" parent="udLiIxojpCSS-x_ja0xO-1">
          <mxGeometry x="10" y="30" width="150" height="150" as="geometry" />
        </mxCell>
        <mxCell id="udLiIxojpCSS-x_ja0xO-11" value="Mencari permasalahan yang terjadi pada ChizuAutocar tahun 2000" style="text;html=1;strokeColor=none;fillColor=none;align=center;verticalAlign=middle;whiteSpace=wrap;rounded=0;" vertex="1" parent="udLiIxojpCSS-x_ja0xO-1">
          <mxGeometry x="10" y="180" width="150" height="50" as="geometry" />
        </mxCell>
        <mxCell id="udLiIxojpCSS-x_ja0xO-5" value="Data Collection" style="swimlane;" vertex="1" parent="1">
          <mxGeometry x="245" y="-970" width="170" height="200" as="geometry" />
        </mxCell>
        <mxCell id="udLiIxojpCSS-x_ja0xO-14" value="" style="shape=image;verticalLabelPosition=bottom;labelBackgroundColor=default;verticalAlign=top;aspect=fixed;imageAspect=0;image=data:image/png,iVBORw0KGgoAAAANSUhEUgAAAWoAAACLCAMAAAB/aSNCAAAAY1BMVEX///83uugtuOcpt+fz+/7d8/tSw+uL1fG/6Pjt+P1Avuqq3/TU8Pq64/U5vOllye2d2PL3/f7H6vjl9vyi3PN1ze6F0vCV2PJNweqw4PTP7fnh8/tgxOuJ1fHp9vxyy+5+zu87Xl8hAAAPmklEQVR4nO2daYOqOgyGpUVRFBgQWdSj/v9fecGNJmm66BzumZH324xaykOXNE3DbDYLB80mzWb53wKSNyJ4SMQT7FkRDBLRd5Y8l0rRcvmdRf9M/VGAiOY7295cTKiB/ihAxGJC/RcVTajH0oR6NE2oR9OEejRNqEfThHo0TahH04R6NE2oR9OEejRNqEfThHo0TahH04R6NE2oR9OEejRNqEfThHo0TahH04R6NE2oR9OEejRNqEfThHo0TahH04R6NE2oR9OEejRNqEfTj0I9L5btule73OQvlZBv7iUkr5Yw1CW5VSXZOFLzR73dD7U11sUZ9WEOtNKWluxiCRTskoNDdQetlhUsIjgnwx2oNbAUlBdRA+uSlfvnpyeuIC/Uq6JewGvEVXJivuyMeqd+sauFILXYlLGQAn6t+6IUi/XWXONBxTmVmhKa+sajVTlUpoI2VSpwXYSUaXV7bPtg+Exmas9xR50XWSpwbYWQQZZof+aKeocBSNgY8mVGLjvcYlpxjxpouSBP6lFCcOmvV6kcYr6gfcYVJERWdF9Yq8cwArWHuqIOy67PcPcbl5pO74j6jEuVJYR05Djfv56W1kF3k5nKEKJ7XCqHgEUdXowFyWwOUAepP+q8bczXiOn9uqHeYdICkDZDupd9tIzZJdMQhxLiwgn1MrUUJET7Juq5pWX1sBd7/CMX1IQ0aNN5ZAfd/0aYJt2Q9Btd9WP1TwZ17VAbmap/eaNuXW5YSHQUzwW1mXQR2yHdf9aypFeNayGD9KhJZe3yRV05XgLOty6o6ThdKJ8ax0X8w4QhvQ38AelRO3QOIk/UmfMlRKyaXnbUZ2J7qIPQ3OvWpN7GXy3cH9cgHWp3DIr8UGcedRWNwtqKGpcshNqmZycvSEyPfKUpalHXLxXkhdqHNGRtQ40piAB9p9XcnbiLfiJrDenXAGlQF68V5IOa9PHgumzp/6tZv3X/PD7HazPqnJBOC/QVfPHugmmT7aIoOi+6xRS5LWry7fWAuKf1FEEd6q08a0EeqEtaVxks6mLTre83SbSgc47YOaGmpANsLHYDbaxWTjbl/lnzU0EMbnHBv1dzNwzFiHSx69Q9LXYRSlCTFW13R11LuxUU8wW5o94QkjKt1WXzvAzI1LZ2QY0NJyF009rQbaWIcKOdL1AZKfaH0IYiZbR83n1YlMzCDKOmw0e3MEyeIPJNm+mX0s6oSbcRkiwK8xLXVq7sqLH9KKTem3Yfa4WodYtvNBKjFf1sRRaiASlmG+kGAIz6SDhE2PMSljqr0hk1BiIznWvncIRfE8fb/w2oCemY8Rnl/U0KWWn9qrjZigX8NMJt4KwrZrWjLRuhXuLqNrqGEdb0qbmi3uCqMplZckTujpVHfSFVZ12h824cXJD5cigJVhGMMSG+is5E6bWMMSKEGtnm8swUtCFGvCtqZABwpGe4ld6tEBY1adONwV3UNrXBs3sCHgfYdUrz8KJog1lD1AUyhHZMMV0PwaaxI+o9uoIp2xC8xO2WOdSUtLN7n6pWLwLabQ75SZO7f45YQ9To5o4Gny22eRxRw5WoyEx3HIJL3L7LoCakj8xA7KStBEUpn0CbWsRGpzYywAFqPBAZt8PCV1DDkVrEZiCwk4m+OnrUlPR7u6lweFQ+qGBb5Mf7qyJQLYAaLlq1i1JFCfi2G2o4fxu8lDeBgf1aHy1qYk8fjaXaBaoph/+HYEzAxglRyKOG40dqaxng2buhhs3UOHz0mpM706HGpI0Dn5O+wFWGO4N+QWFp1KgTANSwUfOT613+uzBwUmTdwYOgvTLXoiakL++Sht1bDuY5WN6Y9mXvYje84EpRWjeN/VHDqb2xIwGX6Mcbghrb32arwEV5GIJ6Kk5r8FRtA+zMgPoLPDNr734BNTQp7FVFtsBOgzr6PtJ5fliu60u2iGGJT9TIJKKuLCwWNZyE1mwBD3mjzmG3sVe1m4fUe4spauw7fpH0qlhH2TW4iDowB9QH9d828wlzUFFDS5nZ61HljRr69KSmSKwcml0hQl0Q0v4JWMPiK0tvjAOtBhJ71t5mxKL2BeGNeg3Nw8xBoC+LDbZJcAN0GJOA9nXflM17QgNqUH9zYBjloKLeeE6v/qi/4D0JB8EfFBA1dmuLLye+D80jGidnRA3NbauFxqMGXj3BOZoUeaO+2O/LfNMJQo1kN3QVFefALU5hQL3Dc7JNHGrgtHIxD7xRY2e4r7qGZEad2iJrn3KJJXtc9Yk685zM3FC7dI/RUXcDhBG1zf8zqHIYOB4amIL6M1s8QBxqOBLZV3LeqHNor/qr62pm1E7jXu/e9IkKYFALh5B3DnX176Pe2VA72SCFRyxZwKIOfjVqaUftMFtpYiPMJf7EVv1SqJt6d9YBpJdlukoMJfSxF/2SEe54/cCx2jN+TEPCNi1ev9QY/WR7poCOshTN8RyVywPnbvo21MDbZPXa/y+o9a0aL2SMjjJNbNL1fM9xVxaH1d2A+dKjhna1gxH//9nVcLsokN5aalCLABUbyD98nWloo7gGscGBl0ENh1i7P45FDTawDJvlr6P+gj6Qta+KGUUtOhLEkcp2Sbx72gftren8xqAuv8sHAv1Wtn2z2QuoE1+HFhVGfQvLwyMTO45i64OJvGFQQ9eF3aHPol75gvBGDbfmXFa2RAj1PfoqRCEXItX7knFEBdf8GdQHYOw5vEGMdaLCWtgnWP9dGM/NS42QZ+9hbeDoVnHUHzBFgYDc5gSD+oRdujaxuzDQm2K39vxRgyu49EAi5K9+2nUJHhm0Iyl0mPOrHQZ1Dq09e1NhUcNNVvu86I8a3aqzH26Qc8yeFgQwIWiU+lMMaojOYTpjUfvOWv6oUfd/4fWAfCQqNph1zmt4qoB/0hxqGFNgH0FY1CeI2rqIeeE0Lpq+/EMYedSrwD41qgOYaW+QQ70CK3ZDt7gr5lDP/MKkYBtxQ43CxJ1cnkCGUHa85NY4r9WYAJNdzKFG4T3S0lRgYB5ADZcYtokRhjq6od5CGi7LfyjTAY01NkPIkwSoDWtKFjWEZ5nYt/DZA9TQZLK9/jN+ATXJiOJrWxuPHZGpEW/rnt8cQFBUgXlxHqIzJnBjHNIzj0VoT9YRNTKAheZcoFFG1CEJVsDPQv085T2ALGrsxjFsHK/w6UyIGnVBwVuOOfY7uB7QwM3atvN6gOOh+YjoKcWlwycJnRisAQTj/QFq0lQ41nPinIeoQ7RPwlrpJ3LM2hU1cWLgk8lAqwql5bAcfMZnASW8OIzj5zwDLbRl4NcQQcE0R01iFhRZ4xhsmJDjS+6H6Ygbkz3VNsvXsUQnam1nzElkGZgaoe9Bb1nPcSuCqMmxZ3kkpeStbp8Yod6muKCY9pDlQrMP6n5ElDwmzSHLa4U70OL6scLaO3MCjOJDEwzttZszOQGLGj/Z3xAyWyq3eCou+tA0HC9G9jiFbFpluAyLWh8U5H7wWZOSQ8oKPdG8qJ4VFopbyIo6xKtGYFCSASZWbi7cf8Wae0OoSWsMruneqnK5XJb1OXY+Y57TsJjut/GuTJbLtt41bJDbe8f5+4tkdbG/puzbF/UCVFjJ6WFPvTLHB6uBqwV3KSHTY1W263V9WcT61oiHdO2Ou7hu/0qWc6A5zk8P2w8F6RJIPOSTpEKfr6jfrk570UQVA2uHhELYyQcCofFx4+fN8YGSZPbUZDxwEQ049Q2TuOsvpl7pC3nEvbukycJTozjnb1yaoj7ptoLt0sT2vrav7YV65R29J+4RLk7J30xT45YkwLCJ2oRzzxJu0qDObSn2tPLL3eTP+o7LCXWIcapTo2YIsVyZmt9MohuzdBHroVf04F2+yd8888uJe9iFW/ZIYuSoW1u67E0m6VY6G7+wv6u0hwOIweQg75SGJLuKSfJxOt8xJyrGCZzXyavhkYoOdBFHBWda/TmM0CX/GyzIP1HnxrnzKKtf10y/eNkLvO+FZYhE6xzt+l2XXAWVIiuXnKi5PVOnPIO9yBfSz+oyuGirfHZP/va8ATI1qi6GrenMgAi+uCOiQK05WaeME8dMv3tzclgRlLCXvoC664b26H0hj+pC0jlV+Bb3cLgN0erWhdfLBdUchS9yPvVVTfOEP4tJ65VhbxEqL5na9CWJ3cG0t/hHRW3cYTjs2OrebjzbA//IVqgxfCYH7AbHBELPWbhudBnZ42tG9gT8kK//6Uu3fO7+ldZXZ7gj6q42baNbaIpHWnYedQlS5pvPpxzKbhWuXaIOieRVgskg83HebQJFiO2r4LaWfoRVZ+WjAS+V35k3ivZRfD/De9U1f3/0qJgz6v7Gyudp4GeY9664V5pHnatVtW+Lz9tMqPW9XefcvhAn4qntch31J1H7sOqXrxYWbV1dD7TuorJV36Hhg7rXPvm6FXSuyrZQiPKoX9D2Wd+sitbJ/s3i/g35omb1rah/pVxf62DVhNomEOLzSojiQwC1Q8qGz9O3oa6dTbpPlbrn63LKgNUfx4XK50rdGyPxPz4C3cM//O73C8RC+QfNKWq+q3v8VgG3tsvhO04gAval0xa/XTAXxRtJWgtXz8/HCp5HeaMgeFDa6VVunyUQ9PuWraeOH845T36NwsJ6x7XbrFhYbTd4XvLiWdOfrlMqbeZtCE9zMA7CPJPSFvgMs/K9Y8n8QJ2ksK7a4HGyRv+l/NgHgJpnTHQu7rMWMNvrfoA5qSvMO8Jk37nF7YnY5MBFx+LeGfN/ng73bWD4JjeoAkZR6sePRzIakfK7HCcY0e2SqOX3aDhUIFLuxgsUDq9ti8Nes2CX7fj0gTWr+G+SenyDebtMvkY7jtplBwgB6d+AqxF+54lLnpZfowMMIpFBSeap4oijUHR54lGwjZARGY7mNNjkg9YvIdkhlzJSR9qN5h1e2vgGEtYk5E71k2xbGq3yUf4PXfy5kPIY9TvWZdXv/pMgA+2Joq0mxKr78aJat11JURboCnr7LQo/SvoYu8epAV1MC5OkRR/IbirI/0TtD5frC5SHtsgAWvuGs37aQtH7ha08oCSN9WIKeiGpx09X65En2HSkebZp4kYjPWrpkCTu94mcIjO0aaPNcMIvLTUUdBnp5v4xOQWgB/0kZ9syidwGbOH9GoXfozZ1gC0X9sQQThH9ukPRn6PQ2h6lcMjl2Un7AlzYpKOPsqep5hfDmdk+mN11Eb2qDEHmQojz3w/J/ed1iBotbSHFsfTxVpzKhfY4cLegaaIJ9FWr5aUJlFPT1+Dw9FjPfXt8vomaVFkl3gpqqv1nbbpYNE/qrLnuBKRpk/1p969GfMyLr90ivZUUH6ty75lt6WMUht/UALuC/oFZ8D+/R8+62gFYxwAAAABJRU5ErkJggg==;" vertex="1" parent="udLiIxojpCSS-x_ja0xO-5">
          <mxGeometry x="19.89" y="35" width="130.22" height="50" as="geometry" />
        </mxCell>
        <mxCell id="udLiIxojpCSS-x_ja0xO-15" value="PT ChizuAutocar tahun 2000" style="rounded=1;whiteSpace=wrap;html=1;" vertex="1" parent="udLiIxojpCSS-x_ja0xO-5">
          <mxGeometry x="19.889999999999986" y="110" width="120" height="60" as="geometry" />
        </mxCell>
        <mxCell id="udLiIxojpCSS-x_ja0xO-7" value="Data Preparation" style="swimlane;" vertex="1" parent="1">
          <mxGeometry x="450" y="-1030" width="160" height="290" as="geometry" />
        </mxCell>
        <mxCell id="udLiIxojpCSS-x_ja0xO-17" value="Checking Missing Value" style="rounded=1;whiteSpace=wrap;html=1;" vertex="1" parent="udLiIxojpCSS-x_ja0xO-7">
          <mxGeometry x="20" y="40" width="120" height="60" as="geometry" />
        </mxCell>
        <mxCell id="udLiIxojpCSS-x_ja0xO-18" value="Rename Column Table" style="rounded=1;whiteSpace=wrap;html=1;" vertex="1" parent="udLiIxojpCSS-x_ja0xO-7">
          <mxGeometry x="20" y="115" width="120" height="60" as="geometry" />
        </mxCell>
        <mxCell id="udLiIxojpCSS-x_ja0xO-19" value="Change Format Table" style="rounded=1;whiteSpace=wrap;html=1;" vertex="1" parent="udLiIxojpCSS-x_ja0xO-7">
          <mxGeometry x="20" y="190" width="120" height="60" as="geometry" />
        </mxCell>
        <mxCell id="udLiIxojpCSS-x_ja0xO-24" style="edgeStyle=orthogonalEdgeStyle;rounded=0;orthogonalLoop=1;jettySize=auto;html=1;" edge="1" parent="1" source="udLiIxojpCSS-x_ja0xO-9" target="udLiIxojpCSS-x_ja0xO-23">
          <mxGeometry relative="1" as="geometry" />
        </mxCell>
        <mxCell id="udLiIxojpCSS-x_ja0xO-9" value="Visualization" style="swimlane;" vertex="1" parent="1">
          <mxGeometry x="650" y="-1065" width="160" height="285" as="geometry" />
        </mxCell>
        <mxCell id="udLiIxojpCSS-x_ja0xO-20" value="Descriptive Analysis" style="rounded=1;whiteSpace=wrap;html=1;" vertex="1" parent="udLiIxojpCSS-x_ja0xO-9">
          <mxGeometry x="20" y="40" width="120" height="60" as="geometry" />
        </mxCell>
        <mxCell id="udLiIxojpCSS-x_ja0xO-21" value="Diagnostic Analysis" style="rounded=1;whiteSpace=wrap;html=1;" vertex="1" parent="udLiIxojpCSS-x_ja0xO-9">
          <mxGeometry x="20" y="115" width="120" height="60" as="geometry" />
        </mxCell>
        <mxCell id="udLiIxojpCSS-x_ja0xO-22" value="Predictive Analysis" style="rounded=1;whiteSpace=wrap;html=1;" vertex="1" parent="udLiIxojpCSS-x_ja0xO-9">
          <mxGeometry x="20" y="200" width="120" height="60" as="geometry" />
        </mxCell>
        <mxCell id="udLiIxojpCSS-x_ja0xO-23" value="Simple Linear Regression(Forecasting)" style="rounded=1;whiteSpace=wrap;html=1;" vertex="1" parent="1">
          <mxGeometry x="640" y="-730" width="180" height="60" as="geometry" />
        </mxCell>
      </root>
    </mxGraphModel>
  </diagram>
</mxfile>
